<svg width="106" height="396" viewBox="0 0 106 396" fill="none" xmlns="http://www.w3.org/2000/svg">
<path d="M232.638 28.2829C239.854 31.8863 244.734 39.6451 247.233 50.897C249.729 62.1387 249.806 76.7085 247.549 93.6366C243.037 127.483 229.224 170.528 207.154 214.725C185.083 258.921 158.972 295.825 134.626 319.767C122.45 331.742 110.757 340.434 100.27 345.192C89.7744 349.955 80.64 350.715 73.4241 347.112C66.2082 343.509 61.3279 335.75 58.8293 324.498C56.333 313.256 56.2556 298.686 58.5126 281.758C63.0251 247.912 76.8378 204.867 98.9082 160.67C120.979 116.474 147.09 79.5698 171.435 55.6276C183.612 43.6529 195.305 34.9611 205.792 30.2026C216.287 25.4397 225.422 24.6795 232.638 28.2829Z" stroke="#FFC700" stroke-width="2"/>
<path d="M224.212 39.0389C231.836 42.8458 237.058 50.8616 239.845 62.3738C242.63 73.8801 242.943 88.7397 240.857 105.965C236.687 140.407 222.957 184.082 200.626 228.799C178.296 273.516 151.632 310.732 126.604 334.758C114.088 346.775 102.021 355.452 91.1495 360.139C80.2724 364.828 70.7271 365.469 63.1038 361.662C55.4805 357.855 50.2583 349.84 47.4715 338.327C44.6862 326.821 44.3734 311.962 46.459 294.736C50.6291 260.294 64.3591 216.62 86.6896 171.902C109.02 127.185 135.684 89.9692 160.712 65.9429C173.228 53.9265 185.295 45.2487 196.167 40.5623C207.044 35.8734 216.589 35.2321 224.212 39.0389Z" stroke="#FFC700" stroke-width="2"/>
<path d="M230.734 15.4812C238.358 19.2881 243.58 27.3038 246.367 38.8161C249.152 50.3223 249.465 65.1819 247.379 82.4074C243.209 116.849 229.479 160.524 207.148 205.241C184.818 249.959 158.154 287.174 133.126 311.201C120.61 323.217 108.543 331.895 97.6715 336.581C86.7943 341.27 77.2491 341.911 69.6257 338.105C62.0024 334.298 56.7802 326.282 53.9935 314.77C51.2081 303.263 50.8954 288.404 52.981 271.178C57.1511 236.737 70.8811 193.062 93.2116 148.345C115.542 103.627 142.206 66.4115 167.234 42.3851C179.75 30.3688 191.817 21.691 202.688 17.0046C213.566 12.3157 223.111 11.6743 230.734 15.4812Z" stroke="#FFC700" stroke-width="2"/>
<path d="M246.857 16.4215C254.48 20.2283 259.702 28.2441 262.489 39.7563C265.274 51.2626 265.587 66.1222 263.502 83.3476C259.331 117.789 245.601 161.464 223.271 206.181C200.94 250.899 174.276 288.114 149.249 312.141C136.732 324.157 124.666 332.835 113.794 337.521C102.917 342.21 93.3716 342.852 85.7483 339.045C78.125 335.238 72.9028 327.222 70.116 315.71C67.3307 304.204 67.018 289.344 69.1036 272.119C73.2737 237.677 87.0036 194.002 109.334 149.285C131.665 104.567 158.329 67.3517 183.356 43.3254C195.873 31.309 207.94 22.6313 218.811 17.9448C229.688 13.2559 239.233 12.6146 246.857 16.4215Z" stroke="#FFC700" stroke-width="2"/>
</svg>
