<svg width="180" height="64" viewBox="0 0 180 64" fill="none" xmlns="http://www.w3.org/2000/svg">
<path d="M178.248 32.1417C178.248 35.9484 176.047 39.7523 171.664 43.3795C167.288 47.0002 160.881 50.3168 152.855 53.1261C136.813 58.7408 114.569 62.2367 89.941 62.2367C65.3127 62.2367 43.0694 58.7408 27.0274 53.1261C19.0007 50.3168 12.594 47.0002 8.21855 43.3795C3.8351 39.7523 1.63379 35.9484 1.63379 32.1417C1.63379 28.335 3.8351 24.5311 8.21855 20.9038C12.594 17.2831 19.0007 13.9666 27.0274 11.1572C43.0694 5.5425 65.3127 2.04663 89.941 2.04663C114.569 2.04663 136.813 5.5425 152.855 11.1572C160.881 13.9666 167.288 17.2831 171.664 20.9038C176.047 24.5311 178.248 28.335 178.248 32.1417Z" stroke="black" stroke-width="2.5"/>
</svg>
