<svg width="301" height="112" viewBox="0 0 301 112" fill="none" xmlns="http://www.w3.org/2000/svg">
<path d="M287.366 50.7907C287.366 57.1367 284.009 63.3817 277.504 69.2625C270.998 75.1434 261.487 80.5196 249.584 85.0706C225.791 94.1678 192.803 99.8314 156.279 99.8314C119.755 99.8314 86.7669 94.1678 62.974 85.0706C51.0716 80.5196 41.5599 75.1434 35.0544 69.2625C28.5489 63.3817 25.1919 57.1367 25.1919 50.7907C25.1919 44.4447 28.5489 38.1997 35.0544 32.3189C41.5599 26.438 51.0716 21.0618 62.974 16.5108C86.7669 7.41356 119.755 1.75 156.279 1.75C192.803 1.75 225.791 7.41356 249.584 16.5108C261.487 21.0618 270.998 26.438 277.504 32.3189C284.009 38.1997 287.366 44.4447 287.366 50.7907Z" stroke="black" stroke-width="3.5"/>
<path d="M299.087 56.6512C299.087 62.8444 295.505 68.9928 288.464 74.8195C281.434 80.637 271.155 85.9542 258.301 90.4534C232.607 99.4462 196.997 105.041 157.581 105.041C118.166 105.041 82.5561 99.4462 56.8625 90.4534C44.0075 85.9542 33.7294 80.637 26.6991 74.8195C19.6577 68.9928 16.0757 62.8444 16.0757 56.6512C16.0757 50.458 19.6577 44.3096 26.6991 38.4829C33.7294 32.6654 44.0075 27.3482 56.8625 22.8489C82.5561 13.8562 118.166 8.26166 157.581 8.26166C196.997 8.26166 232.607 13.8562 258.301 22.8489C271.155 27.3482 281.434 32.6654 288.464 38.4829C295.505 44.3096 299.087 50.458 299.087 56.6512Z" stroke="black" stroke-width="3.5"/>
<path d="M289.971 61.8605C289.971 68.0537 286.389 74.2021 279.348 80.0288C272.317 85.8463 262.039 91.1635 249.184 95.6627C223.491 104.656 187.881 110.25 148.465 110.25C109.049 110.25 73.4399 104.656 47.7462 95.6627C34.8913 91.1635 24.6131 85.8463 17.5829 80.0288C10.5415 74.2021 6.95947 68.0537 6.95947 61.8605C6.95947 55.6673 10.5415 49.5189 17.5829 43.6922C24.6131 37.8747 34.8913 32.5574 47.7462 28.0582C73.4399 19.0654 109.049 13.4709 148.465 13.4709C187.881 13.4709 223.491 19.0654 249.184 28.0582C262.039 32.5574 272.317 37.8747 279.348 43.6922C286.389 49.5189 289.971 55.6673 289.971 61.8605Z" stroke="black" stroke-width="3.5"/>
<path d="M284.762 51.4418C284.762 57.635 281.18 63.7835 274.138 69.6102C267.108 75.4276 256.83 80.7449 243.975 85.2441C218.281 94.2369 182.672 99.8314 143.256 99.8314C103.84 99.8314 68.2304 94.2369 42.5368 85.2441C29.6819 80.7449 19.4037 75.4276 12.3734 69.6102C5.33204 63.7835 1.75 57.635 1.75 51.4418C1.75 45.2486 5.33204 39.1002 12.3734 33.2735C19.4037 27.456 29.6819 22.1388 42.5368 17.6396C68.2304 8.64681 103.84 3.05231 143.256 3.05231C182.672 3.05231 218.281 8.64681 243.975 17.6396C256.83 22.1388 267.108 27.456 274.138 33.2735C281.18 39.1002 284.762 45.2486 284.762 51.4418Z" stroke="black" stroke-width="3.5"/>
</svg>
