<svg width="189" height="71" viewBox="0 0 189 71" fill="none" xmlns="http://www.w3.org/2000/svg">
<path d="M179.876 32.7345C179.876 36.6424 177.81 40.5076 173.762 44.1666C169.714 47.8256 163.787 51.1781 156.357 54.0191C141.504 59.698 120.901 63.2367 98.0821 63.2367C75.2627 63.2367 54.6599 59.698 39.8075 54.0191C32.3771 51.1781 26.45 47.8256 22.4023 44.1666C18.3547 40.5076 16.2881 36.6424 16.2881 32.7345C16.2881 28.8267 18.3547 24.9615 22.4023 21.3025C26.45 17.6435 32.3771 14.291 39.8075 11.45C54.6599 5.77112 75.2627 2.23242 98.0821 2.23242C120.901 2.23242 141.504 5.77112 156.357 11.45C163.787 14.291 169.714 17.6435 173.762 21.3025C177.81 24.9615 179.876 28.8267 179.876 32.7345Z" stroke="black" stroke-width="2.5"/>
<path d="M187.204 36.3981C187.204 40.2048 185.003 44.0087 180.619 47.636C176.244 51.2567 169.837 54.5732 161.81 57.3826C145.768 62.9973 123.525 66.4932 98.8966 66.4932C74.2683 66.4932 52.025 62.9973 35.983 57.3826C27.9562 54.5732 21.5496 51.2567 17.1741 47.636C12.7907 44.0087 10.5894 40.2048 10.5894 36.3981C10.5894 32.5914 12.7907 28.7875 17.1741 25.1603C21.5496 21.5396 27.9562 18.223 35.983 15.4137C52.025 9.79897 74.2683 6.3031 98.8966 6.3031C123.525 6.3031 145.768 9.79897 161.81 15.4137C169.837 18.223 176.244 21.5396 180.619 25.1603C185.003 28.7875 187.204 32.5914 187.204 36.3981Z" stroke="black" stroke-width="2.5"/>
<path d="M181.505 39.6549C181.505 43.4615 179.304 47.2654 174.92 50.8927C170.545 54.5134 164.138 57.8299 156.111 60.6393C140.069 66.254 117.826 69.7499 93.1979 69.7499C68.5695 69.7499 46.3263 66.254 30.2843 60.6393C22.2575 57.8299 15.8509 54.5134 11.4754 50.8927C7.09194 47.2654 4.89062 43.4615 4.89062 39.6549C4.89062 35.8482 7.09194 32.0443 11.4754 28.417C15.8509 24.7963 22.2575 21.4798 30.2843 18.6704C46.3263 13.0557 68.5695 9.55981 93.1979 9.55981C117.826 9.55981 140.069 13.0557 156.111 18.6704C164.138 21.4798 170.545 24.7963 174.92 28.417C179.304 32.0443 181.505 35.8482 181.505 39.6549Z" stroke="black" stroke-width="2.5"/>
<path d="M178.248 33.1417C178.248 36.9484 176.047 40.7523 171.664 44.3795C167.288 48.0002 160.881 51.3168 152.855 54.1261C136.813 59.7408 114.569 63.2367 89.941 63.2367C65.3127 63.2367 43.0695 59.7408 27.0274 54.1261C19.0007 51.3168 12.594 48.0002 8.21855 44.3795C3.8351 40.7523 1.63379 36.9484 1.63379 33.1417C1.63379 29.335 3.8351 25.5311 8.21855 21.9038C12.594 18.2831 19.0007 14.9666 27.0274 12.1572C43.0695 6.5425 65.3127 3.04663 89.941 3.04663C114.569 3.04663 136.813 6.5425 152.855 12.1572C160.881 14.9666 167.288 18.2831 171.664 21.9038C176.047 25.5311 178.248 29.335 178.248 33.1417Z" stroke="black" stroke-width="2.5"/>
</svg>
