<svg width="55" height="47" viewBox="0 0 55 47" fill="none" xmlns="http://www.w3.org/2000/svg">
<path d="M2.16455 1.41577H54.3869C54.3869 7.4617 51.6359 13.26 46.7391 17.5351C41.8423 21.8103 35.2008 24.212 28.2757 24.212C21.3506 24.212 14.7091 21.8103 9.81233 17.5351C4.91553 13.26 2.16455 7.4617 2.16455 1.41577Z" fill="black"/>
<path d="M11.853 4.54275C16.9312 8.03293 20.1005 8.12725 22.0454 7.62416C24.7825 6.86953 25.1427 4.82573 27.8438 4.54275C31.2293 4.16543 32.5979 7.2154 36.4515 7.62416C38.3243 7.81282 41.0615 7.37262 44.699 4.54275C44.699 8.34543 42.9688 11.9924 39.8889 14.6813C36.809 17.3702 32.6317 18.8808 28.276 18.8808C23.9204 18.8808 19.7431 17.3702 16.6632 14.6813C13.5833 11.9924 11.853 8.34543 11.853 4.54275Z" fill="black"/>
<path d="M2.16455 46.7252H54.3869C54.3869 40.6792 51.6359 34.8809 46.7391 30.6058C41.8423 26.3307 35.2008 23.929 28.2757 23.929C21.3506 23.929 14.7091 26.3307 9.81233 30.6058C4.91553 34.8809 2.16455 40.6792 2.16455 46.7252Z" fill="black"/>
<path d="M11.25 41.2023H44.1321C43.916 40.1332 42.4033 32.5554 35.2002 29.1596C33.0301 28.1555 30.631 27.5862 28.1772 27.4931C25.3723 27.4627 22.6018 28.035 20.1098 29.1596C12.7266 32.5868 11.3941 40.259 11.25 41.2023Z" fill="black"/>
<path d="M0 0H52.2223C52.2223 6.04593 49.4713 11.8442 44.5745 16.1194C39.6778 20.3945 33.0363 22.7962 26.1112 22.7962C19.1861 22.7962 12.5446 20.3945 7.64778 16.1194C2.75098 11.8442 0 6.04593 0 0Z" fill="#4472F2"/>
<path d="M9.68799 3.12698C14.7662 6.61715 17.9355 6.71148 19.8803 6.20839C22.6175 5.45376 22.9777 3.40996 25.6788 3.12698C29.0643 2.74966 30.4328 5.79963 34.2865 6.20839C36.1593 6.39705 38.8965 5.95685 42.534 3.12698C42.534 6.92966 40.8037 10.5766 37.7238 13.2655C34.6439 15.9544 30.4667 17.465 26.111 17.465C21.7553 17.465 17.5781 15.9544 14.4982 13.2655C11.4183 10.5766 9.68799 6.92966 9.68799 3.12698Z" fill="#FFE12E"/>
<path d="M0 45.3094H52.2223C52.2223 39.2635 49.4713 33.4652 44.5745 29.19C39.6778 24.9149 33.0363 22.5132 26.1112 22.5132C19.1861 22.5132 12.5446 24.9149 7.64778 29.19C2.75098 33.4652 0 39.2635 0 45.3094Z" fill="#4472F2"/>
<path d="M9.08545 39.7862H41.9675C41.7514 38.7172 40.2388 31.1394 33.0357 27.7435C30.8655 26.7395 28.4664 26.1702 26.0127 26.0771C23.2077 26.0467 20.4372 26.619 17.9452 27.7435C10.5621 31.1708 9.22951 38.8429 9.08545 39.7862Z" fill="#FFE12E"/>
</svg>
