<svg width="72" height="136" viewBox="0 0 72 136" fill="none" xmlns="http://www.w3.org/2000/svg">
<path fill-rule="evenodd" clip-rule="evenodd" d="M59.6201 5.51232C57.8404 8.48263 55.7637 11.589 55.0055 12.4149C49.4606 18.4571 9.60679 88.4494 9.4003 92.5072C9.2519 95.4331 10.4278 94.0014 14.0549 86.8418C16.0458 82.9123 17.1621 80.8701 16.5357 82.303C15.9068 83.7429 15.6178 85.026 15.8899 85.1703C16.2317 85.3517 17.7478 82.7021 20.852 76.4983C23.3104 71.5847 26.9662 64.7948 28.9762 61.4091C31.5087 57.1428 29.901 60.4031 23.7394 72.0289C18.8489 81.2554 15.1026 88.1229 15.4144 87.2907C15.7257 86.4582 15.761 85.6602 15.4925 85.5177C15.1676 85.3454 14.7061 86.0825 14.1146 87.7176C13.6255 89.0698 12.5619 91.7087 11.751 93.5813C8.64507 100.756 7.47548 103.807 8.32674 102.511C8.81307 101.771 9.367 100.997 9.5569 100.791C9.74679 100.585 10.5876 99.187 11.4252 97.6848L12.9476 94.9537L16.401 96.0607C18.3003 96.6698 20.3157 97.5744 20.8795 98.0711L21.9052 98.9743L19.8659 100.82C18.2992 102.24 16.6273 104.738 12.649 111.607C9.80128 116.524 7.10307 120.864 6.65267 121.253C5.89788 121.904 5.83278 121.818 5.81547 120.147C5.79424 118.104 5.55317 117.678 5.23231 119.116C5.11399 119.648 5.23024 120.627 5.49039 121.293C5.89928 122.34 5.62665 123.139 3.48572 127.175C1.01289 131.835 -0.119218 134.736 0.422821 135.023C0.817088 135.231 1.98766 133.297 11.419 116.852C19.1938 103.295 19.7554 102.437 21.7179 101.102C24.3791 99.2937 25.0714 98.4283 28.7739 92.2851C30.4565 89.4933 32.256 86.5542 32.7729 85.7538C40.6656 73.5357 48.0783 59.5563 64.1924 26.5003C68.3478 17.9764 68.8195 16.6735 67.9219 16.1973C67.197 15.8127 68.7236 11.3884 70.1472 9.74875C70.7633 9.03896 71.0193 8.21679 70.872 7.42411C70.7464 6.74896 70.8193 5.85028 71.0338 5.42707C71.2726 4.95478 71.069 4.46878 70.5072 4.17075C69.7943 3.7925 69.4367 3.97514 68.8975 4.99147C68.5161 5.71027 67.9727 6.17561 67.69 6.02562C67.3304 5.83479 67.2315 5.99227 67.3622 6.5495C67.5645 7.41438 67.554 7.45738 66.7017 9.26953C66.1808 10.3776 66.2568 10.3627 67.4722 9.12001C69.4162 7.13128 69.57 7.65497 67.8591 10.4413C66.398 12.8202 64.7313 13.9463 63.5767 13.3337C62.9815 13.0179 63.6551 10.4779 65.0227 7.88018C65.5529 6.87304 65.6564 6.06488 65.3055 5.67494C64.9578 5.28893 65.0551 4.48695 65.5675 3.52115C66.3602 2.02693 66.3332 1.95619 64.62 1.04727L62.8565 0.111618L59.6201 5.51232ZM66.4478 4.25005C66.13 4.84905 66.1039 5.14949 66.3899 4.91711C66.676 4.68541 66.936 4.19532 66.9677 3.82803C66.9995 3.46141 66.7656 3.65106 66.4478 4.25005ZM63.5636 9.68744C62.7422 11.5466 62.4145 11.892 61.6877 11.6638C60.9538 11.4335 60.9802 11.0607 61.8449 9.43095C63.9211 5.51766 65.3141 5.72525 63.5636 9.68744ZM61.4776 7.43514C61.8999 8.69645 61.1581 10.0558 59.9263 10.2804C58.7875 10.4879 58.788 10.6099 59.9211 8.18419C60.9027 6.08284 61.0085 6.03178 61.4776 7.43514ZM65.084 15.2226C65.1406 15.2676 65.4741 15.4569 65.825 15.6431C66.1756 15.829 66.3197 16.5966 66.1457 17.3484C65.5923 19.7361 61.3271 30.0759 59.0137 34.6388C57.787 37.0584 55.1882 42.4624 53.2388 46.6479C51.2895 50.8334 48.5337 56.2798 47.1151 58.7511C42.9855 65.946 30.6062 87.0277 27.0127 92.9853L23.7152 98.4524L21.1478 97.2047C19.7357 96.5186 17.6476 95.6268 16.5074 95.2239C14.808 94.6232 14.4314 94.3095 14.4213 93.4852C14.4079 92.4358 27.0299 68.7894 34.6921 55.5095C37.0656 51.3956 42.5659 41.6273 46.9157 33.8027C56.6181 16.3476 58.721 13.1144 60.5745 12.7993C61.6335 12.6193 62.2517 12.8462 63.452 13.8554C64.2929 14.5622 65.0275 15.1775 65.084 15.2226ZM56.6119 14.5232C56.2745 14.8813 56.3621 14.4884 56.807 13.6498C57.2519 12.8112 57.5282 12.5184 57.4208 12.9985C57.314 13.4789 56.9497 14.1654 56.6119 14.5232ZM46.4226 32.1678C46.0293 32.5849 45.6565 32.7751 45.5941 32.5896C45.4712 32.2224 46.6123 31.1296 46.9381 31.3025C47.0485 31.361 46.8167 31.7505 46.4226 32.1678ZM41.2735 41.2766C40.3895 42.7269 40.9664 41.4626 42.5554 38.4676C44.1444 35.4726 44.8676 34.2865 44.1625 35.8311C43.4577 37.3765 42.1576 39.8269 41.2735 41.2766ZM39.3702 45.1516C39.2431 45.3912 39.0484 45.5391 38.937 45.48C38.8257 45.4209 38.7116 45.1092 38.683 44.7869C38.6543 44.4647 38.8495 44.317 39.1161 44.4585C39.3828 44.6 39.4974 44.912 39.3702 45.1516ZM20.4567 74.8929C20.1707 75.1252 20.1968 74.8248 20.5146 74.2258C20.8324 73.6268 21.0663 73.4372 21.0345 73.8038C21.0028 74.1711 20.7428 74.6612 20.4567 74.8929ZM18.9667 77.731C18.6291 78.0895 18.7169 77.6962 19.1618 76.8576C19.6067 76.019 19.8832 75.7258 19.7756 76.2063C19.6685 76.6871 19.3047 77.3728 18.9667 77.731ZM13.9541 91.8193C12.9255 93.6406 12.8385 93.6995 13.1455 92.3673C13.6518 90.1668 14.1319 89.2619 14.6478 89.5357C14.8998 89.6694 14.5878 90.6968 13.9541 91.8193ZM9.47927 106.333C5.64021 114.271 4.79735 116.472 5.28794 117.269C5.64824 117.854 6.09182 117.007 6.06413 115.789C6.05227 115.265 7.71357 111.327 9.75672 107.038C11.7994 102.749 13.4186 99.0857 13.3548 98.8983C13.291 98.711 11.5467 102.056 9.47927 106.333ZM6.62667 105.936C6.30887 106.535 6.28275 106.835 6.56869 106.603C6.85484 106.371 7.11486 105.881 7.1465 105.514C7.17837 105.147 6.94447 105.337 6.62667 105.936Z" fill="#747171"/>
</svg>
