<svg width="1172" height="1654" viewBox="0 0 1172 1654" fill="none" xmlns="http://www.w3.org/2000/svg">
<line y1="1279.5" x2="732.001" y2="1279.5" stroke="#ABCCF2" stroke-opacity="0.6"/>
<line y1="1264.26" x2="732.001" y2="1264.26" stroke="#ABCCF2" stroke-opacity="0.6"/>
<line y1="1249.02" x2="732.001" y2="1249.02" stroke="#ABCCF2" stroke-opacity="0.6"/>
<line y1="1233.79" x2="732.001" y2="1233.79" stroke="#ABCCF2" stroke-opacity="0.6"/>
<line y1="1218.55" x2="732.001" y2="1218.55" stroke="#ABCCF2" stroke-opacity="0.6"/>
<line y1="1203.31" x2="732.001" y2="1203.31" stroke="#ABCCF2" stroke-opacity="0.6"/>
<line y1="1188.07" x2="732.001" y2="1188.07" stroke="#ABCCF2" stroke-opacity="0.6"/>
<line y1="1172.83" x2="732.001" y2="1172.83" stroke="#ABCCF2" stroke-opacity="0.6"/>
<line y1="1157.6" x2="732.001" y2="1157.6" stroke="#ABCCF2" stroke-opacity="0.6"/>
<line y1="1142.36" x2="732.001" y2="1142.36" stroke="#ABCCF2" stroke-opacity="0.6"/>
<line y1="1127.12" x2="732.001" y2="1127.12" stroke="#ABCCF2" stroke-opacity="0.6"/>
<line y1="1111.88" x2="732.001" y2="1111.88" stroke="#ABCCF2" stroke-opacity="0.6"/>
<line y1="1096.64" x2="732.001" y2="1096.64" stroke="#ABCCF2" stroke-opacity="0.6"/>
<line y1="1081.4" x2="732.001" y2="1081.4" stroke="#ABCCF2" stroke-opacity="0.6"/>
<line y1="1066.17" x2="732.001" y2="1066.17" stroke="#ABCCF2" stroke-opacity="0.6"/>
<line y1="1050.93" x2="732.001" y2="1050.93" stroke="#ABCCF2" stroke-opacity="0.6"/>
<line y1="1035.69" x2="732.001" y2="1035.69" stroke="#ABCCF2" stroke-opacity="0.6"/>
<line y1="1020.45" x2="732.001" y2="1020.45" stroke="#ABCCF2" stroke-opacity="0.6"/>
<line y1="1005.21" x2="732.001" y2="1005.21" stroke="#ABCCF2" stroke-opacity="0.6"/>
<line y1="989.976" x2="732.001" y2="989.976" stroke="#ABCCF2" stroke-opacity="0.6"/>
<line y1="974.738" x2="732.001" y2="974.738" stroke="#ABCCF2" stroke-opacity="0.6"/>
<line y1="959.5" x2="732.001" y2="959.5" stroke="#ABCCF2" stroke-opacity="0.6"/>
<line y1="944.262" x2="732.001" y2="944.262" stroke="#ABCCF2" stroke-opacity="0.6"/>
<line y1="929.024" x2="732.001" y2="929.024" stroke="#ABCCF2" stroke-opacity="0.6"/>
<line y1="913.786" x2="732.001" y2="913.786" stroke="#ABCCF2" stroke-opacity="0.6"/>
<line y1="898.548" x2="732.001" y2="898.548" stroke="#ABCCF2" stroke-opacity="0.6"/>
<line y1="883.31" x2="732.001" y2="883.31" stroke="#ABCCF2" stroke-opacity="0.6"/>
<line y1="868.071" x2="732.001" y2="868.071" stroke="#ABCCF2" stroke-opacity="0.6"/>
<line y1="852.833" x2="732.001" y2="852.833" stroke="#ABCCF2" stroke-opacity="0.6"/>
<line y1="837.595" x2="732.001" y2="837.595" stroke="#ABCCF2" stroke-opacity="0.6"/>
<line y1="822.357" x2="732.001" y2="822.357" stroke="#ABCCF2" stroke-opacity="0.6"/>
<line y1="807.119" x2="732.001" y2="807.119" stroke="#ABCCF2" stroke-opacity="0.6"/>
<line y1="791.881" x2="732.001" y2="791.881" stroke="#ABCCF2" stroke-opacity="0.6"/>
<line y1="776.643" x2="732.001" y2="776.643" stroke="#ABCCF2" stroke-opacity="0.6"/>
<line y1="761.405" x2="732.001" y2="761.405" stroke="#ABCCF2" stroke-opacity="0.6"/>
<line y1="746.167" x2="732.001" y2="746.167" stroke="#ABCCF2" stroke-opacity="0.6"/>
<line y1="730.929" x2="732.001" y2="730.929" stroke="#ABCCF2" stroke-opacity="0.6"/>
<line y1="715.69" x2="732.001" y2="715.69" stroke="#ABCCF2" stroke-opacity="0.6"/>
<line y1="700.452" x2="732.001" y2="700.452" stroke="#ABCCF2" stroke-opacity="0.6"/>
<line y1="685.214" x2="732.001" y2="685.214" stroke="#ABCCF2" stroke-opacity="0.6"/>
<line y1="669.976" x2="732.001" y2="669.976" stroke="#ABCCF2" stroke-opacity="0.6"/>
<line y1="654.738" x2="732.001" y2="654.738" stroke="#ABCCF2" stroke-opacity="0.6"/>
<line y1="639.5" x2="732.001" y2="639.5" stroke="#ABCCF2" stroke-opacity="0.6"/>
<line y1="624.262" x2="732.001" y2="624.262" stroke="#ABCCF2" stroke-opacity="0.6"/>
<line y1="609.024" x2="732.001" y2="609.024" stroke="#ABCCF2" stroke-opacity="0.6"/>
<line y1="593.786" x2="732.001" y2="593.786" stroke="#ABCCF2" stroke-opacity="0.6"/>
<line y1="578.548" x2="732.001" y2="578.548" stroke="#ABCCF2" stroke-opacity="0.6"/>
<line y1="563.31" x2="732.001" y2="563.31" stroke="#ABCCF2" stroke-opacity="0.6"/>
<line y1="548.071" x2="732.001" y2="548.071" stroke="#ABCCF2" stroke-opacity="0.6"/>
<line y1="532.833" x2="732.001" y2="532.833" stroke="#ABCCF2" stroke-opacity="0.6"/>
<line y1="517.595" x2="732.001" y2="517.595" stroke="#ABCCF2" stroke-opacity="0.6"/>
<line y1="502.357" x2="732.001" y2="502.357" stroke="#ABCCF2" stroke-opacity="0.6"/>
<line y1="487.119" x2="732.001" y2="487.119" stroke="#ABCCF2" stroke-opacity="0.6"/>
<line y1="471.881" x2="732.001" y2="471.881" stroke="#ABCCF2" stroke-opacity="0.6"/>
<line y1="456.643" x2="732.001" y2="456.643" stroke="#ABCCF2" stroke-opacity="0.6"/>
<line y1="441.405" x2="732.001" y2="441.405" stroke="#ABCCF2" stroke-opacity="0.6"/>
<line y1="426.167" x2="732.001" y2="426.167" stroke="#ABCCF2" stroke-opacity="0.6"/>
<line y1="410.929" x2="732.001" y2="410.929" stroke="#ABCCF2" stroke-opacity="0.6"/>
<line y1="395.69" x2="732.001" y2="395.69" stroke="#ABCCF2" stroke-opacity="0.6"/>
<line y1="380.452" x2="732.001" y2="380.452" stroke="#ABCCF2" stroke-opacity="0.6"/>
<line y1="365.214" x2="732.001" y2="365.214" stroke="#ABCCF2" stroke-opacity="0.6"/>
<line y1="349.976" x2="732.001" y2="349.976" stroke="#ABCCF2" stroke-opacity="0.6"/>
<line y1="334.738" x2="732.001" y2="334.738" stroke="#ABCCF2" stroke-opacity="0.6"/>
<line y1="319.5" x2="732.001" y2="319.5" stroke="#ABCCF2" stroke-opacity="0.6"/>
<line y1="304.262" x2="732.001" y2="304.262" stroke="#ABCCF2" stroke-opacity="0.6"/>
<line y1="289.024" x2="732.001" y2="289.024" stroke="#ABCCF2" stroke-opacity="0.6"/>
<line y1="273.786" x2="732.001" y2="273.786" stroke="#ABCCF2" stroke-opacity="0.6"/>
<line y1="258.548" x2="732.001" y2="258.548" stroke="#ABCCF2" stroke-opacity="0.6"/>
<line y1="243.31" x2="732.001" y2="243.31" stroke="#ABCCF2" stroke-opacity="0.6"/>
<line y1="228.071" x2="732.001" y2="228.071" stroke="#ABCCF2" stroke-opacity="0.6"/>
<line y1="212.833" x2="732.001" y2="212.833" stroke="#ABCCF2" stroke-opacity="0.6"/>
<line y1="197.595" x2="732.001" y2="197.595" stroke="#ABCCF2" stroke-opacity="0.6"/>
<line y1="182.357" x2="732.001" y2="182.357" stroke="#ABCCF2" stroke-opacity="0.6"/>
<line y1="167.119" x2="732.001" y2="167.119" stroke="#ABCCF2" stroke-opacity="0.6"/>
<line y1="151.881" x2="732.001" y2="151.881" stroke="#ABCCF2" stroke-opacity="0.6"/>
<line y1="136.643" x2="732.001" y2="136.643" stroke="#ABCCF2" stroke-opacity="0.6"/>
<line y1="121.405" x2="732.001" y2="121.405" stroke="#ABCCF2" stroke-opacity="0.6"/>
<line y1="106.167" x2="732.001" y2="106.167" stroke="#ABCCF2" stroke-opacity="0.6"/>
<line y1="90.9287" x2="732.001" y2="90.9287" stroke="#ABCCF2" stroke-opacity="0.6"/>
<line y1="75.6904" x2="732.001" y2="75.6904" stroke="#ABCCF2" stroke-opacity="0.6"/>
<line y1="60.4521" x2="732.001" y2="60.4521" stroke="#ABCCF2" stroke-opacity="0.6"/>
<line y1="45.2144" x2="732.001" y2="45.2144" stroke="#ABCCF2" stroke-opacity="0.6"/>
<line y1="29.9761" x2="732.001" y2="29.9761" stroke="#ABCCF2" stroke-opacity="0.6"/>
<line y1="14.7383" x2="732.001" y2="14.7383" stroke="#ABCCF2" stroke-opacity="0.6"/>
<line x1="729.5" y1="1280" x2="729.5" stroke="#ABCCF2" stroke-opacity="0.6"/>
<line x1="715.5" y1="1280" x2="715.5" stroke="#ABCCF2" stroke-opacity="0.6"/>
<line x1="701.5" y1="1280" x2="701.5" stroke="#ABCCF2" stroke-opacity="0.6"/>
<line x1="687.5" y1="1280" x2="687.5" stroke="#ABCCF2" stroke-opacity="0.6"/>
<line x1="673.5" y1="1280" x2="673.5" stroke="#ABCCF2" stroke-opacity="0.6"/>
<line x1="659.5" y1="1280" x2="659.5" stroke="#ABCCF2" stroke-opacity="0.6"/>
<line x1="645.5" y1="1280" x2="645.5" stroke="#ABCCF2" stroke-opacity="0.6"/>
<line x1="631.5" y1="1280" x2="631.5" stroke="#ABCCF2" stroke-opacity="0.6"/>
<line x1="617.5" y1="1280" x2="617.5" stroke="#ABCCF2" stroke-opacity="0.6"/>
<line x1="603.5" y1="1280" x2="603.5" stroke="#ABCCF2" stroke-opacity="0.6"/>
<line x1="589.5" y1="1280" x2="589.5" stroke="#ABCCF2" stroke-opacity="0.6"/>
<line x1="575.5" y1="1280" x2="575.5" stroke="#ABCCF2" stroke-opacity="0.6"/>
<line x1="561.5" y1="1280" x2="561.5" stroke="#ABCCF2" stroke-opacity="0.6"/>
<line x1="547.5" y1="1280" x2="547.5" stroke="#ABCCF2" stroke-opacity="0.6"/>
<line x1="533.5" y1="1280" x2="533.5" stroke="#ABCCF2" stroke-opacity="0.6"/>
<line x1="519.5" y1="1280" x2="519.5" stroke="#ABCCF2" stroke-opacity="0.6"/>
<line x1="505.5" y1="1280" x2="505.5" stroke="#ABCCF2" stroke-opacity="0.6"/>
<line x1="491.5" y1="1280" x2="491.5" stroke="#ABCCF2" stroke-opacity="0.6"/>
<line x1="477.5" y1="1280" x2="477.5" stroke="#ABCCF2" stroke-opacity="0.6"/>
<line x1="463.5" y1="1280" x2="463.5" stroke="#ABCCF2" stroke-opacity="0.6"/>
<line x1="449.5" y1="1280" x2="449.5" stroke="#ABCCF2" stroke-opacity="0.6"/>
<line x1="435.5" y1="1280" x2="435.5" stroke="#ABCCF2" stroke-opacity="0.6"/>
<line x1="421.5" y1="1280" x2="421.5" stroke="#ABCCF2" stroke-opacity="0.6"/>
<line x1="407.5" y1="1280" x2="407.5" stroke="#ABCCF2" stroke-opacity="0.6"/>
<line x1="393.5" y1="1280" x2="393.5" stroke="#ABCCF2" stroke-opacity="0.6"/>
<line x1="379.5" y1="1280" x2="379.5" stroke="#ABCCF2" stroke-opacity="0.6"/>
<line x1="365.5" y1="1280" x2="365.5" stroke="#ABCCF2" stroke-opacity="0.6"/>
<line x1="351.5" y1="1280" x2="351.5" stroke="#ABCCF2" stroke-opacity="0.6"/>
<line x1="337.5" y1="1280" x2="337.5" stroke="#ABCCF2" stroke-opacity="0.6"/>
<line x1="323.5" y1="1280" x2="323.5" stroke="#ABCCF2" stroke-opacity="0.6"/>
<line x1="309.5" y1="1280" x2="309.5" stroke="#ABCCF2" stroke-opacity="0.6"/>
<line x1="295.5" y1="1280" x2="295.5" stroke="#ABCCF2" stroke-opacity="0.6"/>
<line x1="281.5" y1="1280" x2="281.5" stroke="#ABCCF2" stroke-opacity="0.6"/>
<line x1="267.5" y1="1280" x2="267.5" stroke="#ABCCF2" stroke-opacity="0.6"/>
<line x1="253.5" y1="1280" x2="253.5" stroke="#ABCCF2" stroke-opacity="0.6"/>
<line x1="239.5" y1="1280" x2="239.5" stroke="#ABCCF2" stroke-opacity="0.6"/>
<line x1="225.5" y1="1280" x2="225.5" stroke="#ABCCF2" stroke-opacity="0.6"/>
<line x1="211.5" y1="1280" x2="211.5" stroke="#ABCCF2" stroke-opacity="0.6"/>
<line x1="197.5" y1="1280" x2="197.5" stroke="#ABCCF2" stroke-opacity="0.6"/>
<line x1="183.5" y1="1280" x2="183.5" stroke="#ABCCF2" stroke-opacity="0.6"/>
<line x1="169.5" y1="1280" x2="169.5" stroke="#ABCCF2" stroke-opacity="0.6"/>
<line x1="155.5" y1="1280" x2="155.5" stroke="#ABCCF2" stroke-opacity="0.6"/>
<line x1="141.5" y1="1280" x2="141.5" stroke="#ABCCF2" stroke-opacity="0.6"/>
<line x1="127.5" y1="1280" x2="127.5" stroke="#ABCCF2" stroke-opacity="0.6"/>
<line x1="113.5" y1="1280" x2="113.5" stroke="#ABCCF2" stroke-opacity="0.6"/>
<line x1="99.5002" y1="1280" x2="99.5002" stroke="#ABCCF2" stroke-opacity="0.6"/>
<line x1="85.5002" y1="1280" x2="85.5002" stroke="#ABCCF2" stroke-opacity="0.6"/>
<line x1="71.5002" y1="1280" x2="71.5002" stroke="#ABCCF2" stroke-opacity="0.6"/>
<line x1="57.5002" y1="1280" x2="57.5002" stroke="#ABCCF2" stroke-opacity="0.6"/>
<line x1="43.5002" y1="1280" x2="43.5002" stroke="#ABCCF2" stroke-opacity="0.6"/>
<line x1="29.5002" y1="1280" x2="29.5002" stroke="#ABCCF2" stroke-opacity="0.6"/>
<line x1="15.5002" y1="1280" x2="15.5002" stroke="#ABCCF2" stroke-opacity="0.6"/>
<line x1="1.50024" y1="1280" x2="1.50024" stroke="#ABCCF2" stroke-opacity="0.6"/>
<line x1="728" y1="1279.5" x2="1460" y2="1279.5" stroke="#ABCCF2" stroke-opacity="0.6"/>
<line x1="728" y1="1264.26" x2="1460" y2="1264.26" stroke="#ABCCF2" stroke-opacity="0.6"/>
<line x1="728" y1="1249.02" x2="1460" y2="1249.02" stroke="#ABCCF2" stroke-opacity="0.6"/>
<line x1="728" y1="1233.79" x2="1460" y2="1233.79" stroke="#ABCCF2" stroke-opacity="0.6"/>
<line x1="728" y1="1218.55" x2="1460" y2="1218.55" stroke="#ABCCF2" stroke-opacity="0.6"/>
<line x1="728" y1="1203.31" x2="1460" y2="1203.31" stroke="#ABCCF2" stroke-opacity="0.6"/>
<line x1="728" y1="1188.07" x2="1460" y2="1188.07" stroke="#ABCCF2" stroke-opacity="0.6"/>
<line x1="728" y1="1172.83" x2="1460" y2="1172.83" stroke="#ABCCF2" stroke-opacity="0.6"/>
<line x1="728" y1="1157.6" x2="1460" y2="1157.6" stroke="#ABCCF2" stroke-opacity="0.6"/>
<line x1="728" y1="1142.36" x2="1460" y2="1142.36" stroke="#ABCCF2" stroke-opacity="0.6"/>
<line x1="728" y1="1127.12" x2="1460" y2="1127.12" stroke="#ABCCF2" stroke-opacity="0.6"/>
<line x1="728" y1="1111.88" x2="1460" y2="1111.88" stroke="#ABCCF2" stroke-opacity="0.6"/>
<line x1="728" y1="1096.64" x2="1460" y2="1096.64" stroke="#ABCCF2" stroke-opacity="0.6"/>
<line x1="728" y1="1081.4" x2="1460" y2="1081.4" stroke="#ABCCF2" stroke-opacity="0.6"/>
<line x1="728" y1="1066.17" x2="1460" y2="1066.17" stroke="#ABCCF2" stroke-opacity="0.6"/>
<line x1="728" y1="1050.93" x2="1460" y2="1050.93" stroke="#ABCCF2" stroke-opacity="0.6"/>
<line x1="728" y1="1035.69" x2="1460" y2="1035.69" stroke="#ABCCF2" stroke-opacity="0.6"/>
<line x1="728" y1="1020.45" x2="1460" y2="1020.45" stroke="#ABCCF2" stroke-opacity="0.6"/>
<line x1="728" y1="1005.21" x2="1460" y2="1005.21" stroke="#ABCCF2" stroke-opacity="0.6"/>
<line x1="728" y1="989.976" x2="1460" y2="989.976" stroke="#ABCCF2" stroke-opacity="0.6"/>
<line x1="728" y1="974.738" x2="1460" y2="974.738" stroke="#ABCCF2" stroke-opacity="0.6"/>
<line x1="728" y1="959.5" x2="1460" y2="959.5" stroke="#ABCCF2" stroke-opacity="0.6"/>
<line x1="728" y1="944.262" x2="1460" y2="944.262" stroke="#ABCCF2" stroke-opacity="0.6"/>
<line x1="728" y1="929.024" x2="1460" y2="929.024" stroke="#ABCCF2" stroke-opacity="0.6"/>
<line x1="728" y1="913.786" x2="1460" y2="913.786" stroke="#ABCCF2" stroke-opacity="0.6"/>
<line x1="728" y1="898.548" x2="1460" y2="898.548" stroke="#ABCCF2" stroke-opacity="0.6"/>
<line x1="728" y1="883.31" x2="1460" y2="883.31" stroke="#ABCCF2" stroke-opacity="0.6"/>
<line x1="728" y1="868.071" x2="1460" y2="868.071" stroke="#ABCCF2" stroke-opacity="0.6"/>
<line x1="728" y1="852.833" x2="1460" y2="852.833" stroke="#ABCCF2" stroke-opacity="0.6"/>
<line x1="728" y1="837.595" x2="1460" y2="837.595" stroke="#ABCCF2" stroke-opacity="0.6"/>
<line x1="728" y1="822.357" x2="1460" y2="822.357" stroke="#ABCCF2" stroke-opacity="0.6"/>
<line x1="728" y1="807.119" x2="1460" y2="807.119" stroke="#ABCCF2" stroke-opacity="0.6"/>
<line x1="728" y1="791.881" x2="1460" y2="791.881" stroke="#ABCCF2" stroke-opacity="0.6"/>
<line x1="728" y1="776.643" x2="1460" y2="776.643" stroke="#ABCCF2" stroke-opacity="0.6"/>
<line x1="728" y1="761.405" x2="1460" y2="761.405" stroke="#ABCCF2" stroke-opacity="0.6"/>
<line x1="728" y1="746.167" x2="1460" y2="746.167" stroke="#ABCCF2" stroke-opacity="0.6"/>
<line x1="728" y1="730.929" x2="1460" y2="730.929" stroke="#ABCCF2" stroke-opacity="0.6"/>
<line x1="728" y1="715.69" x2="1460" y2="715.69" stroke="#ABCCF2" stroke-opacity="0.6"/>
<line x1="728" y1="700.452" x2="1460" y2="700.452" stroke="#ABCCF2" stroke-opacity="0.6"/>
<line x1="728" y1="685.214" x2="1460" y2="685.214" stroke="#ABCCF2" stroke-opacity="0.6"/>
<line x1="728" y1="669.976" x2="1460" y2="669.976" stroke="#ABCCF2" stroke-opacity="0.6"/>
<line x1="728" y1="654.738" x2="1460" y2="654.738" stroke="#ABCCF2" stroke-opacity="0.6"/>
<line x1="728" y1="639.5" x2="1460" y2="639.5" stroke="#ABCCF2" stroke-opacity="0.6"/>
<line x1="728" y1="624.262" x2="1460" y2="624.262" stroke="#ABCCF2" stroke-opacity="0.6"/>
<line x1="728" y1="609.024" x2="1460" y2="609.024" stroke="#ABCCF2" stroke-opacity="0.6"/>
<line x1="728" y1="593.786" x2="1460" y2="593.786" stroke="#ABCCF2" stroke-opacity="0.6"/>
<line x1="728" y1="578.548" x2="1460" y2="578.548" stroke="#ABCCF2" stroke-opacity="0.6"/>
<line x1="728" y1="563.31" x2="1460" y2="563.31" stroke="#ABCCF2" stroke-opacity="0.6"/>
<line x1="728" y1="548.071" x2="1460" y2="548.071" stroke="#ABCCF2" stroke-opacity="0.6"/>
<line x1="728" y1="532.833" x2="1460" y2="532.833" stroke="#ABCCF2" stroke-opacity="0.6"/>
<line x1="728" y1="517.595" x2="1460" y2="517.595" stroke="#ABCCF2" stroke-opacity="0.6"/>
<line x1="728" y1="502.357" x2="1460" y2="502.357" stroke="#ABCCF2" stroke-opacity="0.6"/>
<line x1="728" y1="487.119" x2="1460" y2="487.119" stroke="#ABCCF2" stroke-opacity="0.6"/>
<line x1="728" y1="471.881" x2="1460" y2="471.881" stroke="#ABCCF2" stroke-opacity="0.6"/>
<line x1="728" y1="456.643" x2="1460" y2="456.643" stroke="#ABCCF2" stroke-opacity="0.6"/>
<line x1="728" y1="441.405" x2="1460" y2="441.405" stroke="#ABCCF2" stroke-opacity="0.6"/>
<line x1="728" y1="426.167" x2="1460" y2="426.167" stroke="#ABCCF2" stroke-opacity="0.6"/>
<line x1="728" y1="410.929" x2="1460" y2="410.929" stroke="#ABCCF2" stroke-opacity="0.6"/>
<line x1="728" y1="395.69" x2="1460" y2="395.69" stroke="#ABCCF2" stroke-opacity="0.6"/>
<line x1="728" y1="380.452" x2="1460" y2="380.452" stroke="#ABCCF2" stroke-opacity="0.6"/>
<line x1="728" y1="365.214" x2="1460" y2="365.214" stroke="#ABCCF2" stroke-opacity="0.6"/>
<line x1="728" y1="349.976" x2="1460" y2="349.976" stroke="#ABCCF2" stroke-opacity="0.6"/>
<line x1="728" y1="334.738" x2="1460" y2="334.738" stroke="#ABCCF2" stroke-opacity="0.6"/>
<line x1="728" y1="319.5" x2="1460" y2="319.5" stroke="#ABCCF2" stroke-opacity="0.6"/>
<line x1="728" y1="304.262" x2="1460" y2="304.262" stroke="#ABCCF2" stroke-opacity="0.6"/>
<line x1="728" y1="289.024" x2="1460" y2="289.024" stroke="#ABCCF2" stroke-opacity="0.6"/>
<line x1="728" y1="273.786" x2="1460" y2="273.786" stroke="#ABCCF2" stroke-opacity="0.6"/>
<line x1="728" y1="258.548" x2="1460" y2="258.548" stroke="#ABCCF2" stroke-opacity="0.6"/>
<line x1="728" y1="243.31" x2="1460" y2="243.31" stroke="#ABCCF2" stroke-opacity="0.6"/>
<line x1="728" y1="228.071" x2="1460" y2="228.071" stroke="#ABCCF2" stroke-opacity="0.6"/>
<line x1="728" y1="212.833" x2="1460" y2="212.833" stroke="#ABCCF2" stroke-opacity="0.6"/>
<line x1="728" y1="197.595" x2="1460" y2="197.595" stroke="#ABCCF2" stroke-opacity="0.6"/>
<line x1="728" y1="182.357" x2="1460" y2="182.357" stroke="#ABCCF2" stroke-opacity="0.6"/>
<line x1="728" y1="167.119" x2="1460" y2="167.119" stroke="#ABCCF2" stroke-opacity="0.6"/>
<line x1="728" y1="151.881" x2="1460" y2="151.881" stroke="#ABCCF2" stroke-opacity="0.6"/>
<line x1="728" y1="136.643" x2="1460" y2="136.643" stroke="#ABCCF2" stroke-opacity="0.6"/>
<line x1="728" y1="121.405" x2="1460" y2="121.405" stroke="#ABCCF2" stroke-opacity="0.6"/>
<line x1="728" y1="106.167" x2="1460" y2="106.167" stroke="#ABCCF2" stroke-opacity="0.6"/>
<line x1="728" y1="90.9287" x2="1460" y2="90.9287" stroke="#ABCCF2" stroke-opacity="0.6"/>
<line x1="728" y1="75.6904" x2="1460" y2="75.6904" stroke="#ABCCF2" stroke-opacity="0.6"/>
<line x1="728" y1="60.4521" x2="1460" y2="60.4521" stroke="#ABCCF2" stroke-opacity="0.6"/>
<line x1="728" y1="45.2144" x2="1460" y2="45.2144" stroke="#ABCCF2" stroke-opacity="0.6"/>
<line x1="728" y1="29.9761" x2="1460" y2="29.9761" stroke="#ABCCF2" stroke-opacity="0.6"/>
<line x1="728" y1="14.7383" x2="1460" y2="14.7383" stroke="#ABCCF2" stroke-opacity="0.6"/>
<line x1="1163.5" y1="1280" x2="1163.5" stroke="#ABCCF2" stroke-opacity="0.6"/>
<line x1="1149.5" y1="1280" x2="1149.5" stroke="#ABCCF2" stroke-opacity="0.6"/>
<line x1="1135.5" y1="1280" x2="1135.5" stroke="#ABCCF2" stroke-opacity="0.6"/>
<line x1="1121.5" y1="1280" x2="1121.5" stroke="#ABCCF2" stroke-opacity="0.6"/>
<line x1="1107.5" y1="1280" x2="1107.5" stroke="#ABCCF2" stroke-opacity="0.6"/>
<line x1="1093.5" y1="1280" x2="1093.5" stroke="#ABCCF2" stroke-opacity="0.6"/>
<line x1="1079.5" y1="1280" x2="1079.5" stroke="#ABCCF2" stroke-opacity="0.6"/>
<line x1="1065.5" y1="1280" x2="1065.5" stroke="#ABCCF2" stroke-opacity="0.6"/>
<line x1="1051.5" y1="1280" x2="1051.5" stroke="#ABCCF2" stroke-opacity="0.6"/>
<line x1="1037.5" y1="1280" x2="1037.5" stroke="#ABCCF2" stroke-opacity="0.6"/>
<line x1="1023.5" y1="1280" x2="1023.5" stroke="#ABCCF2" stroke-opacity="0.6"/>
<line x1="1009.5" y1="1280" x2="1009.5" stroke="#ABCCF2" stroke-opacity="0.6"/>
<line x1="995.5" y1="1280" x2="995.5" stroke="#ABCCF2" stroke-opacity="0.6"/>
<line x1="981.5" y1="1280" x2="981.5" stroke="#ABCCF2" stroke-opacity="0.6"/>
<line x1="967.5" y1="1280" x2="967.5" stroke="#ABCCF2" stroke-opacity="0.6"/>
<line x1="953.5" y1="1280" x2="953.5" stroke="#ABCCF2" stroke-opacity="0.6"/>
<line x1="939.5" y1="1280" x2="939.5" stroke="#ABCCF2" stroke-opacity="0.6"/>
<line x1="925.5" y1="1280" x2="925.5" stroke="#ABCCF2" stroke-opacity="0.6"/>
<line x1="911.5" y1="1280" x2="911.5" stroke="#ABCCF2" stroke-opacity="0.6"/>
<line x1="897.5" y1="1280" x2="897.5" stroke="#ABCCF2" stroke-opacity="0.6"/>
<line x1="883.5" y1="1280" x2="883.5" stroke="#ABCCF2" stroke-opacity="0.6"/>
<line x1="869.5" y1="1280" x2="869.5" stroke="#ABCCF2" stroke-opacity="0.6"/>
<line x1="855.5" y1="1280" x2="855.5" stroke="#ABCCF2" stroke-opacity="0.6"/>
<line x1="841.5" y1="1280" x2="841.5" stroke="#ABCCF2" stroke-opacity="0.6"/>
<line x1="827.5" y1="1280" x2="827.5" stroke="#ABCCF2" stroke-opacity="0.6"/>
<line x1="813.5" y1="1280" x2="813.5" stroke="#ABCCF2" stroke-opacity="0.6"/>
<line x1="799.5" y1="1280" x2="799.5" stroke="#ABCCF2" stroke-opacity="0.6"/>
<line x1="785.5" y1="1280" x2="785.5" stroke="#ABCCF2" stroke-opacity="0.6"/>
<line x1="771.5" y1="1280" x2="771.5" stroke="#ABCCF2" stroke-opacity="0.6"/>
<line x1="757.5" y1="1280" x2="757.5" stroke="#ABCCF2" stroke-opacity="0.6"/>
<line x1="743.5" y1="1280" x2="743.5" stroke="#ABCCF2" stroke-opacity="0.6"/>
<line x1="729.5" y1="1280" x2="729.5" stroke="#ABCCF2" stroke-opacity="0.6"/>
<line y1="1645.21" x2="732.001" y2="1645.21" stroke="#ABCCF2" stroke-opacity="0.6"/>
<line y1="1629.98" x2="732.001" y2="1629.98" stroke="#ABCCF2" stroke-opacity="0.6"/>
<line y1="1614.74" x2="732.001" y2="1614.74" stroke="#ABCCF2" stroke-opacity="0.6"/>
<line y1="1599.5" x2="732.001" y2="1599.5" stroke="#ABCCF2" stroke-opacity="0.6"/>
<line y1="1584.26" x2="732.001" y2="1584.26" stroke="#ABCCF2" stroke-opacity="0.6"/>
<line y1="1569.02" x2="732.001" y2="1569.02" stroke="#ABCCF2" stroke-opacity="0.6"/>
<line y1="1553.79" x2="732.001" y2="1553.79" stroke="#ABCCF2" stroke-opacity="0.6"/>
<line y1="1538.55" x2="732.001" y2="1538.55" stroke="#ABCCF2" stroke-opacity="0.6"/>
<line y1="1523.31" x2="732.001" y2="1523.31" stroke="#ABCCF2" stroke-opacity="0.6"/>
<line y1="1508.07" x2="732.001" y2="1508.07" stroke="#ABCCF2" stroke-opacity="0.6"/>
<line y1="1492.83" x2="732.001" y2="1492.83" stroke="#ABCCF2" stroke-opacity="0.6"/>
<line y1="1477.6" x2="732.001" y2="1477.6" stroke="#ABCCF2" stroke-opacity="0.6"/>
<line y1="1462.36" x2="732.001" y2="1462.36" stroke="#ABCCF2" stroke-opacity="0.6"/>
<line y1="1447.12" x2="732.001" y2="1447.12" stroke="#ABCCF2" stroke-opacity="0.6"/>
<line y1="1431.88" x2="732.001" y2="1431.88" stroke="#ABCCF2" stroke-opacity="0.6"/>
<line y1="1416.64" x2="732.001" y2="1416.64" stroke="#ABCCF2" stroke-opacity="0.6"/>
<line y1="1401.4" x2="732.001" y2="1401.4" stroke="#ABCCF2" stroke-opacity="0.6"/>
<line y1="1386.17" x2="732.001" y2="1386.17" stroke="#ABCCF2" stroke-opacity="0.6"/>
<line y1="1370.93" x2="732.001" y2="1370.93" stroke="#ABCCF2" stroke-opacity="0.6"/>
<line y1="1355.69" x2="732.001" y2="1355.69" stroke="#ABCCF2" stroke-opacity="0.6"/>
<line y1="1340.45" x2="732.001" y2="1340.45" stroke="#ABCCF2" stroke-opacity="0.6"/>
<line y1="1325.21" x2="732.001" y2="1325.21" stroke="#ABCCF2" stroke-opacity="0.6"/>
<line y1="1309.98" x2="732.001" y2="1309.98" stroke="#ABCCF2" stroke-opacity="0.6"/>
<line y1="1294.74" x2="732.001" y2="1294.74" stroke="#ABCCF2" stroke-opacity="0.6"/>
<line y1="1279.5" x2="732.001" y2="1279.5" stroke="#ABCCF2" stroke-opacity="0.6"/>
<line x1="729.5" y1="2560" x2="729.5" y2="1280" stroke="#ABCCF2" stroke-opacity="0.6"/>
<line x1="715.5" y1="2560" x2="715.5" y2="1280" stroke="#ABCCF2" stroke-opacity="0.6"/>
<line x1="701.5" y1="2560" x2="701.5" y2="1280" stroke="#ABCCF2" stroke-opacity="0.6"/>
<line x1="687.5" y1="2560" x2="687.5" y2="1280" stroke="#ABCCF2" stroke-opacity="0.6"/>
<line x1="673.5" y1="2560" x2="673.5" y2="1280" stroke="#ABCCF2" stroke-opacity="0.6"/>
<line x1="659.5" y1="2560" x2="659.5" y2="1280" stroke="#ABCCF2" stroke-opacity="0.6"/>
<line x1="645.5" y1="2560" x2="645.5" y2="1280" stroke="#ABCCF2" stroke-opacity="0.6"/>
<line x1="631.5" y1="2560" x2="631.5" y2="1280" stroke="#ABCCF2" stroke-opacity="0.6"/>
<line x1="617.5" y1="2560" x2="617.5" y2="1280" stroke="#ABCCF2" stroke-opacity="0.6"/>
<line x1="603.5" y1="2560" x2="603.5" y2="1280" stroke="#ABCCF2" stroke-opacity="0.6"/>
<line x1="589.5" y1="2560" x2="589.5" y2="1280" stroke="#ABCCF2" stroke-opacity="0.6"/>
<line x1="575.5" y1="2560" x2="575.5" y2="1280" stroke="#ABCCF2" stroke-opacity="0.6"/>
<line x1="561.5" y1="2560" x2="561.5" y2="1280" stroke="#ABCCF2" stroke-opacity="0.6"/>
<line x1="547.5" y1="2560" x2="547.5" y2="1280" stroke="#ABCCF2" stroke-opacity="0.6"/>
<line x1="533.5" y1="2560" x2="533.5" y2="1280" stroke="#ABCCF2" stroke-opacity="0.6"/>
<line x1="519.5" y1="2560" x2="519.5" y2="1280" stroke="#ABCCF2" stroke-opacity="0.6"/>
<line x1="505.5" y1="2560" x2="505.5" y2="1280" stroke="#ABCCF2" stroke-opacity="0.6"/>
<line x1="491.5" y1="2560" x2="491.5" y2="1280" stroke="#ABCCF2" stroke-opacity="0.6"/>
<line x1="477.5" y1="2560" x2="477.5" y2="1280" stroke="#ABCCF2" stroke-opacity="0.6"/>
<line x1="463.5" y1="2560" x2="463.5" y2="1280" stroke="#ABCCF2" stroke-opacity="0.6"/>
<line x1="449.5" y1="2560" x2="449.5" y2="1280" stroke="#ABCCF2" stroke-opacity="0.6"/>
<line x1="435.5" y1="2560" x2="435.5" y2="1280" stroke="#ABCCF2" stroke-opacity="0.6"/>
<line x1="421.5" y1="2560" x2="421.5" y2="1280" stroke="#ABCCF2" stroke-opacity="0.6"/>
<line x1="407.5" y1="2560" x2="407.5" y2="1280" stroke="#ABCCF2" stroke-opacity="0.6"/>
<line x1="393.5" y1="2560" x2="393.5" y2="1280" stroke="#ABCCF2" stroke-opacity="0.6"/>
<line x1="379.5" y1="2560" x2="379.5" y2="1280" stroke="#ABCCF2" stroke-opacity="0.6"/>
<line x1="365.5" y1="2560" x2="365.5" y2="1280" stroke="#ABCCF2" stroke-opacity="0.6"/>
<line x1="351.5" y1="2560" x2="351.5" y2="1280" stroke="#ABCCF2" stroke-opacity="0.6"/>
<line x1="337.5" y1="2560" x2="337.5" y2="1280" stroke="#ABCCF2" stroke-opacity="0.6"/>
<line x1="323.5" y1="2560" x2="323.5" y2="1280" stroke="#ABCCF2" stroke-opacity="0.6"/>
<line x1="309.5" y1="2560" x2="309.5" y2="1280" stroke="#ABCCF2" stroke-opacity="0.6"/>
<line x1="295.5" y1="2560" x2="295.5" y2="1280" stroke="#ABCCF2" stroke-opacity="0.6"/>
<line x1="281.5" y1="2560" x2="281.5" y2="1280" stroke="#ABCCF2" stroke-opacity="0.6"/>
<line x1="267.5" y1="2560" x2="267.5" y2="1280" stroke="#ABCCF2" stroke-opacity="0.6"/>
<line x1="253.5" y1="2560" x2="253.5" y2="1280" stroke="#ABCCF2" stroke-opacity="0.6"/>
<line x1="239.5" y1="2560" x2="239.5" y2="1280" stroke="#ABCCF2" stroke-opacity="0.6"/>
<line x1="225.5" y1="2560" x2="225.5" y2="1280" stroke="#ABCCF2" stroke-opacity="0.6"/>
<line x1="211.5" y1="2560" x2="211.5" y2="1280" stroke="#ABCCF2" stroke-opacity="0.6"/>
<line x1="197.5" y1="2560" x2="197.5" y2="1280" stroke="#ABCCF2" stroke-opacity="0.6"/>
<line x1="183.5" y1="2560" x2="183.5" y2="1280" stroke="#ABCCF2" stroke-opacity="0.6"/>
<line x1="169.5" y1="2560" x2="169.5" y2="1280" stroke="#ABCCF2" stroke-opacity="0.6"/>
<line x1="155.5" y1="2560" x2="155.5" y2="1280" stroke="#ABCCF2" stroke-opacity="0.6"/>
<line x1="141.5" y1="2560" x2="141.5" y2="1280" stroke="#ABCCF2" stroke-opacity="0.6"/>
<line x1="127.5" y1="2560" x2="127.5" y2="1280" stroke="#ABCCF2" stroke-opacity="0.6"/>
<line x1="113.5" y1="2560" x2="113.5" y2="1280" stroke="#ABCCF2" stroke-opacity="0.6"/>
<line x1="99.5002" y1="2560" x2="99.5002" y2="1280" stroke="#ABCCF2" stroke-opacity="0.6"/>
<line x1="85.5002" y1="2560" x2="85.5002" y2="1280" stroke="#ABCCF2" stroke-opacity="0.6"/>
<line x1="71.5002" y1="2560" x2="71.5002" y2="1280" stroke="#ABCCF2" stroke-opacity="0.6"/>
<line x1="57.5002" y1="2560" x2="57.5002" y2="1280" stroke="#ABCCF2" stroke-opacity="0.6"/>
<line x1="43.5002" y1="2560" x2="43.5002" y2="1280" stroke="#ABCCF2" stroke-opacity="0.6"/>
<line x1="29.5002" y1="2560" x2="29.5002" y2="1280" stroke="#ABCCF2" stroke-opacity="0.6"/>
<line x1="15.5002" y1="2560" x2="15.5002" y2="1280" stroke="#ABCCF2" stroke-opacity="0.6"/>
<line x1="1.50024" y1="2560" x2="1.50024" y2="1280" stroke="#ABCCF2" stroke-opacity="0.6"/>
<line x1="728" y1="1645.21" x2="1460" y2="1645.21" stroke="#ABCCF2" stroke-opacity="0.6"/>
<line x1="728" y1="1629.98" x2="1460" y2="1629.98" stroke="#ABCCF2" stroke-opacity="0.6"/>
<line x1="728" y1="1614.74" x2="1460" y2="1614.74" stroke="#ABCCF2" stroke-opacity="0.6"/>
<line x1="728" y1="1599.5" x2="1460" y2="1599.5" stroke="#ABCCF2" stroke-opacity="0.6"/>
<line x1="728" y1="1584.26" x2="1460" y2="1584.26" stroke="#ABCCF2" stroke-opacity="0.6"/>
<line x1="728" y1="1569.02" x2="1460" y2="1569.02" stroke="#ABCCF2" stroke-opacity="0.6"/>
<line x1="728" y1="1553.79" x2="1460" y2="1553.79" stroke="#ABCCF2" stroke-opacity="0.6"/>
<line x1="728" y1="1538.55" x2="1460" y2="1538.55" stroke="#ABCCF2" stroke-opacity="0.6"/>
<line x1="728" y1="1523.31" x2="1460" y2="1523.31" stroke="#ABCCF2" stroke-opacity="0.6"/>
<line x1="728" y1="1508.07" x2="1460" y2="1508.07" stroke="#ABCCF2" stroke-opacity="0.6"/>
<line x1="728" y1="1492.83" x2="1460" y2="1492.83" stroke="#ABCCF2" stroke-opacity="0.6"/>
<line x1="728" y1="1477.6" x2="1460" y2="1477.6" stroke="#ABCCF2" stroke-opacity="0.6"/>
<line x1="728" y1="1462.36" x2="1460" y2="1462.36" stroke="#ABCCF2" stroke-opacity="0.6"/>
<line x1="728" y1="1447.12" x2="1460" y2="1447.12" stroke="#ABCCF2" stroke-opacity="0.6"/>
<line x1="728" y1="1431.88" x2="1460" y2="1431.88" stroke="#ABCCF2" stroke-opacity="0.6"/>
<line x1="728" y1="1416.64" x2="1460" y2="1416.64" stroke="#ABCCF2" stroke-opacity="0.6"/>
<line x1="728" y1="1401.4" x2="1460" y2="1401.4" stroke="#ABCCF2" stroke-opacity="0.6"/>
<line x1="728" y1="1386.17" x2="1460" y2="1386.17" stroke="#ABCCF2" stroke-opacity="0.6"/>
<line x1="728" y1="1370.93" x2="1460" y2="1370.93" stroke="#ABCCF2" stroke-opacity="0.6"/>
<line x1="728" y1="1355.69" x2="1460" y2="1355.69" stroke="#ABCCF2" stroke-opacity="0.6"/>
<line x1="728" y1="1340.45" x2="1460" y2="1340.45" stroke="#ABCCF2" stroke-opacity="0.6"/>
<line x1="728" y1="1325.21" x2="1460" y2="1325.21" stroke="#ABCCF2" stroke-opacity="0.6"/>
<line x1="728" y1="1309.98" x2="1460" y2="1309.98" stroke="#ABCCF2" stroke-opacity="0.6"/>
<line x1="728" y1="1294.74" x2="1460" y2="1294.74" stroke="#ABCCF2" stroke-opacity="0.6"/>
<line x1="728" y1="1279.5" x2="1460" y2="1279.5" stroke="#ABCCF2" stroke-opacity="0.6"/>
<line x1="1163.5" y1="2560" x2="1163.5" y2="1280" stroke="#ABCCF2" stroke-opacity="0.6"/>
<line x1="1149.5" y1="2560" x2="1149.5" y2="1280" stroke="#ABCCF2" stroke-opacity="0.6"/>
<line x1="1135.5" y1="2560" x2="1135.5" y2="1280" stroke="#ABCCF2" stroke-opacity="0.6"/>
<line x1="1121.5" y1="2560" x2="1121.5" y2="1280" stroke="#ABCCF2" stroke-opacity="0.6"/>
<line x1="1107.5" y1="2560" x2="1107.5" y2="1280" stroke="#ABCCF2" stroke-opacity="0.6"/>
<line x1="1093.5" y1="2560" x2="1093.5" y2="1280" stroke="#ABCCF2" stroke-opacity="0.6"/>
<line x1="1079.5" y1="2560" x2="1079.5" y2="1280" stroke="#ABCCF2" stroke-opacity="0.6"/>
<line x1="1065.5" y1="2560" x2="1065.5" y2="1280" stroke="#ABCCF2" stroke-opacity="0.6"/>
<line x1="1051.5" y1="2560" x2="1051.5" y2="1280" stroke="#ABCCF2" stroke-opacity="0.6"/>
<line x1="1037.5" y1="2560" x2="1037.5" y2="1280" stroke="#ABCCF2" stroke-opacity="0.6"/>
<line x1="1023.5" y1="2560" x2="1023.5" y2="1280" stroke="#ABCCF2" stroke-opacity="0.6"/>
<line x1="1009.5" y1="2560" x2="1009.5" y2="1280" stroke="#ABCCF2" stroke-opacity="0.6"/>
<line x1="995.5" y1="2560" x2="995.5" y2="1280" stroke="#ABCCF2" stroke-opacity="0.6"/>
<line x1="981.5" y1="2560" x2="981.5" y2="1280" stroke="#ABCCF2" stroke-opacity="0.6"/>
<line x1="967.5" y1="2560" x2="967.5" y2="1280" stroke="#ABCCF2" stroke-opacity="0.6"/>
<line x1="953.5" y1="2560" x2="953.5" y2="1280" stroke="#ABCCF2" stroke-opacity="0.6"/>
<line x1="939.5" y1="2560" x2="939.5" y2="1280" stroke="#ABCCF2" stroke-opacity="0.6"/>
<line x1="925.5" y1="2560" x2="925.5" y2="1280" stroke="#ABCCF2" stroke-opacity="0.6"/>
<line x1="911.5" y1="2560" x2="911.5" y2="1280" stroke="#ABCCF2" stroke-opacity="0.6"/>
<line x1="897.5" y1="2560" x2="897.5" y2="1280" stroke="#ABCCF2" stroke-opacity="0.6"/>
<line x1="883.5" y1="2560" x2="883.5" y2="1280" stroke="#ABCCF2" stroke-opacity="0.6"/>
<line x1="869.5" y1="2560" x2="869.5" y2="1280" stroke="#ABCCF2" stroke-opacity="0.6"/>
<line x1="855.5" y1="2560" x2="855.5" y2="1280" stroke="#ABCCF2" stroke-opacity="0.6"/>
<line x1="841.5" y1="2560" x2="841.5" y2="1280" stroke="#ABCCF2" stroke-opacity="0.6"/>
<line x1="827.5" y1="2560" x2="827.5" y2="1280" stroke="#ABCCF2" stroke-opacity="0.6"/>
<line x1="813.5" y1="2560" x2="813.5" y2="1280" stroke="#ABCCF2" stroke-opacity="0.6"/>
<line x1="799.5" y1="2560" x2="799.5" y2="1280" stroke="#ABCCF2" stroke-opacity="0.6"/>
<line x1="785.5" y1="2560" x2="785.5" y2="1280" stroke="#ABCCF2" stroke-opacity="0.6"/>
<line x1="771.5" y1="2560" x2="771.5" y2="1280" stroke="#ABCCF2" stroke-opacity="0.6"/>
<line x1="757.5" y1="2560" x2="757.5" y2="1280" stroke="#ABCCF2" stroke-opacity="0.6"/>
<line x1="743.5" y1="2560" x2="743.5" y2="1280" stroke="#ABCCF2" stroke-opacity="0.6"/>
<line x1="729.5" y1="2560" x2="729.5" y2="1280" stroke="#ABCCF2" stroke-opacity="0.6"/>
</svg>
