<svg width="14" height="13" viewBox="0 0 14 13" fill="none" xmlns="http://www.w3.org/2000/svg">
<path d="M2.2251 5.40163C3.52153 -1.29659 12.5965 2.16057 13.0287 5.61771C13.1727 7.34628 12.3805 10.9331 8.05903 11.4516C3.7376 11.9702 2.36915 7.63437 2.2251 5.40163Z" fill="#FFCF27" stroke="black" stroke-width="0.35" stroke-linecap="round"/>
<path d="M13.2129 5.87915C13.2129 9.0339 10.724 11.5833 7.66345 11.5833C4.60292 11.5833 2.11396 9.0339 2.11396 5.87915C2.11396 2.72441 4.60292 0.175 7.66345 0.175C10.724 0.175 13.2129 2.72441 13.2129 5.87915Z" stroke="black" stroke-width="0.35"/>
<path d="M13.7178 6.55744C13.7178 9.65611 11.0426 12.1862 7.71937 12.1862C4.39617 12.1862 1.7209 9.65611 1.7209 6.55744C1.7209 3.45878 4.39617 0.928662 7.71937 0.928662C11.0426 0.928662 13.7178 3.45878 13.7178 6.55744Z" stroke="black" stroke-width="0.35"/>
<path d="M13.3253 7.16047C13.3253 10.2591 10.65 12.7892 7.32679 12.7892C4.00359 12.7892 1.32832 10.2591 1.32832 7.16047C1.32832 4.0618 4.00359 1.53169 7.32679 1.53169C10.65 1.53169 13.3253 4.0618 13.3253 7.16047Z" stroke="black" stroke-width="0.35"/>
<path d="M13.1006 5.95466C13.1006 9.05332 10.4254 11.5834 7.10218 11.5834C3.77898 11.5834 1.10371 9.05332 1.10371 5.95466C1.10371 2.85599 3.77898 0.325879 7.10218 0.325879C10.4254 0.325879 13.1006 2.85599 13.1006 5.95466Z" stroke="black" stroke-width="0.35"/>
</svg>
