<svg width="71" height="130" viewBox="0 0 71 130" fill="none" xmlns="http://www.w3.org/2000/svg">
<path fill-rule="evenodd" clip-rule="evenodd" d="M43.8309 1.23092L42.5728 2.18171L42.0145 10.3359L41.4563 18.49L39.9506 18.4524C39.0927 18.4309 37.9588 18.8104 37.3148 19.3346C36.0545 20.3607 34.9756 23.0886 35.2062 24.6653C35.2919 25.2487 34.8566 26.5978 34.2031 27.7762C32.789 30.3254 32.6385 31.3553 33.8706 30.0479C34.5609 29.3156 34.8627 29.2242 35.0852 29.6796C35.2802 30.0786 35.217 30.1603 34.9019 29.9191C34.6209 29.7046 34.3944 29.8263 34.3557 30.2126C34.3194 30.5755 33.8915 30.9564 33.4052 31.0583C32.1934 31.3134 30.3547 34.9347 31.1341 35.5307C31.438 35.7632 31.9843 35.8715 32.3486 35.7721C32.9084 35.6198 32.9077 35.7257 32.3434 36.4545C31.976 36.929 31.5436 37.2165 31.3819 37.093C31.2201 36.9696 31.1526 37.2775 31.2315 37.7775C31.3117 38.2856 31.1566 38.6643 30.8801 38.6366C30.6077 38.6094 30.4142 38.1373 30.449 37.5879C30.5428 36.1187 28.5221 39.5873 28.3456 41.1988C28.2712 41.8792 27.8442 42.9981 27.3965 43.6849C26.9492 44.3714 26.2632 46.0525 25.8717 47.4208C25.429 48.969 24.6389 50.4471 23.78 51.3346C23.0209 52.119 22.119 53.181 21.7758 53.6941C21.4327 54.2073 20.6088 55.0711 19.9451 55.6134C18.4694 56.8191 18.1379 58.7994 19.3374 59.2444C19.7956 59.4145 20.2498 59.8434 20.3464 60.1977C20.4434 60.5515 20.7221 60.8614 20.9658 60.8858C21.2094 60.9102 21.324 60.62 21.2205 60.2409C21.1166 59.8618 21.236 59.572 21.4854 59.597C21.7348 59.6219 21.9979 59.8995 22.0698 60.2141C22.1719 60.6601 22.3765 60.6686 22.9981 60.2525C23.9899 59.5888 24.0856 58.9633 23.2088 58.8755C22.8433 58.839 22.5651 58.6011 22.5905 58.3471C22.6623 57.6288 24.1011 58.2001 24.6899 59.1811C25.1194 59.8967 25.3085 59.9572 25.6983 59.5055C26.0247 59.1274 26.2279 59.1138 26.3335 59.4627C26.5208 60.0817 29.0149 60.106 29.9184 59.4974C30.2734 59.2589 30.4724 58.8761 30.3606 58.6473C30.2488 58.4184 30.5132 58.3117 30.9486 58.4102C31.3835 58.5088 32.8416 58.5295 34.1887 58.4565C36.423 58.3355 36.6994 58.4177 37.3394 59.3913C38.1511 60.6261 38.0773 62.6116 37.1931 63.3437C36.7018 63.7505 37.1237 63.8767 39.3657 63.9925C42.2803 64.1429 42.5113 64.044 41.7032 62.9924C41.2954 62.4617 41.4773 62.4142 42.737 62.7231C44.4251 63.1369 45.5174 63.012 45.2366 62.4369C45.1364 62.2315 44.168 62.0747 43.0847 62.0883C41.0461 62.1132 39.1974 61.3136 40.1839 60.8331C40.4756 60.6911 40.6923 60.7972 40.665 61.0694C40.6372 61.3477 40.8681 61.441 41.1932 61.2827C41.8715 60.9523 47.388 61.2979 47.9504 61.7059C48.4081 62.0378 49.6915 62.2614 55.0773 62.9474C58.6969 63.4084 59.0812 63.5394 58.8257 64.2276C58.5936 64.852 57.8526 64.9821 54.8223 64.9314C52.3313 64.8899 50.8088 64.6719 50.2117 64.2716C49.721 63.9427 48.4729 63.6622 47.4379 63.6485L45.5556 63.6233L46.975 64.1331C48.2195 64.5799 49.5618 66.0703 49.4776 66.9115C49.4618 67.07 48.7976 67.2636 48.0018 67.3413C47.2059 67.4194 46.074 67.851 45.4866 68.3013C44.6118 68.9717 44.2599 69.0134 43.5403 68.5307C42.7825 68.0226 42.6498 68.0657 42.5721 68.8427C42.4924 69.6384 42.7782 69.7787 45.0246 70.0473C52.5746 70.9503 51.928 70.7131 52.3864 72.7457C53.0598 75.729 54.5752 85.3769 55.7032 93.8607C56.2831 98.2206 57.3053 104.457 57.9753 107.72C58.6449 110.983 59.3773 114.576 59.6026 115.704C59.8279 116.833 60.0635 119.371 60.127 121.344C60.3689 128.899 61 130.561 63.1484 129.299C64.0627 128.762 64.0745 128.666 63.7175 124.762C63.0789 117.781 62.9477 118.167 66.088 117.802C67.5821 117.628 69.087 117.181 69.4316 116.809C70.1329 116.053 71.1011 108.117 70.5437 107.691C70.36 107.551 68.6543 107.429 66.7533 107.42C63.3012 107.404 63.2969 107.402 63.1634 106.25C63.0894 105.616 62.7381 103.761 62.3825 102.127C62.0269 100.494 61.7103 98.9537 61.6793 98.7048C60.9603 92.957 58.9251 80.2893 57.8477 74.8552C57.0744 70.9559 57.4221 67.602 58.7224 66.427C59.182 66.0113 59.6084 65.1708 59.6697 64.5588C59.7309 63.9468 60.078 63.2463 60.4408 63.0019C61.1604 62.5179 61.5941 60.0352 60.9699 59.9727C60.7581 59.9515 60.5648 60.372 60.5408 60.9068C60.5 61.8149 60.2803 61.8645 57.2183 61.6564C55.4152 61.5336 53.5335 61.2201 53.037 60.9595C52.1671 60.5032 52.1665 60.4862 53.0281 60.4978C53.5197 60.5041 54.4162 60.6005 55.0204 60.7115L56.1189 60.9139L55.058 59.7592C54.4212 59.0662 53.9399 57.8841 53.8539 56.8024C53.7755 55.8112 53.6747 54.5734 53.6307 54.0514C53.462 52.0532 51.7127 44.0673 51.3458 43.6194C51.1341 43.3609 50.9882 42.8738 51.0218 42.5375C51.0555 42.2008 50.6212 40.5045 50.0566 38.7679C49.492 37.0313 49.0709 35.3462 49.1202 35.0235C49.1699 34.7013 49.4112 35.214 49.6559 36.1632C50.2131 38.3219 51.2497 40.2603 51.3439 39.3191C51.3804 38.954 51.1794 38.2353 50.8978 37.7226C50.2254 36.4995 50.0596 34.3465 50.6166 34.0751C50.8584 33.9572 50.9741 33.5611 50.8739 33.1944C50.7732 32.8277 50.8634 32.6593 51.0734 32.8197C51.5323 33.1705 52.0543 32.5603 52.9682 30.6043C53.7016 29.0356 53.362 27.3757 52.0322 26.0287C51.6304 25.6215 51.4681 24.6631 51.5918 23.4267C51.7408 21.9385 51.5532 21.1832 50.8087 20.2747C50.2704 19.6174 49.5338 19.0498 49.1713 19.0136C47.8798 18.8843 47.8353 19.8792 49.0714 21.2557C50.5839 22.941 50.5859 23.3864 49.0828 24.1687C48.4489 24.4982 47.8085 25.0924 47.6601 25.4892C47.4716 25.9915 47.4044 25.907 47.438 25.2091C47.5078 23.7599 47.596 23.5359 48.0289 23.7039C48.2421 23.7869 48.4365 23.6553 48.4609 23.4119C48.4853 23.1686 47.9403 22.9129 47.25 22.8438C45.6355 22.6823 45.2849 22.2284 46.1569 21.4298C47.2787 20.4023 47.4805 19.0423 46.5013 19.1106C45.7146 19.1651 45.7241 18.7213 46.687 10.5473C47.6523 2.35036 47.6622 1.8892 46.8834 1.16632C45.7574 0.121304 45.2862 0.130905 43.8309 1.23092ZM47.3584 21.0141C47.334 21.2575 47.5012 21.5996 47.7298 21.7745C47.9584 21.9493 48.1654 21.8931 48.1898 21.6498C48.2141 21.4064 48.047 21.0643 47.8184 20.8894C47.5897 20.7146 47.3828 20.7707 47.3584 21.0141ZM39.2781 20.8312C38.859 21.0888 38.016 22.0538 37.4051 22.976L36.294 24.6526L36.4351 23.0452C36.5388 21.8658 36.8602 21.2794 37.6427 20.8428C38.9678 20.1038 40.4792 20.0928 39.2781 20.8312ZM43.9302 21.5645C44.0325 22.0485 44.6745 22.5955 45.4014 22.8179C46.5706 23.1758 46.6746 23.3758 46.5155 24.9648C46.4191 25.9286 46.0979 27.2016 45.802 27.7937C45.445 28.5079 45.4079 28.9811 45.6918 29.1981C45.9276 29.3782 45.9854 29.7934 45.8206 30.1206C45.6475 30.4639 45.7959 30.7434 46.1711 30.7809C46.5291 30.8168 46.7997 31.0682 46.7725 31.3404C46.7453 31.6125 46.3447 31.694 45.88 31.5214C45.0848 31.2264 45.0703 31.2728 45.6263 32.339C45.9511 32.9615 46.07 33.9607 45.8905 34.5644C45.7116 35.1669 45.927 37.8532 46.3694 40.5335C47.0664 44.7563 47.5589 49.1222 47.8778 53.9133L47.9641 55.2064L45.5475 54.7608C43.6621 54.413 43.1171 54.4528 43.0682 54.9413C43.0337 55.286 42.7657 55.4514 42.472 55.3094C42.1788 55.1674 42.007 54.8405 42.091 54.5829C42.1745 54.3249 41.5102 53.9205 40.6148 53.6834C39.7189 53.4467 37.6919 52.5999 36.1107 51.802C32.6433 50.0521 32.6451 50.0697 35.4191 43.9076C37.8876 38.4234 39.3292 34.7007 39.5801 33.1602C39.8751 31.3474 40.7396 30.8381 42.0409 31.7107C42.9521 32.3217 43.2091 32.3425 43.7776 31.8532C44.1448 31.5373 44.6233 30.7936 44.8411 30.2009C45.2248 29.1563 45.2121 29.1586 44.4206 30.2705C43.133 32.0792 42.365 31.5751 40.8796 27.946C40.1784 26.2329 40.1219 25.5192 40.5517 23.8263C41.016 21.9996 41.1944 21.7909 42.2068 21.8922C43.1651 21.9881 43.2658 21.894 42.8562 21.2867C42.4603 20.7001 42.4978 20.5805 43.06 20.6367C43.4388 20.6746 43.8307 21.092 43.9302 21.5645ZM40.4419 22.196C40.3284 22.4488 40.046 22.6369 39.8148 22.6137C39.5835 22.5906 39.344 22.3503 39.2829 22.08C39.2218 21.8098 39.5037 21.6217 39.91 21.6623C40.3163 21.703 40.5553 21.9432 40.4419 22.196ZM44.2047 23.749C43.9014 24.3555 43.9469 24.4115 44.428 24.0216C44.7611 23.7515 44.9329 23.408 44.81 23.2584C44.6872 23.1085 44.4149 23.3293 44.2047 23.749ZM39.4898 23.6249C39.4833 23.6903 39.154 23.9622 38.7582 24.2288C38.1575 24.633 38.0538 24.5601 38.1311 23.7879C38.1952 23.1471 38.4201 22.9613 38.8628 23.1835C39.2143 23.3604 39.4964 23.5589 39.4898 23.6249ZM36.9748 26.7789C36.683 27.3383 36.4547 27.5622 36.4677 27.2766C36.4996 26.5821 37.1469 25.3234 37.3466 25.5678C37.4339 25.6744 37.2667 26.219 36.9748 26.7789ZM50.1249 27.2019C50.3053 27.5717 50.4926 27.5734 50.7731 27.2078C51.0526 26.8429 51.3554 27.0546 51.8157 27.9369C52.3012 28.8678 52.3261 29.3168 51.9136 29.7229C51.6108 30.0211 51.4806 30.4094 51.625 30.5857C51.7693 30.7619 51.5307 30.8703 51.0947 30.8267C50.4891 30.7661 50.4302 30.6212 50.8452 30.2126C51.2458 29.8183 51.236 29.4066 50.8079 28.6446C50 27.2064 49.3898 27.2856 49.5393 28.8095C49.6579 30.017 49.5752 30.0833 48.0676 29.9892C46.7544 29.9074 46.4857 29.7344 46.5574 29.0184C46.6164 28.4285 46.9446 28.1766 47.5724 28.2395C48.1271 28.295 48.6283 27.9862 48.82 27.4704C49.1744 26.5172 49.7341 26.4021 50.1249 27.2019ZM38.6749 29.2955C38.4488 29.9232 37.965 30.4067 37.5999 30.3701C37.1413 30.3242 37.0585 30.0742 37.3323 29.5612C37.5508 29.1526 37.8691 28.4676 38.04 28.0382C38.5342 26.7978 39.1414 28.0009 38.6749 29.2955ZM40.4281 30.1633C39.8192 30.9578 39.3527 30.5853 39.4712 29.4003C39.573 28.3838 39.6533 28.3364 40.1813 28.9815C40.5091 29.3812 40.6201 29.913 40.4281 30.1633ZM38.7525 34.0606C38.4867 35.2631 37.9191 36.8659 37.4913 37.6217C36.2625 39.7952 35.5619 41.4253 35.0567 43.285C34.7989 44.234 34.279 45.4893 33.9018 46.0746C33.5242 46.6598 32.9898 47.9709 32.714 48.9882C32.293 50.5426 32.0495 50.8213 31.1882 50.7351C30.2285 50.6391 30.1839 50.4719 30.4854 48.1033C30.7887 45.721 30.8717 45.58 31.9146 45.6764C32.7557 45.7543 33.0856 45.5164 33.2879 44.6879C33.4343 44.088 33.701 43.5113 33.8802 43.4064C34.3408 43.1373 36.1425 39.4913 35.9384 39.2421C35.5535 38.7727 34.7588 39.5991 34.6618 40.5691C34.6043 41.1435 34.4048 41.916 34.2183 42.2862C33.8174 43.0818 32.9845 43.1192 33.1939 42.332C33.2735 42.033 33.2205 41.4225 33.0763 40.9759C32.7743 40.0415 34.2049 38.0071 35.0313 38.1962C36.2653 38.4788 36.6034 38.2257 37.0517 36.6843C37.6298 34.6951 38.8214 31.8332 39.0611 31.8572C39.1573 31.8668 39.0187 32.8586 38.7525 34.0606ZM47.5917 35.0574C47.4385 35.3495 47.3629 35.0903 47.4238 34.4819C47.4847 33.8734 47.6101 33.6348 47.7024 33.9511C47.7951 34.2679 47.7453 34.7657 47.5917 35.0574ZM32.6647 33.4903C32.3418 33.9706 31.9985 34.2666 31.9012 34.1482C31.6225 33.8075 32.3849 32.5299 32.8403 32.5755C33.0667 32.5982 32.9875 33.0095 32.6647 33.4903ZM35.9474 37.2107C35.4952 37.8354 35.4064 37.8457 35.4529 37.2694C35.5133 36.5227 36.0466 35.8981 36.3288 36.2432C36.4222 36.3572 36.2506 36.7923 35.9474 37.2107ZM51.8245 41.6265C52.0764 43.2049 52.9532 45.2377 53.0333 44.4292C53.0694 44.064 52.7716 43.0286 52.3712 42.1282C51.8241 40.8975 51.6884 40.7731 51.8245 41.6265ZM30.2967 40.7013C30.0592 41.5995 29.6653 42.817 29.421 43.4071C29.0454 44.3161 28.9997 44.2092 29.1228 42.7068C29.2926 40.6294 29.8501 38.9805 30.3649 39.032C30.5647 39.052 30.5338 39.8034 30.2967 40.7013ZM49.7466 41.8655C49.9589 42.3784 50.0324 42.788 49.9106 42.7758C49.7887 42.7636 49.5158 42.3341 49.3036 41.8212C49.0913 41.3083 49.0177 40.8987 49.1396 40.9109C49.2614 40.9231 49.5344 41.3526 49.7466 41.8655ZM32.4241 44.3548C32.4711 44.869 32.2903 45.0659 31.9219 44.9007C31.6045 44.759 31.3123 44.2811 31.2711 43.8389C31.2241 43.3247 31.4049 43.1278 31.7732 43.2929C32.0906 43.4347 32.3828 43.9126 32.4241 44.3548ZM51.095 46.1347C50.9903 47.0512 50.9416 47.0642 50.4745 46.3033C50.196 45.849 49.7914 45.6074 49.576 45.7664C49.3605 45.9249 49.3521 45.8209 49.558 45.534C50.1857 44.6591 51.218 45.0623 51.095 46.1347ZM52.9172 45.9555C52.8821 46.3064 53.023 46.7228 53.2305 46.8812C53.4374 47.04 53.5428 46.7605 53.464 46.2605C53.2967 45.2001 53.0089 45.0395 52.9172 45.9555ZM27.6006 47.1357C27.4468 47.5507 27.3904 47.1929 27.4757 46.341C27.5609 45.4892 27.6871 45.1496 27.7556 45.5869C27.8246 46.0242 27.7549 46.7207 27.6006 47.1357ZM51.5697 48.9882C51.4932 49.7533 50.6924 49.5587 50.5046 48.7296C50.437 48.4306 50.6645 48.2146 51.0096 48.2492C51.3547 48.2837 51.6069 48.6165 51.5697 48.9882ZM26.829 51.2026C26.6491 52.6649 26.3181 53.9511 26.0932 54.0605C25.8684 54.1698 25.7138 53.9658 25.7498 53.6064C25.7857 53.2476 25.6104 52.8617 25.3603 52.75C25.0477 52.6096 25.1156 52.1494 25.577 51.2816C25.9464 50.5864 26.24 49.6647 26.2291 49.2332C26.2185 48.8017 26.4226 48.4704 26.6827 48.4964C26.9725 48.5254 27.029 49.5743 26.829 51.2026ZM50.23 51.7468C50.0537 52.2208 49.8331 52.6009 49.7396 52.5916C49.6465 52.5823 49.6098 52.1763 49.6585 51.6896C49.7072 51.2028 49.9278 50.8226 50.1484 50.8447C50.3695 50.8668 50.4059 51.2727 50.23 51.7468ZM51.6965 51.4466C51.8228 51.705 51.7147 51.8953 51.4568 51.8695C51.1989 51.8437 51.0075 51.6234 51.0319 51.3801C51.0563 51.1367 51.1639 50.9463 51.2716 50.9571C51.3792 50.9679 51.5702 51.1881 51.6965 51.4466ZM54.4969 52.8813C54.4666 53.3989 54.5611 53.5143 54.7377 53.1758C54.8977 52.8691 54.92 52.4856 54.7876 52.324C54.6552 52.1623 54.5245 52.413 54.4969 52.8813ZM52.3222 53.5204C52.1452 53.8715 51.6231 54.1209 51.1618 54.0748C50.7006 54.0286 50.302 54.2019 50.2762 54.4595C50.2505 54.717 50.0423 54.7851 49.8137 54.6103C49.1128 54.0744 49.4058 53.6469 50.7308 53.2714C52.5066 52.7684 52.6868 52.7967 52.3222 53.5204ZM52.5092 57.1653C52.3333 57.5142 52.375 57.7096 52.6013 57.5991C52.8276 57.489 53.077 57.8049 53.1553 58.3017C53.2579 58.9529 53.0778 59.1829 52.5107 59.1262C51.9485 59.0699 51.6952 58.578 51.623 57.4033C51.5677 56.4989 51.6612 55.5773 51.8316 55.3552C52.2778 54.7733 52.8901 56.4087 52.5092 57.1653ZM48.8634 57.4302C49.2819 59.4145 46.8715 60.2795 44.374 59.0413C43.0132 58.3666 42.7669 57.4874 44.0998 58.0614C44.6128 58.2826 45.2529 58.1916 45.6886 57.8356C46.6267 57.0691 46.6297 56.8607 45.7072 56.5181C45.2922 56.3639 45.7957 56.3316 46.8259 56.4468C48.1868 56.5986 48.7447 56.8681 48.8634 57.4302ZM39.1839 57.9838C39.1508 58.3144 39.4594 58.7538 39.8692 58.9606C40.5627 59.3102 40.552 59.3641 39.7154 59.7287C38.9841 60.0475 38.6828 59.919 38.1061 59.0412C37.7154 58.4474 37.4345 57.5781 37.4814 57.1099C37.5528 56.3957 37.7016 56.3489 38.4053 56.8207C38.8666 57.1301 39.2169 57.6533 39.1839 57.9838ZM22.0969 55.8783C21.9149 56.2396 21.6805 56.4307 21.5761 56.3031C21.4716 56.1755 21.5387 55.8716 21.7255 55.6284C22.233 54.9659 22.4745 55.1286 22.0969 55.8783ZM43.0131 59.9635C42.9888 60.2069 42.7575 60.3849 42.4997 60.3591C42.2418 60.3333 42.1736 60.1253 42.3486 59.897C42.5235 59.6687 42.7544 59.4907 42.862 59.5015C42.9697 59.5122 43.0375 59.7201 43.0131 59.9635ZM21.4283 62.7838C21.1865 63.0931 20.878 64.2403 20.7426 65.3334C20.6073 66.4265 20.2257 67.6957 19.8943 68.1537C19.5625 68.6117 18.2904 71.7811 17.0671 75.1963C15.8438 78.6114 14.619 81.854 14.3448 82.4022C14.0712 82.9505 13.0825 85.8903 12.1477 88.9353C11.2133 91.9802 10.3069 94.9078 10.1332 95.4406C9.94473 96.018 9.07289 96.699 7.97348 97.1276C6.95932 97.5226 5.62411 98.4027 5.00698 99.0829C4.38935 99.7634 3.63809 100.196 3.33729 100.045C2.41405 99.581 1.13771 102.135 0.827179 105.068C0.483748 108.308 1.15083 110.831 2.67529 112.062C4.31981 113.39 4.50139 114.692 3.47526 117.805C2.98629 119.288 2.40387 121.406 2.18107 122.51C1.7826 124.484 1.79775 124.52 3.07462 124.648C4.11535 124.752 4.34723 124.613 4.24215 123.946C4.16978 123.488 4.30299 123.02 4.53727 122.906C4.77154 122.792 4.93238 123.009 4.89443 123.388C4.56939 126.636 8.13434 117.284 9.72576 110.713C10.1034 109.153 11.2379 105.646 12.2459 102.92C14.5268 96.7536 15.5171 93.9493 17.3513 88.4584C18.1461 86.0797 19.4673 82.29 20.2875 80.0367C21.1072 77.7835 22.3656 74.2149 23.0836 72.1061C23.8257 69.9269 24.7848 67.9494 25.3057 67.5238C25.8096 67.1121 26.2386 66.6088 26.2589 66.4053C26.2945 66.0495 30.851 65.368 35.5718 65.0126C37.3587 64.8777 36.835 64.7761 33.0478 64.5223C29.5411 64.2876 28.2835 64.0607 28.3225 63.6713C28.3781 63.1159 26.8645 62.9479 24.0096 63.1928C22.9701 63.2818 22.3135 63.1357 22.1379 62.7757C21.9362 62.3627 21.7552 62.3647 21.4283 62.7838ZM32.6831 63.6951C32.9756 63.8487 33.474 63.8985 33.7907 63.806C34.1078 63.7139 33.8684 63.5885 33.2592 63.5275C32.65 63.4666 32.391 63.5421 32.6831 63.6951ZM42.4023 66.4203C42.372 66.9379 42.4665 67.0533 42.6432 66.7148C42.8032 66.4081 42.8254 66.0246 42.693 65.8629C42.5607 65.7013 42.43 65.9519 42.4023 66.4203ZM21.3313 67.2767C20.9819 67.5622 20.7728 67.5676 20.8005 67.2906C20.8596 66.6998 21.4361 66.2288 21.7021 66.554C21.8153 66.6922 21.6485 67.0175 21.3313 67.2767ZM8.76161 100.565C8.30249 101.746 7.71031 103.625 7.44556 104.742C6.84632 107.264 5.30689 108.893 4.27623 108.093C3.88842 107.792 3.33535 106.647 3.04745 105.549C2.75915 104.45 2.30489 103.453 2.03848 103.334C1.34421 103.023 1.5407 102.057 2.41777 101.467C3.07701 101.023 3.11449 101.109 2.72852 102.18C2.41634 103.046 2.44551 103.322 2.82847 103.135C3.12482 102.991 3.39927 102.637 3.43846 102.348C3.62058 100.993 8.67816 97.2986 9.30383 98.0625C9.46413 98.2582 9.22028 99.3847 8.76161 100.565ZM61.792 113.018L61.7163 113.905L61.4243 112.982C61.2634 112.474 61.1879 111.561 61.2558 110.953L61.3794 109.848L61.6236 110.99C61.7576 111.618 61.8336 112.531 61.792 113.018ZM5.499 118.224C5.30356 118.88 5.08376 119.153 5.01047 118.83C4.8785 118.249 5.34608 116.979 5.68014 117.013C5.77584 117.022 5.69444 117.567 5.499 118.224Z" fill="#747171"/>
</svg>
