<svg width="44" height="71" viewBox="0 0 44 71" fill="none" xmlns="http://www.w3.org/2000/svg">
<path fill-rule="evenodd" clip-rule="evenodd" d="M30.9884 0.727655C30.4698 0.986549 30.6455 1.2746 31.2478 1.15316C32.2355 0.954566 32.3141 1.05831 31.8521 1.95191C31.5625 2.51184 31.5331 2.81092 31.7624 2.86449C32.1444 2.95378 32.5872 1.77189 32.3827 1.20903C32.2413 0.82043 31.3907 0.526664 30.9884 0.727655ZM28.9824 2.3548C27.3968 3.87428 26.8015 5.07973 27.0033 6.36212C27.1356 7.20312 26.9919 7.77314 26.1814 9.62369C25.6412 10.8572 24.9813 12.1756 24.7152 12.5535C23.7131 13.9768 22.2526 16.5732 21.5987 18.0933C21.2261 18.9598 20.5753 20.1881 20.1525 20.8227C19.3657 22.0042 18.5364 24.1603 17.3083 28.2173C16.9264 29.4798 16.5219 30.4285 16.4101 30.3255C16.2983 30.2226 16.3226 29.7604 16.4645 29.2985C16.6544 28.6803 16.5851 28.3827 16.2014 28.1696C15.6523 27.8644 14.8139 24.4719 14.5322 21.4144C14.4472 20.4933 14.0709 19.2469 13.6955 18.6447C12.9443 17.4392 12.3901 13.4533 12.6028 10.7896C12.7549 8.88836 12.6476 6.9927 12.3424 6.18013C12.1164 5.5789 9.65758 3.45052 9.36072 3.59906C8.83962 3.85922 7.47556 9.59549 7.13041 12.9781C7.10118 13.2646 7.03247 13.7018 6.97797 13.9494C6.92375 14.197 7.15172 14.5704 7.48503 14.7792C7.81812 14.9878 8.18457 15.5989 8.2995 16.1368C8.62042 17.6418 8.43004 17.6762 7.86043 16.2161C7.57711 15.4897 7.29577 15.0545 7.23521 15.2487C7.17485 15.4432 7.2483 15.8204 7.39825 16.087C7.63107 16.5007 8.02615 18.4498 8.28235 20.449C8.36048 21.0586 7.49036 25.8565 6.37374 30.9747C5.97371 32.8081 5.648 34.7754 5.64985 35.3466C5.65334 36.3405 4.74538 41.0551 3.02834 48.9616C2.1186 53.1498 1.22267 57.6538 1.08702 58.7208C0.274994 65.1065 0.658409 66.7367 3.40103 68.5546C4.6759 69.3996 5.30346 69.6257 8.04692 70.2301C12.2542 71.1566 14.2042 71.0589 15.8268 69.8407C16.6164 69.2477 17.094 68.6402 17.3427 67.9128C17.5421 67.3286 17.787 66.9244 17.8862 67.0145C17.9854 67.1044 18.3579 66.3089 18.7138 65.2464C19.8192 61.9468 20.0561 61.3239 20.2849 61.1163C20.4066 61.0057 20.8697 59.8118 21.3136 58.4632C21.7577 57.1146 22.5491 55.3191 23.0725 54.4732C23.723 53.422 24.4369 51.6142 25.3278 48.7623C26.1019 46.2844 26.9564 44.0598 27.4314 43.2863C28.3679 41.7613 29.5162 38.5793 29.3269 38.0352C29.2402 37.786 29.2897 37.7443 29.4723 37.9126C29.6266 38.0545 29.8014 38.025 29.8669 37.8458C29.9311 37.6688 30.2811 36.9933 30.6448 36.3448C31.8655 34.1658 31.9701 33.7933 31.4353 33.5288C31.1638 33.3944 30.9996 33.1021 31.0706 32.8789C31.283 32.2097 31.8749 31.4292 32.0487 31.5893C32.1379 31.6715 32.3932 31.2796 32.6155 30.7183C32.838 30.1574 33.0966 29.5059 33.1905 29.2713C33.2845 29.0366 33.4501 28.8652 33.5584 28.8905C33.667 28.9159 33.9926 28.0845 34.2821 27.0429C34.6382 25.7626 34.9539 25.0914 35.257 24.9707C35.7844 24.7613 36.0029 24.2864 35.5139 24.4132C35.2958 24.4695 35.4384 23.8331 35.9217 22.5905C36.3306 21.5402 36.6682 20.2617 36.6726 19.7493C36.6787 19.0086 36.5128 19.3425 35.8622 21.3779C35.0059 24.0584 34.4376 24.9141 33.7868 24.5039C33.5754 24.3704 32.7733 24.2744 32.004 24.2902C30.8418 24.3141 30.4606 24.4666 29.7496 25.1927C29.2787 25.6732 28.5685 26.8307 28.171 27.7647C27.7735 28.6987 26.9976 30.3178 26.4463 31.3626C25.8951 32.4074 25.2028 33.806 24.9078 34.4705C24.2155 36.0307 22.6676 39.3008 22.1475 40.3011C21.9247 40.7299 21.6413 40.9878 21.5183 40.8742C21.3178 40.69 21.0923 41.7669 21.1313 42.7194C21.1433 43.0079 20.2066 43.3742 19.7375 43.2646C19.5195 43.2136 20.14 41.2317 20.6602 40.317C20.8892 39.9144 21.1442 39.6476 21.2272 39.7241C21.31 39.8005 21.9881 37.8865 22.7336 35.4707C25.7892 25.5722 29.5532 14.5621 29.9496 14.364C30.17 14.2538 30.3841 14.046 30.426 13.9016C30.4724 13.7406 30.386 13.7311 30.2027 13.8769C30.0382 14.0075 30.1831 13.1828 30.5249 12.0442C30.8669 10.9057 31.051 9.79036 30.9342 9.5654C30.7788 9.26636 30.9619 8.74554 31.6134 7.63084C32.6689 5.82475 32.9617 5.01191 32.5879 4.92456C32.4377 4.88945 32.1507 5.00695 31.9501 5.18574C31.6336 5.46757 31.5358 5.42711 31.2114 4.8797C30.8737 4.31001 29.8411 3.79392 29.7342 4.14183C29.651 4.41284 30.0201 5.52655 30.2775 5.7809C30.4583 5.95918 30.4428 6.01664 30.2268 5.9691C30.0431 5.92857 29.8724 6.23276 29.8088 6.71348C29.7364 7.25858 29.6145 7.44693 29.4391 7.28537C29.2951 7.15276 29.29 6.9099 29.4273 6.74567C29.5648 6.58151 29.4836 6.32486 29.2468 6.17563C28.9597 5.99464 28.8336 6.02038 28.8681 6.25277C29.0645 7.57872 29.0571 7.637 28.7197 7.44345C28.1001 7.08818 27.8032 5.33571 28.2337 4.57372C28.9049 3.38575 29.1815 3.04868 29.354 3.20769C29.445 3.29137 29.8175 3.26029 30.1817 3.13815C30.5461 3.01633 30.6978 2.88241 30.5188 2.84058C30.3399 2.79875 30.0774 2.85931 29.9356 2.97526C29.4481 3.37346 29.2157 2.78621 29.6879 2.3495C29.94 2.11609 30.152 1.76554 30.1588 1.57027C30.1658 1.37506 29.6365 1.72801 28.9824 2.3548ZM32.1478 3.15009C31.722 3.13537 31.724 3.25108 32.1605 3.90552C32.7801 4.83424 32.8942 4.87984 33.0808 4.27211C33.2572 3.69798 32.8208 3.17321 32.1478 3.15009ZM40.8118 5.99842C40.5195 6.02986 39.8939 6.30749 39.421 6.61519C38.6595 7.11071 38.4508 7.5042 37.5969 10.0565C37.0666 11.6415 36.3014 13.401 35.8961 13.9664C35.1214 15.0481 34.8298 16.1178 35.2808 16.2232C35.4275 16.2575 35.6339 16.0056 35.739 15.6635C35.8441 15.3213 36.0502 15.0694 36.1967 15.1036C36.7187 15.2256 38.4732 10.7948 38.5071 9.26843L38.5272 8.36598L39.3898 9.16C39.8643 9.59684 40.4313 9.90781 40.6501 9.85117C40.9153 9.78247 40.9501 9.86474 40.7542 10.0985C40.5858 10.3 40.6401 10.6885 40.8819 11.0128C41.2025 11.4425 41.2016 11.6389 40.8777 11.8371C40.6303 11.9892 40.0288 13.361 39.4351 15.1272C38.8752 16.7933 37.9069 19.2741 37.2831 20.6401C36.6594 22.0059 36.2013 23.2016 36.2648 23.2967C36.3959 23.4932 36.6481 23.0251 38.5997 18.9602C39.369 17.3579 40.1094 15.5209 40.2452 14.8775C40.3808 14.2344 40.5909 13.7009 40.7121 13.6922C41.0061 13.6713 42.6507 10.0574 42.8794 8.93025C42.9788 8.44004 43.1608 7.67249 43.2839 7.22437C43.4071 6.77624 43.4097 6.38689 43.2903 6.35896C43.1705 6.33097 42.8445 7.21474 42.5653 8.32286L42.0584 10.338L40.9911 9.58493C38.7685 8.01642 38.7659 7.13906 40.9816 6.47288C42.1209 6.13049 42.0265 5.86756 40.8118 5.99842ZM30.7282 8.03397C30.4314 8.1825 30.3549 8.13476 30.4409 7.85479C30.5929 7.36005 31.0821 7.11563 31.1108 7.52005C31.1228 7.69143 30.9507 7.923 30.7282 8.03397ZM39.0435 10.6301C38.9435 10.719 38.5314 11.795 38.1274 13.0209C37.2487 15.6861 36.5179 16.7791 35.7363 16.5964C35.4327 16.5254 35.1498 16.5793 35.1078 16.7162C35.0657 16.8531 35.2157 17.0082 35.4412 17.0609C36.1717 17.2316 37.3396 16.2149 37.9744 14.856C38.4401 13.8592 38.7099 13.5571 39.0615 13.6393C39.4252 13.7243 39.4729 13.6642 39.2762 13.3694C39.1371 13.1608 39.1691 12.5154 39.3475 11.9348C39.6455 10.9647 39.4772 10.2426 39.0435 10.6301ZM10.825 5.19464C11.2695 5.60368 11.5844 6.09793 11.5246 6.29254C11.4648 6.48715 11.5461 7.12469 11.7051 7.70945C11.8642 8.29397 11.9009 9.07659 11.7866 9.44864C11.6723 9.82069 11.6218 10.4109 11.6744 10.7601C11.7272 11.1093 11.8 12.3023 11.8368 13.4112C11.8734 14.52 12.0361 15.7583 12.1984 16.163C12.3604 16.5677 12.5385 17.3761 12.5938 17.9596C12.6492 18.5431 13.0163 19.3816 13.4093 19.8229C13.8166 20.28 14.1899 21.1835 14.2773 21.9225C14.3614 22.6359 14.584 23.9909 14.7719 24.9334C15.0001 26.0779 14.9862 27.2515 14.7298 28.466C14.5186 29.4663 14.3952 31.0426 14.4554 31.9692C14.5799 33.8889 13.4849 38.9478 12.9126 39.096C12.6929 39.1529 12.7086 38.808 12.956 38.1441C13.1695 37.5711 13.3685 36.6881 13.3984 36.1816C13.5974 32.8129 13.6184 31.2521 13.4722 30.7421C13.3796 30.4209 13.517 29.5477 13.777 28.8016L14.2497 27.4451L13.0163 29.0109C12.3379 29.8723 11.8309 30.6487 11.8892 30.7365C11.9479 30.8241 12.1463 30.6664 12.3302 30.3855C12.766 29.7205 13.2201 29.8347 13.0033 30.5546C12.9104 30.8628 12.8582 31.7194 12.8876 32.4576C12.9169 33.1961 12.9317 34.0398 12.9206 34.3325C12.8142 37.1184 12.6537 37.6088 12.078 36.905C11.8836 36.667 11.9517 35.9713 12.2716 34.9298C12.6325 33.7549 12.6603 33.3269 12.375 33.3405C12.1604 33.3506 11.8624 33.621 11.7135 33.9415C10.9251 35.6358 10.5969 34.2911 11.2245 31.9393C11.3536 31.456 11.33 30.9104 11.1724 30.7268C11.0148 30.5433 10.9359 29.6617 10.9971 28.7678C11.1045 27.1936 10.9301 26.2678 10.6797 27.0831C10.4884 27.7057 10.4056 31.0451 10.5732 31.3846C10.8152 31.8754 10.4463 34.9246 9.89106 37.0236C9.60859 38.0915 9.44251 39.063 9.52227 39.1822C9.60196 39.3017 9.75562 39.1112 9.8638 38.759C10.0185 38.2553 10.1674 38.1717 10.5621 38.3669C10.9791 38.5732 11.0734 38.5005 11.1197 37.9389C11.1503 37.5668 11.2938 37.2901 11.4385 37.324C11.9467 37.4427 12.2058 38.1506 11.9938 38.8407C11.8545 39.2942 11.9303 39.5727 12.2106 39.6383C12.4476 39.6937 12.6099 39.8418 12.5713 39.9674C12.5327 40.0931 12.5241 40.3837 12.5524 40.6133C12.5929 40.9415 12.4261 40.9673 11.7716 40.7349C11.2264 40.541 10.8462 40.5501 10.6701 40.7607C10.4813 40.9862 10.6086 41.131 11.097 41.2451C11.6669 41.3783 11.7786 41.5759 11.713 42.3346L11.6332 43.2618L13.4053 43.6368C14.3798 43.8432 15.8087 44.2449 16.5805 44.5296L17.9833 45.0474L18.516 44.2754C19.0233 43.5399 19.1201 43.5166 20.57 43.7787C21.4069 43.9297 22.1243 43.9475 22.1642 43.8178C22.2041 43.6879 22.0534 43.5391 21.8296 43.4868C21.2428 43.3496 21.2818 42.7794 21.9119 42.2868C22.211 42.0529 22.71 41.2754 23.0206 40.559C23.3315 39.8424 23.6621 39.2182 23.7556 39.1715C23.9004 39.0992 22.8018 43.2045 22.5387 43.7192C22.4884 43.8176 22.5664 43.9257 22.712 43.9597C23.086 44.0472 23.5375 43.1458 24.8051 39.7811C25.9663 36.6986 26.1896 36.2382 28.464 32.2348C29.9635 29.5957 30.9126 27.0593 30.3459 27.2061C30.162 27.2538 29.8781 27.7268 29.7151 28.2574C29.5521 28.7879 29.2171 29.4648 28.9701 29.7615C28.7235 30.0584 27.9219 31.529 27.189 33.0301C24.8408 37.8389 24.2154 38.9807 24.0252 38.8059C23.82 38.6171 24.0751 37.9952 25.8686 34.3104C26.5383 32.9351 27.5486 30.5906 28.1138 29.1005C29.1761 26.2997 30.405 24.6737 31.437 24.7026C32.2154 24.7245 33.7012 25.1296 33.995 25.3999C34.3391 25.7167 33.266 28.3572 31.8694 30.6296C31.3528 31.4701 30.3518 33.8507 29.6225 35.9725C27.8893 41.0162 26.7596 43.8658 26.5641 43.6864C26.4769 43.6063 25.8608 45.2923 25.1945 47.4332C24.5286 49.5738 23.342 52.6757 22.5576 54.3262C21.7735 55.9767 20.7463 58.2874 20.2753 59.4608C19.8042 60.6345 19.3312 61.574 19.224 61.549C18.95 61.485 18.3609 63.5438 18.5266 63.9866C18.6018 64.1877 18.5551 64.3267 18.4227 64.2958C18.2903 64.2648 17.7027 65.2336 17.1169 66.4488C15.9594 68.8498 15.0244 69.8569 13.76 70.0645C12.4277 70.2831 9.38938 70.1937 7.97434 69.8941C5.82788 69.44 3.08568 67.7631 1.97454 66.2257C1.01554 64.8987 1.01354 64.8851 1.37719 62.0457C1.91474 57.8484 2.33864 55.4442 3.13789 52.0547C3.53158 50.3862 3.91005 48.7343 3.97898 48.3836C4.04819 48.033 4.48257 46.2141 4.9445 44.3416C5.40643 42.4691 5.99254 39.7854 6.24727 38.3779C6.95191 34.4805 7.28789 33.1232 7.49979 33.3184C7.7789 33.5754 6.94601 38.2891 6.00316 41.7883C3.96981 49.3345 1.81496 62.2312 2.25981 64.1916C2.44536 65.0088 2.85314 65.5114 4.09856 66.4573C4.97877 67.1258 6.34405 67.901 7.13299 68.1801C8.87084 68.7948 11.894 69.1 13.4875 68.8216C15.3544 68.4953 15.629 68.01 19.4274 58.3283C19.8928 57.1421 20.3635 56.2791 20.4847 56.3906C20.605 56.5012 20.7588 56.4104 20.8269 56.1889C20.8949 55.9674 20.8001 55.8252 20.6161 55.8729C20.4321 55.9206 20.318 55.8409 20.3625 55.696C20.407 55.5512 20.5728 55.4627 20.7307 55.4996C20.8887 55.5365 21.0545 55.448 21.099 55.3032C21.1435 55.1584 21.0167 55.0818 20.8173 55.1336C20.5858 55.1937 20.557 55.024 20.738 54.664C20.8937 54.3539 21.1496 54.1532 21.3062 54.2175C21.4629 54.2819 21.7765 53.8372 22.0027 53.2293C22.2288 52.6215 22.6332 51.8603 22.9012 51.5381C23.1693 51.2156 23.6065 50.2153 23.8731 49.3153C24.3772 47.6132 24.9836 46.1655 25.6092 45.1703C25.9285 44.6619 25.8079 44.6838 24.6468 45.3455C23.9165 45.7616 23.2416 46.347 23.1472 46.6463C22.9808 47.1729 22.4481 47.4659 21.8452 47.3618C21.6844 47.334 20.4987 47.3602 19.2104 47.42C15.2586 47.6031 11.2393 46.4092 7.99237 44.0884C7.53942 43.7648 7.03067 43.5358 6.86139 43.5797C6.31177 43.7222 6.33021 43.0909 6.94903 40.5995C7.52257 38.2894 7.79532 36.7331 8.29521 32.9169C8.41194 32.0248 8.95051 29.57 9.4919 27.4619C10.514 23.4832 11.0292 20.362 10.8054 19.505C10.5492 18.5239 11.1648 19.1438 11.495 20.1997C11.8098 21.2055 11.8466 21.2359 12.0346 20.6448C12.1624 20.2439 11.9683 19.6229 11.507 18.9558C10.9395 18.1344 10.7895 17.4821 10.8309 16.0115C10.8944 13.7692 10.7383 12.9592 10.4209 13.8805C10.297 14.2396 10.1544 13.6485 10.0801 12.4672C9.94382 10.31 10.0029 9.66284 10.2697 10.3776C10.4022 10.7321 10.4672 10.7089 10.61 10.2571C10.7201 9.90782 10.6131 9.6577 10.3247 9.59029C10.0323 9.52195 9.96574 9.35969 10.1432 9.14778C10.3335 8.92019 10.2424 8.77086 9.85775 8.68096C9.21545 8.53084 9.21225 8.25163 9.84873 7.9336C10.1855 7.76532 10.1762 7.56817 9.80656 7.05661C9.39392 6.48565 9.29067 6.44392 9.03719 6.7469C8.87621 6.93919 8.78631 7.4343 8.83715 7.84708C8.88828 8.25993 8.82413 9.47297 8.69492 10.543C8.56542 11.613 8.53408 12.9007 8.62522 13.4048C8.71644 13.9086 8.68489 14.5014 8.55493 14.722C8.1101 15.4785 7.82384 12.6109 8.09139 10.0763C8.4522 6.65978 9.2115 4.26222 9.8831 4.41918C9.95663 4.43637 10.3805 4.78536 10.825 5.19464ZM27.6815 9.79664C27.0612 10.5431 26.7001 11.7406 27.0095 12.0255C27.1436 12.1491 27.1624 12.3245 27.0511 12.4153C26.9397 12.5061 26.5679 13.429 26.2241 14.466C25.8805 15.5033 25.5141 16.2731 25.4097 16.1769C25.3052 16.081 25.0996 16.125 24.9528 16.275C24.8058 16.425 24.8764 16.1721 25.1095 15.7131C25.3422 15.254 25.7969 14.22 26.1195 13.4152L26.706 11.9519L25.4524 13.9261C24.2947 15.7494 23.823 16.1977 23.2034 16.0638C22.9211 16.0026 23.6082 14.9968 23.9548 14.9636C24.0877 14.951 24.1975 14.7171 24.1988 14.444C24.2002 14.1709 24.7568 13.0836 25.4355 12.0278C26.1145 10.9721 26.7297 9.91371 26.8027 9.67605C26.8757 9.43838 27.1772 9.2456 27.4731 9.24754C27.7689 9.24972 28.0437 9.24513 28.0842 9.23753C28.1247 9.22993 27.9437 9.48155 27.6815 9.79664ZM29.4554 10.0605C29.4134 10.1974 29.3221 10.2961 29.2523 10.2798C29.1825 10.2635 29.0802 10.1195 29.0246 9.95982C28.9689 9.80012 29.0605 9.70149 29.2277 9.74057C29.3949 9.77964 29.4975 9.92365 29.4554 10.0605ZM28.4134 16.0185C25.7782 23.6907 24.3235 27.7748 23.8743 28.761C23.663 29.2251 22.667 31.8129 21.6609 34.5118C19.7115 39.7413 18.7594 42.1051 18.1008 43.3488C17.7736 43.9669 17.5562 44.0884 17.0064 43.9599C16.629 43.8717 16.3546 43.6875 16.3966 43.5506C16.4387 43.4138 16.303 43.2922 16.0949 43.2801C15.517 43.2469 16.6098 39.4392 17.6695 37.7925C18.1723 37.0117 18.9715 35.0975 19.5773 33.2247C20.1509 31.4516 21.1459 28.6234 21.789 26.9399C22.8784 24.0874 22.8357 24.2953 21.1638 29.9946C20.177 33.3582 19.4644 35.9523 19.5807 35.7594C19.8459 35.3189 24.0148 22.9316 24.7196 20.4898C25.0394 19.3816 25.3586 18.7054 25.5419 18.7482C25.7068 18.7867 25.7362 19.1609 25.6076 19.5795C25.4791 19.9981 25.5103 20.3054 25.6768 20.2622C25.8434 20.219 25.9813 19.9517 25.9825 19.6682C25.9854 19.1316 29.454 10.8871 29.7938 10.6096C30.3547 10.1518 30.141 10.9887 28.4134 16.0185ZM33.6852 15.3656C33.5373 15.8253 33.6395 16.1247 34.0167 16.3342C34.8422 16.7928 34.9628 16.5588 34.4041 15.5822L33.8993 14.7L33.6852 15.3656ZM25.4767 16.9992C25.4136 17.2045 25.1868 17.3315 24.9728 17.2815C24.5626 17.1856 23.8285 19.046 20.5401 28.5152C19.7155 30.8897 18.2149 34.8486 17.2051 37.3127C16.1954 39.7769 15.3515 42.1421 15.3299 42.5692C15.2933 43.2898 15.2464 43.321 14.6712 43.0047C14.3307 42.8173 14.0057 42.5392 13.9491 42.3867C13.8926 42.234 13.7038 42.3262 13.5301 42.5913C13.3565 42.8566 13.0081 43.0254 12.7565 42.9666C12.4064 42.8848 12.3766 42.5799 12.6299 41.67C13.0807 40.0521 13.4069 39.3012 13.7608 39.067C13.9246 38.9586 14.4126 37.9924 14.8452 36.9199C15.2776 35.8473 16.0016 34.2161 16.4542 33.2949C16.9065 32.3737 17.7584 30.3523 18.3473 28.8029C18.936 27.2534 19.8688 25.0708 20.4201 23.9527C21.4027 21.9597 21.3941 22.0049 19.9909 26.253L18.5594 30.5862L21.3649 23.9068C22.9078 20.2331 24.2803 17.0954 24.4145 16.9342C24.549 16.7728 24.7675 16.7409 24.9005 16.8635C25.0334 16.9858 25.1786 16.9672 25.2231 16.8223C25.2676 16.6775 25.3687 16.5739 25.4477 16.5923C25.5267 16.6108 25.5397 16.7939 25.4767 16.9992ZM23.242 16.9976C22.677 17.3075 22.5206 17.144 22.9225 16.6636C23.0874 16.4664 23.3303 16.4045 23.4619 16.5254C23.614 16.6655 23.5337 16.8377 23.242 16.9976ZM22.5367 17.9125C22.3826 18.0965 22.3996 18.2805 22.5745 18.3214C22.7495 18.3623 22.8561 18.5144 22.8116 18.6593C22.7671 18.8041 22.6317 18.8319 22.511 18.7208C22.3903 18.6096 22.1829 18.6441 22.05 18.7973C21.9173 18.9506 21.8872 18.7841 21.9834 18.4278C22.0796 18.0713 22.2673 17.7249 22.4007 17.6585C22.7896 17.464 22.8374 17.553 22.5367 17.9125ZM21.5059 20.0153C21.209 20.1638 21.1325 20.1161 21.2185 19.8361C21.3705 19.3414 21.8597 19.097 21.8885 19.5014C21.9005 19.6728 21.7284 19.9043 21.5059 20.0153ZM22.3039 20.312C22.1619 20.7741 22.0296 20.8822 21.8797 20.6575C21.76 20.478 21.802 20.1637 21.9732 19.9592C22.4241 19.4206 22.5397 19.5442 22.3039 20.312ZM23.899 20.8149C23.7465 20.9919 23.6965 20.917 23.7718 20.6238C23.84 20.3587 23.9529 20.2277 24.0229 20.3326C24.0929 20.4375 24.0372 20.6547 23.899 20.8149ZM20.8903 21.5953C20.7446 21.8179 20.7456 21.6082 20.8928 21.1291C21.0399 20.6501 21.1593 20.468 21.1578 20.7243C21.1567 20.9806 21.0362 21.3728 20.8903 21.5953ZM23.4781 22.1951C23.3308 22.4202 23.3088 22.2673 23.4292 21.8553C23.5496 21.4433 23.6699 21.2591 23.6969 21.446C23.7238 21.6329 23.6255 21.97 23.4781 22.1951ZM10.0855 19.0231C10.2469 20.3758 8.32884 28.4699 8.14345 27.2182C8.08713 26.8383 8.43154 24.8783 8.90851 22.8626C9.38577 20.847 9.7452 18.9804 9.70729 18.7149C9.66938 18.4495 9.71986 18.2511 9.81982 18.2744C9.9195 18.2977 10.0392 18.6346 10.0855 19.0231ZM26.1112 27.6167C25.3682 28.7194 24.9482 29.8012 25.0321 30.3948L25.1255 31.0539L25.3345 30.4359C25.4496 30.0961 25.7895 29.2454 26.0895 28.5452C26.6289 27.2885 26.6393 26.8327 26.1112 27.6167ZM18.5114 27.3075C18.3793 27.4601 18.3571 27.3048 18.4622 26.9626C18.5673 26.6204 18.6755 26.4958 18.7026 26.6854C18.7298 26.8752 18.6438 27.1552 18.5114 27.3075ZM22.5444 29.7838C22.3972 30.2629 22.3962 30.4726 22.5419 30.25C22.6878 30.0275 22.8083 29.6353 22.8094 29.379C22.8109 29.1227 22.6915 29.3047 22.5444 29.7838ZM17.4318 29.8508C17.2845 30.0759 17.2625 29.923 17.3829 29.511C17.5033 29.0991 17.6236 28.9149 17.6506 29.1017C17.6775 29.2886 17.5792 29.6257 17.4318 29.8508ZM15.1901 29.7379C15.1178 30.3211 14.9779 30.632 14.8433 30.508C14.7189 30.3938 14.7415 29.8963 14.8932 29.4023C15.2316 28.3009 15.3513 28.4363 15.1901 29.7379ZM24.6136 31.3343C24.6692 31.494 24.7715 31.638 24.8413 31.6543C24.9111 31.6706 25.0024 31.5719 25.0445 31.435C25.0865 31.2982 24.9839 31.1542 24.8167 31.1151C24.6495 31.076 24.558 31.1746 24.6136 31.3343ZM30.5241 35.5831C30.2154 36.5448 30.0424 36.8303 29.9929 36.4592C29.924 35.9408 30.6267 34.0734 30.8694 34.1301C30.9312 34.1445 30.7757 34.7982 30.5241 35.5831ZM15.939 32.3743C15.9667 32.6009 15.8642 32.757 15.7114 32.7212C15.5583 32.6855 15.4847 32.4882 15.5477 32.2829C15.6108 32.0776 15.7132 31.9215 15.7753 31.936C15.8373 31.9505 15.911 32.1477 15.939 32.3743ZM20.4103 35.5754C20.335 35.8685 20.385 35.9434 20.5375 35.7665C20.6757 35.6062 20.7314 35.389 20.6614 35.2841C20.5914 35.1792 20.4785 35.3102 20.4103 35.5754ZM21.6865 36.035C21.534 36.2119 21.484 36.137 21.5593 35.8439C21.6275 35.5787 21.7404 35.4477 21.8104 35.5526C21.8804 35.6575 21.8247 35.8747 21.6865 36.035ZM11.3333 36.0529C10.8671 36.2859 11.0319 35.588 11.6518 34.7065C12.0308 34.1672 12.0447 34.1843 11.889 34.9958C11.7978 35.4701 11.5479 35.9457 11.3333 36.0529ZM18.8605 37.6137C18.7852 37.9069 18.8352 37.9818 18.9877 37.8048C19.1259 37.6445 19.1816 37.4274 19.1116 37.3225C19.0416 37.2175 18.9287 37.3485 18.8605 37.6137ZM18.4782 38.858C18.403 39.1512 18.4529 39.2261 18.6055 39.0491C18.7437 38.8889 18.7993 38.6717 18.7293 38.5668C18.6593 38.4619 18.5465 38.5928 18.4782 38.858ZM10.1999 39.1683C10.0602 39.2824 10.0829 39.4077 10.2501 39.4468C10.4173 39.4859 10.5887 39.4059 10.6308 39.269C10.6728 39.1321 10.6503 39.0069 10.5805 38.9905C10.5107 38.9742 10.3396 39.0543 10.1999 39.1683ZM9.79163 39.9942C10.1285 40.2756 10.4812 40.4674 10.5758 40.4202C10.8203 40.2978 10.1271 39.692 9.6122 39.578C9.36145 39.5224 9.437 39.6974 9.79163 39.9942ZM21.5393 46.353C21.3996 46.467 21.4793 46.6057 21.7162 46.6611C21.9532 46.7165 22.2614 46.6684 22.4011 46.5544C22.5408 46.4403 22.4612 46.3017 22.2242 46.2463C21.9872 46.1909 21.679 46.2389 21.5393 46.353ZM23.1767 49.2029C23.0446 49.3556 23.0224 49.2002 23.1275 48.858C23.2326 48.5158 23.3408 48.3912 23.3679 48.5808C23.3951 48.7707 23.3091 49.0506 23.1767 49.2029ZM22.6431 51.2788C22.538 51.621 22.3227 51.8707 22.1647 51.8338C21.8439 51.7588 22.0229 50.9215 22.4003 50.7331C22.8012 50.5326 22.8433 50.6272 22.6431 51.2788ZM21.7427 52.8688C21.6106 53.0214 21.5884 52.866 21.6935 52.5238C21.7986 52.1817 21.9068 52.057 21.9339 52.2466C21.9611 52.4365 21.8751 52.7165 21.7427 52.8688ZM19.924 58.3785C19.7589 58.9267 19.758 59.1351 19.9218 58.8415C20.0856 58.548 20.2206 58.0994 20.2219 57.8447C20.2231 57.59 20.089 57.8302 19.924 58.3785Z" fill="#747171"/>
</svg>
