<svg width="34" height="34" viewBox="0 0 34 34" fill="none" xmlns="http://www.w3.org/2000/svg">
<path d="M33.6969 18.2105C35.7121 10.0375 27.3006 1.79318 19.6437 0.318117C15.4425 -0.517563 11.0821 0.307831 7.47246 2.62207C4.39193 4.63635 1.25813 8.21928 0.854199 12.0027C0.845274 12.0768 0.864273 12.1515 0.907463 12.2122C-1.52056 18.4511 1.12497 26.33 6.4471 30.2962C11.7692 34.2624 20.4027 35.6082 26.0178 31.4994C26.122 31.4374 26.1973 31.3363 26.2273 31.2185C26.2573 31.1006 26.2394 30.9757 26.1776 30.8711C26.1158 30.7665 26.0151 30.6908 25.8977 30.6607C25.7804 30.6306 25.6559 30.6486 25.5517 30.7106L24.9436 30.9958C24.886 30.899 24.794 30.8276 24.6861 30.7962C24.5782 30.7647 24.4624 30.7756 24.3621 30.8265C20.6291 32.609 15.4401 31.7178 11.7426 30.3808C11.6523 30.3582 11.557 30.3685 11.4737 30.4102C11.3904 30.4518 11.3246 30.5219 11.2882 30.6079C11.2518 30.6938 11.2472 30.79 11.2751 30.8791C11.3031 30.9682 11.3618 31.0444 11.4408 31.0939C13.4107 32.0553 15.5522 32.6113 17.7394 32.7294C18.6545 32.7762 19.5718 32.7494 20.4826 32.6491C19.0544 33.0253 17.5724 33.1519 16.1015 33.0235C13.0338 32.7019 10.0987 31.599 7.57456 29.8193C4.5251 27.7739 2.44329 25.2783 1.45787 21.7132C0.571155 18.6429 0.586571 15.3808 1.50226 12.3191C1.54539 12.2884 1.58167 12.2489 1.6088 12.2033L2.07487 11.2808C1.13925 13.7203 0.86656 16.3657 1.28476 18.9458C2.07931 23.7943 4.80474 27.0029 8.83073 29.6411C9.31012 29.9575 9.79395 29.142 9.27461 28.8746C5.72357 26.9806 2.89161 22.6713 2.29237 18.7319C1.63542 14.3824 3.2112 10.3004 5.78571 6.8378C6.00765 6.54368 5.54157 6.21836 5.28856 6.45455C4.87053 6.85313 4.47907 7.27889 4.11672 7.72908C4.70814 6.82342 5.3925 5.98251 6.15858 5.22013C5.97659 5.52762 6.26954 5.99109 6.63352 5.7549C7.57011 5.15329 8.47562 4.51157 9.44772 3.97235C10.1402 3.58464 10.877 3.26824 11.5872 2.91173C11.7192 2.94998 11.8592 2.94998 11.9912 2.91173C17.1491 1.57482 22.2803 2.16306 26.3019 5.94652C26.3324 5.97655 26.3692 5.9994 26.4095 6.01342C26.4499 6.02744 26.4929 6.03227 26.5354 6.02758C26.5778 6.02289 26.6188 6.00879 26.6551 5.9863C26.6915 5.9638 26.7225 5.93347 26.7457 5.8975C26.7326 5.94568 26.7309 5.99627 26.7406 6.04525C26.7504 6.09423 26.7714 6.14024 26.802 6.17962C26.8326 6.21901 26.872 6.25067 26.9169 6.27209C26.9619 6.29352 27.0112 6.30411 27.0609 6.30303C27.1431 6.29352 27.219 6.25397 27.2741 6.19193C27.3292 6.12989 27.3596 6.04969 27.3596 5.96658C27.3596 5.88347 27.3292 5.80326 27.2741 5.74122C27.219 5.67918 27.1431 5.63964 27.0609 5.63012C27.0096 5.62858 26.9587 5.64002 26.9129 5.66338C26.8672 5.68674 26.828 5.72128 26.799 5.76381C26.8031 5.72169 26.7981 5.67918 26.7843 5.63919C26.7705 5.5992 26.7483 5.56266 26.7191 5.53208C25.3286 4.08008 23.6703 2.91317 21.8364 2.09621C27.274 4.09267 31.7882 8.97686 32.4407 14.6186C32.0302 12.7823 31.2657 11.0443 30.1903 9.50271C30.1396 9.41466 30.0563 9.35041 29.9585 9.32408C29.8606 9.29775 29.7564 9.31152 29.6687 9.36234C29.581 9.41316 29.517 9.49688 29.4908 9.59508C29.4646 9.69328 29.4783 9.79791 29.5289 9.88596C30.9484 12.5504 31.7181 15.5148 31.7749 18.5358C31.877 21.7132 30.6475 24.4182 28.9696 27.0386C28.7965 27.3015 29.1915 27.6268 29.4135 27.4084C29.4663 27.4382 29.5273 27.45 29.5873 27.4419C29.6474 27.4339 29.7032 27.4065 29.7464 27.3639C32.1744 25.0911 33.9499 21.682 33.7102 18.2773C33.7058 18.2417 33.6969 18.2283 33.6969 18.2105Z" fill="black"/>
</svg>
