<svg width="22" height="22" viewBox="0 0 22 22" fill="none" xmlns="http://www.w3.org/2000/svg">
<path d="M18.1978 17.7717C17.915 17.856 17.7588 18.1739 17.6241 18.4184C17.4894 18.6629 17.2686 18.8993 17.2686 19.171C17.2691 19.1912 17.2741 19.2111 17.2834 19.229C17.2926 19.247 17.3058 19.2625 17.3219 19.2746C17.3379 19.2866 17.3566 19.2948 17.3763 19.2985C17.396 19.3023 17.4162 19.3014 17.4356 19.296C17.686 19.2254 17.8719 18.9319 18.0524 18.7526C18.2328 18.5733 18.521 18.3179 18.5237 18.0244C18.5219 17.985 18.5115 17.9465 18.4934 17.9115C18.4753 17.8765 18.4498 17.846 18.4188 17.8219C18.3878 17.7979 18.352 17.7809 18.3138 17.7723C18.2756 17.7636 18.2361 17.7634 18.1978 17.7717Z" fill="black"/>
<path d="M10.3922 6.73503C10.3922 6.73503 9.92893 7.18335 9.91276 8.49569V9.85422H8.20508V11.8078H9.91276V16.8235H11.8817V11.8078H13.5759L13.813 9.86781H11.8817V8.50928C11.879 8.39679 11.8999 8.285 11.943 8.18122C11.9861 8.07744 12.0504 7.98401 12.1318 7.90706C12.2131 7.8301 12.3097 7.77136 12.4152 7.73467C12.5206 7.69798 12.6325 7.68417 12.7436 7.69416H13.8965V5.85742H12.1699C11.8281 5.86384 11.4917 5.94574 11.1846 6.09736C10.8775 6.24898 10.607 6.46664 10.3922 6.73503Z" fill="black"/>
<path d="M21.2174 12.0633C22.4403 7.08016 17.3361 2.05359 12.6925 1.15424C10.1431 0.644149 7.49702 1.14743 5.30687 2.55896C3.43757 3.78707 1.52248 5.97159 1.28814 8.27838C1.28395 8.32344 1.29537 8.36857 1.32047 8.40608C-0.150191 12.21 1.45245 17.0137 4.68466 19.4319C7.91688 21.8501 13.1611 22.6707 16.5577 20.1655C16.6209 20.1295 16.6673 20.0696 16.6868 19.999C16.7062 19.9285 16.6971 19.853 16.6614 19.7892C16.6257 19.7255 16.5663 19.6786 16.4963 19.659C16.4264 19.6394 16.3515 19.6486 16.2883 19.6846L15.9166 19.8585C15.8817 19.8001 15.8264 19.7571 15.7615 19.738C15.6966 19.7189 15.627 19.725 15.5665 19.7553C13.2985 20.8421 10.1498 20.2987 7.9088 19.4836C7.65561 19.3939 7.48053 19.7987 7.72295 19.9183C8.91812 20.5054 10.2177 20.8454 11.545 20.9182C12.1012 20.9467 12.6587 20.9303 13.2123 20.8693C12.3448 21.0986 11.4446 21.1758 10.5511 21.0975C8.68599 20.9027 6.90115 20.2303 5.36612 19.1439C3.51837 17.8968 2.25512 16.3752 1.65446 14.2016C1.11777 12.3294 1.12712 10.3409 1.6814 8.47401C1.70822 8.456 1.73039 8.43178 1.74604 8.40337L2.03964 7.83822C1.47315 9.32587 1.30772 10.9384 1.56019 12.5116C2.04233 15.4677 3.69615 17.424 6.13916 19.0325C6.43275 19.2254 6.72365 18.7282 6.40851 18.5652C4.24293 17.4077 2.52985 14.7803 2.16892 12.3784C1.76759 9.72658 2.72379 7.23775 4.28872 5.12659C4.4207 4.94726 4.13788 4.74892 3.98704 4.89292C3.73181 5.13521 3.49333 5.39484 3.27326 5.67C3.63299 5.11845 4.0482 4.60583 4.51228 4.14029C4.40454 4.32777 4.57962 4.61034 4.80318 4.46634C5.37151 4.09954 5.91829 3.70828 6.50817 3.37951C6.92836 3.14313 7.37818 2.95022 7.80914 2.73285C7.88828 2.75625 7.97242 2.75625 8.05156 2.73285C11.1814 1.91773 14.2978 2.27639 16.7354 4.58317C16.754 4.60148 16.7763 4.61541 16.8008 4.62396C16.8253 4.63251 16.8514 4.63546 16.8771 4.6326C16.9029 4.62974 16.9277 4.62114 16.9498 4.60742C16.9719 4.59371 16.9907 4.57522 17.0048 4.55329C16.9968 4.58266 16.9958 4.61351 17.0017 4.64337C17.0076 4.67323 17.0204 4.70128 17.0389 4.7253C17.0575 4.74931 17.0814 4.76861 17.1087 4.78168C17.1359 4.79474 17.1658 4.8012 17.196 4.80054C17.2459 4.79474 17.292 4.77063 17.3254 4.7328C17.3588 4.69498 17.3773 4.64607 17.3773 4.5954C17.3773 4.54473 17.3588 4.49583 17.3254 4.458C17.292 4.42017 17.2459 4.39607 17.196 4.39026C17.1649 4.38933 17.134 4.3963 17.1063 4.41054C17.0785 4.42479 17.0547 4.44584 17.0371 4.47177C17.0404 4.44605 17.0377 4.41991 17.0293 4.39541C17.0209 4.3709 17.0069 4.34868 16.9886 4.33049C16.1444 3.44578 15.1382 2.73439 14.0258 2.23563C17.3226 3.45288 20.0646 6.43078 20.4579 9.87058C20.2089 8.74827 19.743 7.68648 19.0869 6.74596C19.0562 6.69227 19.0056 6.65309 18.9462 6.63704C18.8869 6.62099 18.8236 6.62938 18.7704 6.66037C18.7172 6.69136 18.6783 6.7424 18.6624 6.80227C18.6465 6.86214 18.6548 6.92594 18.6855 6.97963C19.5477 8.60391 20.0157 10.4113 20.0512 12.2534C20.1104 14.1907 19.3643 15.84 18.3462 17.4376C18.2411 17.5979 18.4808 17.7963 18.6155 17.6631C18.6476 17.6813 18.6846 17.6884 18.721 17.6835C18.7574 17.6786 18.7913 17.6619 18.8175 17.636C20.2909 16.2502 21.3683 14.1717 21.2228 12.0959C21.2228 12.0823 21.2201 12.0741 21.2174 12.0633Z" fill="black"/>
<path d="M6.90694 19.2771C6.89385 19.3117 6.88787 19.3485 6.88939 19.3855C6.89091 19.4224 6.89989 19.4586 6.91577 19.492C6.93166 19.5253 6.95412 19.555 6.98178 19.5792C7.00944 19.6035 7.04171 19.6218 7.07663 19.6331C7.18293 19.6746 7.29299 19.7055 7.40524 19.7254C7.60456 19.7499 7.67459 19.4755 7.55877 19.3532C7.47638 19.2759 7.38609 19.2075 7.28942 19.1494C7.25648 19.1302 7.21987 19.1182 7.18201 19.1142C7.14414 19.1103 7.10587 19.1145 7.06973 19.1266C7.03359 19.1386 7.00039 19.1583 6.97233 19.1842C6.94428 19.2102 6.92199 19.2418 6.90694 19.2771Z" fill="black"/>
</svg>
