<svg width="63" height="64" viewBox="0 0 63 64" fill="none" xmlns="http://www.w3.org/2000/svg">
<path d="M52.9933 51.1207C52.1394 51.3768 51.6677 52.3434 51.261 53.087C50.8544 53.8306 50.1875 54.5493 50.1875 55.3755C50.189 55.437 50.2043 55.4973 50.2322 55.5518C50.2601 55.6064 50.2998 55.6538 50.3484 55.6904C50.397 55.727 50.4532 55.7519 50.5127 55.7632C50.5722 55.7745 50.6334 55.7719 50.6917 55.7556C51.4481 55.5408 52.0092 54.6485 52.5541 54.1032C53.099 53.5579 53.9692 52.7813 53.9774 51.889C53.9718 51.7692 53.9405 51.652 53.8858 51.5456C53.8311 51.4393 53.7543 51.3463 53.6606 51.2732C53.567 51.2001 53.4587 51.1485 53.3435 51.1222C53.2283 51.0959 53.1088 51.0953 52.9933 51.1207Z" fill="black"/>
<path d="M29.4246 17.5607C29.4246 17.5607 28.0258 18.9239 27.977 22.9144V27.0453H22.8208V32.9856H27.977V48.237H33.922V32.9856H39.0375L39.7532 27.0866H33.922V22.9557C33.9138 22.6136 33.9768 22.2737 34.1069 21.9581C34.237 21.6426 34.4313 21.3585 34.677 21.1245C34.9227 20.8905 35.2143 20.7119 35.5327 20.6003C35.851 20.4887 36.189 20.4468 36.5245 20.4771H40.0053V14.8921H34.7922C33.7599 14.9116 32.7444 15.1606 31.8171 15.6217C30.8897 16.0827 30.0731 16.7446 29.4246 17.5607Z" fill="black"/>
<path d="M62.1102 33.7621C65.8025 18.6099 50.3909 3.32542 36.37 0.590747C28.6726 -0.9603 20.683 0.570056 14.07 4.86213C8.42592 8.59649 2.64353 15.239 1.93598 22.2534C1.92332 22.3904 1.95781 22.5276 2.03358 22.6417C-2.40691 34.2083 2.43208 48.8153 12.1914 56.1683C21.9507 63.5214 37.7851 66.0165 48.0405 58.399C48.2314 58.2895 48.3716 58.1073 48.4304 57.8928C48.4891 57.6782 48.4615 57.4487 48.3536 57.2547C48.2458 57.0608 48.0665 56.9184 47.8553 56.8587C47.6441 56.7991 47.4181 56.8271 47.2273 56.9367L46.1049 57.4654C45.9996 57.2879 45.8324 57.1571 45.6366 57.0989C45.4408 57.0408 45.2305 57.0595 45.0477 57.1515C38.1999 60.4562 28.6927 58.8038 21.9263 56.3253C21.1618 56.0526 20.6332 57.2837 21.3651 57.6472C24.9738 59.4324 28.8976 60.4661 32.9055 60.6875C34.5848 60.7743 36.2682 60.7245 37.9397 60.5388C35.3202 61.2361 32.6022 61.4708 29.9045 61.2328C24.2729 60.6406 18.8838 58.5958 14.249 55.2926C8.6699 51.5004 4.85564 46.8737 3.04204 40.2642C1.42156 34.5715 1.44979 28.525 3.12336 22.8482C3.20436 22.7934 3.27128 22.7198 3.31855 22.6334L4.20502 20.9149C2.49459 25.4385 1.99508 30.3418 2.75739 35.1253C4.21315 44.1143 9.20666 50.0628 16.5831 54.9538C17.4695 55.5404 18.3479 54.0285 17.3963 53.5328C10.8576 50.0132 5.68518 42.024 4.59539 34.7205C3.38361 26.6569 6.27074 19.0891 10.9959 12.6696C11.3944 12.1243 10.5404 11.5212 10.085 11.9591C9.31435 12.6958 8.59427 13.4853 7.92982 14.322C9.01597 12.6449 10.2696 11.0861 11.6709 9.67054C11.3456 10.2406 11.8742 11.0998 12.5492 10.662C14.2652 9.54661 15.9162 8.3569 17.6972 7.35721C18.966 6.63843 20.3241 6.05184 21.6254 5.39089C21.8643 5.46204 22.1184 5.46204 22.3573 5.39089C31.8076 2.91233 41.2172 4.0029 48.5773 11.0172C48.6332 11.0729 48.7006 11.1152 48.7746 11.1412C48.8486 11.1672 48.9273 11.1762 49.0051 11.1675C49.0829 11.1588 49.1579 11.1327 49.2245 11.091C49.2912 11.0492 49.3479 10.993 49.3906 10.9263C49.3665 11.0157 49.3633 11.1095 49.3812 11.2003C49.3991 11.2911 49.4376 11.3764 49.4937 11.4494C49.5497 11.5224 49.6218 11.5811 49.7042 11.6208C49.7865 11.6605 49.8769 11.6802 49.968 11.6782C50.1187 11.6605 50.2577 11.5872 50.3586 11.4722C50.4595 11.3572 50.5153 11.2085 50.5153 11.0544C50.5153 10.9003 50.4595 10.7516 50.3586 10.6366C50.2577 10.5216 50.1187 10.4483 49.968 10.4306C49.874 10.4278 49.7808 10.449 49.6969 10.4923C49.6131 10.5356 49.5413 10.5996 49.4882 10.6785C49.498 10.6003 49.4898 10.5208 49.4645 10.4463C49.4391 10.3718 49.3971 10.3042 49.3418 10.2489C46.7926 7.5587 43.7546 5.39557 40.3957 3.87897C50.3502 7.58028 58.6294 16.6353 59.8167 27.0948C59.065 23.6821 57.6583 20.4535 55.6772 17.5937C55.5844 17.4304 55.4316 17.3113 55.2524 17.2625C55.0732 17.2137 54.8823 17.2392 54.7216 17.3334C54.5609 17.4276 54.4436 17.5828 54.3956 17.7649C54.3475 17.947 54.3727 18.1409 54.4654 18.3042C57.0687 23.2432 58.4818 28.739 58.5887 34.3405C58.7676 40.2312 56.5149 45.2461 53.4407 50.1041C53.1235 50.5915 53.8473 51.1947 54.2539 50.7898C54.3507 50.845 54.4625 50.8668 54.5725 50.8519C54.6825 50.837 54.7848 50.7862 54.8639 50.7072C59.3125 46.4937 62.5656 40.1733 62.1264 33.8613C62.1264 33.82 62.1183 33.7952 62.1102 33.7621Z" fill="black"/>
<path d="M18.9009 55.6974C18.8613 55.8024 18.8433 55.9145 18.8479 56.0269C18.8525 56.1392 18.8796 56.2494 18.9275 56.3507C18.9755 56.452 19.0433 56.5423 19.1268 56.6161C19.2103 56.6899 19.3078 56.7455 19.4132 56.7797C19.7342 56.9059 20.0665 57 20.4054 57.0606C21.0072 57.135 21.2187 56.3005 20.869 55.9288C20.6202 55.6936 20.3476 55.4859 20.0557 55.3091C19.9563 55.2506 19.8457 55.2141 19.7314 55.2021C19.617 55.1901 19.5015 55.2029 19.3924 55.2396C19.2833 55.2763 19.183 55.3361 19.0983 55.415C19.0136 55.4939 18.9463 55.5902 18.9009 55.6974Z" fill="black"/>
</svg>
