<svg width="93" height="117" viewBox="0 0 93 117" fill="none" xmlns="http://www.w3.org/2000/svg">
<path d="M92.1783 24.8934H92.3321V0.87964H92.1475C83.2929 0.877566 74.5575 2.92288 66.6228 6.85604C58.688 10.7892 51.7686 16.5038 46.4041 23.5541C41.0601 16.5344 34.1748 10.8386 26.2803 6.90692C18.3859 2.97524 9.69382 0.913005 0.875977 0.87964V24.8934C9.65063 25.0814 18.0026 28.702 24.1419 34.9791C30.2811 41.2562 33.7191 49.6904 33.7191 58.4741C33.7191 67.2578 30.2811 75.692 24.1419 81.9691C18.0026 88.2463 9.65063 91.8668 0.875977 92.0549V116.069C9.69902 116.04 18.3972 113.98 26.2973 110.048C34.1975 106.116 41.0877 100.418 46.4349 93.3941C51.7993 100.444 58.7188 106.159 66.6535 110.092C74.5882 114.025 83.3236 116.071 92.1783 116.069H92.3321V92.0549H92.1475C87.6807 92.1506 83.2397 91.3527 79.0851 89.7082C74.9304 88.0636 71.1457 85.6053 67.9528 82.4776C64.76 79.3498 62.2232 75.6156 60.4914 71.4937C58.7596 67.3719 57.8675 62.9455 57.8675 58.4741C57.8675 54.0027 58.7596 49.5763 60.4914 45.4545C62.2232 41.3326 64.76 37.5984 67.9528 34.4706C71.1457 31.3429 74.9304 28.8847 79.0851 27.2401C83.2397 25.5955 87.6807 24.7977 92.1475 24.8934H92.1783Z" fill="#FFD102" stroke="black" stroke-miterlimit="10"/>
</svg>
