<svg width="113" height="344" viewBox="0 0 113 344" fill="none" xmlns="http://www.w3.org/2000/svg">
<path d="M97.5028 343.68C97.1277 339.289 105.963 334.759 111.02 330.757L103.866 314.813L111.589 330.79C109.306 331.091 100.363 329.736 82.7347 324.642C65.1058 319.547 57.6835 309.277 55.7718 304.577C53.86 299.877 52.2289 295.032 56.7447 288.138C61.9891 280.131 66.4614 284.725 67.823 289.692C71.4671 308.273 52.2025 302.969 42.1147 297.994C-9.13781 270.927 -10.2845 178.5 -6.86181 149.5C-3.4391 120.5 14.0608 92.2001 14.0608 65.0001C13.7274 52.8334 8.26066 23 -10.9393 1.00005" stroke="#080808"/>
</svg>
