<svg width="1223" height="54" viewBox="0 0 1223 54" fill="none" xmlns="http://www.w3.org/2000/svg">
<path fill-rule="evenodd" clip-rule="evenodd" d="M216.712 0.23345C215.957 0.989089 216.181 2.75463 217.073 3.08726C217.528 3.25658 220.387 3.4398 223.428 3.49403C226.469 3.54826 229.993 3.679 231.26 3.78385C232.527 3.8893 234.061 3.61634 234.67 3.17766C235.676 2.45215 235.688 2.29184 234.804 1.41809C234.048 0.672698 231.963 0.379833 225.504 0.112889C220.924 -0.076322 216.968 -0.0220454 216.712 0.23345ZM191.294 2.40332C188.68 3.28912 187.729 3.90982 187.729 4.73053C187.729 6.5654 188.717 6.65574 193.753 5.28185C198.189 4.07186 200.435 2.67268 199.727 1.5591C199.206 0.740193 194.944 1.16682 191.294 2.40332ZM991.409 1.79228C989.01 2.31592 987.69 3.58678 988.394 4.69493C988.986 5.62592 998.779 4.5473 1000.31 3.38311C1000.71 3.07338 1000.89 2.43346 1000.7 1.96043C1000.31 0.967978 995.58 0.88238 991.409 1.79228ZM610.542 2.99384C605.344 3.69043 603.103 4.58105 603.103 5.95012C603.103 7.32461 604.521 7.61685 608.062 6.97389C609.597 6.69489 611.816 6.3382 612.995 6.18153C614.174 6.02486 615.796 5.47708 616.601 4.96489C617.777 4.21588 617.92 3.86338 617.327 3.1692C616.517 2.21953 616.355 2.2153 610.542 2.99384ZM637.875 4.3509C636.738 5.68261 638.512 6.90159 642.274 7.37522C644.087 7.603 647.423 8.32132 649.688 8.9709C654.956 10.4816 657.301 9.82897 654.714 7.57169C653.202 6.25143 649.332 4.88657 644.991 4.14178C640.113 3.30539 638.733 3.34579 637.875 4.3509ZM1008.17 4.38224C1007.55 5.96763 1009.14 6.96486 1012.9 7.33123C1014.77 7.51502 1017.98 7.82598 1020.03 8.02363C1024.2 8.42615 1025.99 7.76394 1024.99 6.193C1024.64 5.66092 1024.23 5.2222 1024.06 5.21859C1023.89 5.21497 1022.49 4.97512 1020.96 4.68588C1019.42 4.39604 1016.01 3.97788 1013.37 3.75553C1009.19 3.40302 1008.53 3.48258 1008.17 4.38224ZM969.712 5.35776C966.237 6.67139 965.213 8.03931 966.655 9.44152C967.471 10.2339 968.063 10.1001 971.793 8.27968C978.341 5.08419 976.665 2.72989 969.712 5.35776ZM252.36 5.76997C251.022 6.20444 251.515 7.66385 253.29 8.52433C254.228 8.97928 256.598 9.41255 258.557 9.48728C260.516 9.5626 262.937 9.72412 263.935 9.84704C265.983 10.0989 267.713 8.70209 266.643 7.66143C265.921 6.95942 265.262 6.82267 259.645 6.20683C253.304 5.51205 253.178 5.50423 252.36 5.76997ZM575.204 7.22457C570.065 9.1902 568.584 10.4274 569.744 11.7856C570.656 12.8528 572.441 12.4574 577.839 9.99284C582.088 8.05312 582.894 7.01549 580.939 6.00617C580.164 5.60605 578.526 5.95373 575.204 7.22457ZM1039.98 6.74012C1039.32 8.42494 1041.23 9.41679 1045.96 9.84763C1051.4 10.3436 1052.81 10.1471 1053.06 8.8552C1053.28 7.74705 1050.3 6.85584 1044.14 6.193C1041.01 5.85556 1040.3 5.94893 1039.98 6.74012ZM280.015 9.33722C279.363 9.50534 279.108 10.0146 279.307 10.7539C279.63 11.9549 280.211 12.2164 283.823 12.7877C290.449 13.8349 290.478 13.8349 290.901 12.7635C291.392 11.5204 290.256 10.7696 286.303 9.72472C283.452 8.97149 281.82 8.87082 280.015 9.33722ZM166.341 10.6027C164.816 10.8998 160.41 12.2784 156.886 13.5613C154.028 14.602 153.305 16.3947 155.472 17.063C156.473 17.3721 162.088 15.8048 166.651 13.9428C167.162 13.7343 167.834 13.621 168.144 13.6909C168.928 13.8687 169.698 12.5147 169.335 11.5963C168.956 10.6352 167.928 10.2942 166.341 10.6027ZM950.001 13.1377C946.268 14.843 945.227 15.8295 945.755 17.1648C946.244 18.4062 947.458 18.1554 952.196 15.8367C955.371 14.282 956.505 13.4203 956.357 12.6731C956.057 11.1606 954.002 11.3113 950.001 13.1377ZM1072.04 13.3957C1071.44 14.9058 1072.19 15.3734 1077.42 16.7442C1082.78 18.1483 1084.19 18.0729 1083.93 16.3959C1083.79 15.4698 1080.88 14.0465 1077.99 13.4903C1072.99 12.5286 1072.39 12.5189 1072.04 13.3957ZM679.683 14.1278C678.758 15.0268 678.761 15.1907 679.721 16.2223C680.294 16.8382 681.005 17.1967 681.301 17.019C681.596 16.8418 681.838 16.9352 681.838 17.2274C681.838 17.7203 684.484 19.0244 689.992 21.2449C691.981 22.047 692.3 22.05 692.608 21.2708C693.282 19.5619 692.209 18.573 686.751 15.8729C683.725 14.3767 681.123 13.1522 680.968 13.1522C680.813 13.1522 680.234 13.5909 679.683 14.1278ZM551.336 15.665C549.207 16.3628 544.345 18.3634 542.966 19.1082C542.455 19.3847 542.037 20.1235 542.037 20.7502C542.037 21.6342 542.453 21.8698 543.896 21.8005C544.919 21.7511 546.593 21.3672 547.616 20.9472C548.639 20.5266 549.625 20.1602 549.806 20.1325C549.987 20.1048 551.313 19.5661 552.751 18.9358C554.747 18.0609 555.366 17.4553 555.366 16.3748C555.366 14.8111 554.439 14.6478 551.336 15.665ZM305.924 20.0644C305.346 21.5305 307.131 22.6411 311.682 23.6474C316.765 24.7712 318.319 24.8357 318.884 23.9462C319.536 22.9219 318.456 22.247 313.616 20.6556C308.463 18.9611 306.422 18.8044 305.924 20.0644ZM924.242 23.7155C918.349 26.6965 917.268 27.7353 918.673 29.0634C919.476 29.8221 920.064 29.7076 923.312 28.159C930.163 24.8936 932.585 23.1743 932.093 21.9282C931.517 20.4712 929.949 20.8285 924.242 23.7155ZM133.307 23.2105C127.386 26.121 126.199 26.826 125.67 27.7456C125.112 28.7145 126.034 29.8317 127.333 29.76C128.304 29.707 134.594 26.8327 135.445 26.0535C135.842 25.6902 137.028 25.046 138.08 24.6224C139.221 24.1632 139.992 23.4124 139.992 22.761C139.992 21.2064 136.969 21.41 133.307 23.2105ZM1100.64 23.2786C1099.62 24.2657 1100.61 25.8643 1103.13 27.2984C1106.61 29.2809 1110.23 29.9908 1110.23 28.6904C1110.23 27.7841 1108.35 25.8064 1107.49 25.8064C1107.23 25.8064 1106.13 25.196 1105.06 24.4506C1103.15 23.128 1101.3 22.6369 1100.64 23.2786ZM706.944 24.6055C706.731 24.9393 706.924 25.3159 707.372 25.4431C707.82 25.5696 709.441 26.0939 710.976 26.6073C717.468 28.7796 720.895 29.1279 720.895 27.6142C720.895 26.97 719.533 26.4771 714.076 25.1466C708.757 23.8499 707.485 23.7534 706.944 24.6055ZM521.005 27.4816C515.905 29.1833 514.17 30.5976 515.543 31.9323C516.138 32.5108 516.928 32.4596 519.249 31.6901C527.285 29.0261 528.352 28.3818 527.654 26.6145C527.221 25.5184 526.673 25.5901 521.005 27.4816ZM732.71 31.208C731.287 32.0631 732.633 34.095 735.333 35.1676C739.708 36.906 741.846 37.226 742.667 36.2655C743.549 35.2327 742.463 34.2775 738.254 32.3854C734.802 30.8338 733.717 30.603 732.71 31.208ZM100.319 33.6304C95.2126 35.9455 93.1872 37.4887 93.8617 38.5492C94.4978 39.5495 97.2895 39.0404 101.103 37.2278C106.398 34.7114 107.907 33.5219 107.409 32.2595C106.841 30.8205 106.273 30.9302 100.319 33.6304ZM340.395 32.7729C339.22 34.01 339.45 34.6373 341.324 35.3182C342.262 35.6587 343.587 36.1425 344.269 36.3938C344.951 36.6445 345.649 36.8801 345.819 36.9169C345.99 36.953 347.481 37.358 349.132 37.816C351.677 38.5222 352.216 38.5227 352.662 37.8219C353.443 36.5938 352.329 35.6472 348.438 34.2324C346.531 33.5388 344.685 32.7994 344.336 32.5904C343.133 31.8673 341.168 31.9582 340.395 32.7729ZM900.745 33.0899C899.926 33.4081 898.612 33.7202 897.825 33.7835C895.726 33.9528 893.594 35.7032 894.058 36.8771C894.271 37.4164 894.899 37.8581 895.454 37.8581C897.452 37.8581 903.149 35.9533 904.536 34.8211C905.749 33.8316 905.819 33.5768 905.023 33.0591C903.889 32.3198 902.703 32.3288 900.745 33.0899ZM1124.49 33.5665C1124.49 34.747 1125.71 36.0341 1127.09 36.3082C1127.54 36.3956 1128.74 36.8258 1129.76 37.2633C1130.78 37.7002 1131.76 38.0853 1131.93 38.1184C1132.1 38.151 1132.54 38.3673 1132.92 38.5987C1133.29 38.8301 1134.71 39.1928 1136.08 39.4055C1138.04 39.7092 1138.65 39.5863 1138.95 38.8258C1139.44 37.5779 1137.7 36.4824 1131.64 34.2137C1126.05 32.1215 1124.49 31.9805 1124.49 33.5665ZM482.52 40.3624C480.133 41.3615 477.403 42.4907 476.452 42.871C474.288 43.7375 474.347 45.8923 476.543 46.1942C478.018 46.3967 485.043 43.3844 487.647 41.4326C488.933 40.4685 488.969 40.2955 488.068 39.4194C487.525 38.8921 487.032 38.4799 486.971 38.5028C486.91 38.5263 484.907 39.3634 482.52 40.3624ZM761.654 39.1988C761.093 40.6191 761.905 41.2265 765.842 42.3347C767.888 42.9107 770.071 43.6453 770.693 43.967C772.438 44.8709 775.96 45.1493 776.423 44.4208C777.045 43.4422 775.571 42.3551 771.253 40.6089C766.263 38.5914 762.133 37.9846 761.654 39.1988ZM73.0367 41.752C63.8427 44.1298 62.4974 44.6456 62.4974 45.7899C62.4974 46.4196 62.9164 47.0909 63.4279 47.2819C64.3176 47.6139 72.333 45.9743 74.2766 45.0632C74.7881 44.8234 75.9802 44.275 76.9257 43.8448C80.3888 42.2696 77.3528 40.6354 73.0367 41.752ZM374.957 42.0684C372.797 43.4067 375.662 45.1108 383.494 47.1451C386.374 47.8935 386.872 47.8844 387.709 47.0709C388.561 46.2424 388.544 46.0731 387.542 45.4097C386.454 44.689 377.26 41.4646 376.347 41.4826C376.094 41.4881 375.469 41.7514 374.957 42.0684ZM1157.86 43.6899C1158.22 44.3467 1160.79 46.0146 1163.56 47.397C1169.84 50.5274 1171.87 50.707 1171.16 48.0707C1170.75 46.5395 1164.11 43.3982 1160.22 42.8897C1157.35 42.5148 1157.23 42.554 1157.86 43.6899ZM864.416 45.4959C857.291 47.2759 856.07 47.9972 857.732 49.4488C858.597 50.2044 859.372 50.302 861.316 49.9001C866.688 48.7878 869.346 48.0086 870.992 47.0643C872.376 46.2695 872.592 45.8646 872.106 44.9806C871.374 43.6513 871.952 43.6128 864.416 45.4959ZM452.762 47.397C452.08 47.5295 450.058 48.1683 448.268 48.8173C445.861 49.6892 445.013 50.3045 445.013 51.177C445.013 53.1023 446.645 53.1649 451.548 51.427C456.51 49.6675 456.995 49.3174 456.434 47.8959C456.082 47.0041 455.317 46.8998 452.762 47.397ZM842.097 47.1861C841.756 47.2933 839.943 47.826 838.068 48.3701C832.751 49.9133 831.248 50.5943 831.248 51.4596C831.248 52.9998 833.171 53.3951 836.526 52.543C840.621 51.5042 844.456 49.9628 844.984 49.1433C845.967 47.6236 844.302 46.4949 842.097 47.1861ZM799.76 48.2515C798.543 49.676 800.063 50.4292 807.029 51.8549C811.625 52.7961 813.479 52.9594 813.985 52.4683C815.229 51.2589 814.008 49.9911 810.667 49.0197C805.507 47.5199 800.675 47.1795 799.76 48.2515ZM39.8688 49.3632C38.5049 49.588 35.9519 49.9369 34.195 50.1382C30.102 50.6082 29.226 50.9534 29.226 52.0977C29.226 53.7235 31.624 53.9904 38.4764 53.1281C46.0288 52.1772 48.2383 51.5295 48.2383 50.2665C48.2383 48.6914 45.6468 48.4117 39.8688 49.3632ZM1218.41 49.7013C1214.81 50.763 1214.26 51.151 1214.91 52.1803C1215.28 52.7587 1216.17 52.7907 1218.74 52.3165C1222.49 51.6265 1223.4 51.033 1222.85 49.6488C1222.41 48.5305 1222.39 48.5311 1218.41 49.7013ZM2.73008 49.838C0.840443 50.1291 0.262629 50.5087 0.0989597 51.5669C-0.144685 53.1414 -0.650543 53.0595 8.56083 52.9372C15.8299 52.8401 17.7462 52.2821 16.6625 50.5786C16.0729 49.6512 7.05554 49.1722 2.73008 49.838ZM411.225 49.7706C408.146 50.2328 407.312 50.5599 407.422 51.2637C407.674 52.8787 408.497 53.3535 411.052 53.3578C412.511 53.3602 415.847 53.5518 418.466 53.7844C422.828 54.1719 423.283 54.1067 423.887 53.0082C424.471 51.9483 424.279 51.7229 422.24 51.0685C419.686 50.2496 413.159 49.4801 411.225 49.7706ZM1185.71 49.7374C1184.53 50.0218 1184.23 52.0116 1185.28 52.6407C1185.87 52.9944 1192.08 53.5072 1198.57 53.7386C1200.67 53.8127 1201.08 53.6271 1201.24 52.5388C1201.4 51.4464 1200.98 51.1529 1198.45 50.6033C1195.08 49.87 1187.35 49.3445 1185.71 49.7374Z" fill="black"/>
</svg>
