<svg width="1280" height="205" viewBox="0 0 1280 205" fill="none" xmlns="http://www.w3.org/2000/svg">
<path d="M26.7296 51.3111C129.1 55.1321 194.322 -7.99371e-06 251.617 0C315.871 8.96452e-06 374.679 40.3933 438.933 51.3111C511.354 58.9526 585.879 1.43875 645.307 3.8212C726.985 7.09568 799.406 51.3105 838.612 51.3105C881.084 51.3105 910.504 49.6438 949.15 28.3843C993.801 3.8212 997.061 3.16447 1023.75 3.8212C1036.35 4.13128 1067.16 2.68591 1108.69 14.1919C1155.13 27.0548 1212.1 52.924 1214.33 51.3111C1218.56 48.2552 1238.84 51.3111 1238.84 51.3111C1238.84 51.3111 1273.12 42.279 1279.5 41C1294.93 97.2236 1301.56 216.816 1302 217.253C1302.44 217.689 417.515 235.266 -25 244L-9.56346 186.5L-3 51.3111H26.7296Z" fill="#FFFFF8"/>
</svg>
