<svg width="407" height="18" viewBox="0 0 407 18" fill="none" xmlns="http://www.w3.org/2000/svg">
<path fill-rule="evenodd" clip-rule="evenodd" d="M72.1194 0.0778166C71.8681 0.329696 71.9423 0.918211 72.2394 1.02909C72.3907 1.08553 73.3422 1.1466 74.3542 1.16468C75.3661 1.18275 76.539 1.22633 76.9607 1.26128C77.3822 1.29643 77.8929 1.20545 78.0955 1.05922C78.4301 0.817384 78.4341 0.763946 78.1399 0.472698C77.8886 0.224233 77.1945 0.126611 75.0451 0.0376297C73.5211 -0.0254407 72.2044 -0.00734847 72.1194 0.0778166ZM63.6604 0.801107C62.7904 1.09637 62.4741 1.30327 62.4741 1.57684C62.4741 2.18847 62.8028 2.21858 64.4787 1.76062C65.9551 1.35729 66.7023 0.890892 66.4667 0.519701C66.2934 0.246731 64.8752 0.388941 63.6604 0.801107ZM329.929 0.597427C329.131 0.771975 328.692 1.19559 328.926 1.56498C329.123 1.87531 332.382 1.51577 332.89 1.1277C333.025 1.02446 333.085 0.811153 333.023 0.653477C332.892 0.322659 331.317 0.294127 329.929 0.597427ZM203.181 0.997947C201.451 1.23014 200.705 1.52702 200.705 1.98337C200.705 2.44154 201.178 2.53895 202.356 2.32463C202.867 2.23163 203.605 2.11273 203.998 2.06051C204.39 2.00829 204.93 1.82569 205.198 1.65496C205.589 1.40529 205.636 1.28779 205.439 1.0564C205.169 0.739844 205.116 0.738435 203.181 0.997947ZM212.277 1.4503C211.899 1.8942 212.489 2.30053 213.741 2.45841C214.345 2.53433 215.455 2.77377 216.208 2.9903C217.962 3.49386 218.742 3.27632 217.881 2.5239C217.378 2.08381 216.09 1.62886 214.645 1.38059C213.022 1.1018 212.563 1.11527 212.277 1.4503ZM335.508 1.46075C335.3 1.98921 335.832 2.32162 337.08 2.44374C337.704 2.50501 338.772 2.60866 339.453 2.67454C340.841 2.80872 341.438 2.58798 341.103 2.06433C340.99 1.88697 340.85 1.74073 340.794 1.73953C340.737 1.73832 340.273 1.65837 339.762 1.56196C339.251 1.46535 338.116 1.32596 337.239 1.25184C335.846 1.13434 335.626 1.16086 335.508 1.46075ZM322.709 1.78592C321.552 2.2238 321.211 2.67977 321.692 3.14717C321.963 3.41131 322.16 3.36669 323.401 2.75989C325.581 1.69473 325.023 0.909965 322.709 1.78592ZM83.9825 1.92332C83.5371 2.06815 83.7011 2.55462 84.292 2.84144C84.6041 2.99309 85.3929 3.13752 86.0448 3.16242C86.6968 3.18753 87.5022 3.24137 87.8346 3.28235C88.5161 3.36631 89.0919 2.9007 88.7356 2.55381C88.4952 2.31981 88.2761 2.27422 86.4067 2.06894C84.2965 1.83735 84.2546 1.83474 83.9825 1.92332ZM191.421 2.40819C189.711 3.0634 189.218 3.47579 189.604 3.92853C189.908 4.28425 190.502 4.15247 192.298 3.33095C193.712 2.68437 193.98 2.3385 193.33 2.00206C193.072 1.86868 192.526 1.98458 191.421 2.40819ZM346.095 2.24671C345.873 2.80832 346.508 3.13893 348.083 3.28254C349.894 3.44785 350.361 3.38238 350.447 2.95173C350.52 2.58235 349.526 2.28528 347.478 2.06433C346.435 1.95185 346.198 1.98298 346.095 2.24671ZM93.1856 3.11241C92.9686 3.16845 92.884 3.33819 92.95 3.58464C93.0577 3.98496 93.2508 4.07213 94.453 4.26255C96.6579 4.61165 96.6678 4.61164 96.8085 4.25451C96.9719 3.84013 96.5939 3.58987 95.2783 3.24157C94.3296 2.9905 93.7864 2.95694 93.1856 3.11241ZM55.3562 3.53423C54.8487 3.63326 53.3824 4.09281 52.2099 4.52044C51.2588 4.86733 51.018 5.4649 51.7393 5.68765C52.0723 5.79069 53.9409 5.26826 55.4594 4.6476C55.6296 4.5781 55.8532 4.54035 55.9562 4.56365C56.2172 4.6229 56.4734 4.17155 56.3527 3.86544C56.2265 3.54506 55.8846 3.43139 55.3562 3.53423ZM316.149 4.37924C314.907 4.94767 314.56 5.2765 314.736 5.72161C314.899 6.13539 315.303 6.05181 316.88 5.27889C317.936 4.76067 318.314 4.47344 318.264 4.22437C318.165 3.72021 317.481 3.77043 316.149 4.37924ZM356.762 4.46523C356.564 4.96858 356.814 5.12445 358.553 5.58141C360.335 6.04942 360.805 6.02431 360.721 5.46531C360.674 5.15659 359.706 4.68215 358.743 4.49676C357.08 4.17618 356.877 4.17297 356.762 4.46523ZM226.19 4.70927C225.883 5.00895 225.884 5.06357 226.203 5.40745C226.394 5.61273 226.63 5.73224 226.729 5.67299C226.827 5.61394 226.908 5.64506 226.908 5.74248C226.908 5.90678 227.788 6.34147 229.621 7.08164C230.283 7.34899 230.389 7.34999 230.492 7.09027C230.716 6.52063 230.359 6.19102 228.543 5.29096C227.536 4.79222 226.67 4.38407 226.618 4.38407C226.566 4.38407 226.374 4.5303 226.19 4.70927ZM183.478 5.22167C182.77 5.45426 181.151 6.12112 180.693 6.36938C180.523 6.46158 180.383 6.70783 180.383 6.91673C180.383 7.21139 180.522 7.28993 181.002 7.26683C181.343 7.25036 181.9 7.12241 182.24 6.98241C182.581 6.84221 182.909 6.72008 182.969 6.71084C183.029 6.7016 183.47 6.52204 183.949 6.31194C184.613 6.02029 184.819 5.81842 184.819 5.45828C184.819 4.93704 184.511 4.88261 183.478 5.22167ZM101.808 6.68813C101.615 7.17683 102.209 7.54702 103.724 7.88246C105.416 8.25707 105.933 8.27855 106.121 7.98208C106.338 7.64062 105.978 7.41567 104.368 6.88519C102.653 6.32037 101.974 6.26813 101.808 6.68813ZM307.577 7.90517C305.616 8.89883 305.256 9.24511 305.724 9.68781C305.991 9.94069 306.186 9.90253 307.267 9.38632C309.547 8.29785 310.353 7.72478 310.189 7.3094C309.998 6.82372 309.476 6.94284 307.577 7.90517ZM44.3629 7.73684C42.3926 8.707 41.9977 8.94201 41.8215 9.24852C41.6358 9.57151 41.9426 9.94391 42.3751 9.92C42.6982 9.90233 44.7912 8.94422 45.0745 8.68451C45.2065 8.56339 45.6012 8.34867 45.9513 8.20746C46.3312 8.05441 46.5878 7.80414 46.5878 7.58701C46.5878 7.06878 45.5816 7.13667 44.3629 7.73684ZM366.28 7.75955C365.941 8.08856 366.271 8.62142 367.109 9.09947C368.267 9.7603 369.471 9.99693 369.471 9.56347C369.471 9.26138 368.846 8.60215 368.559 8.60215C368.472 8.60215 368.108 8.39868 367.75 8.15021C367.115 7.70932 366.499 7.54563 366.28 7.75955ZM235.262 8.20182C235.192 8.3131 235.256 8.43864 235.405 8.48102C235.554 8.5232 236.094 8.69795 236.604 8.86909C238.765 9.59319 239.905 9.70929 239.905 9.20473C239.905 8.99001 239.452 8.82571 237.636 8.38221C235.866 7.94996 235.443 7.91781 235.262 8.20182ZM173.384 9.16055C171.687 9.72778 171.11 10.1992 171.567 10.6441C171.765 10.8369 172.027 10.8199 172.8 10.5634C175.474 9.67535 175.829 9.46062 175.597 8.87149C175.453 8.50612 175.271 8.53004 173.384 9.16055ZM243.837 10.4027C243.364 10.6877 243.812 11.365 244.71 11.7225C246.166 12.302 246.878 12.4087 247.151 12.0885C247.444 11.7442 247.083 11.4258 245.682 10.7951C244.533 10.2779 244.172 10.201 243.837 10.4027ZM33.3849 11.2101C31.6856 11.9818 31.0116 12.4962 31.2361 12.8497C31.4478 13.1832 32.3768 13.0135 33.6459 12.4093C35.408 11.5705 35.9102 11.174 35.7443 10.7532C35.5553 10.2735 35.3665 10.3101 33.3849 11.2101ZM113.279 10.9243C112.889 11.3367 112.965 11.5458 113.589 11.7727C113.901 11.8862 114.342 12.0475 114.569 12.1313C114.796 12.2148 115.028 12.2934 115.085 12.3056C115.141 12.3177 115.637 12.4527 116.187 12.6053C117.034 12.8407 117.213 12.8409 117.362 12.6073C117.622 12.1979 117.251 11.8824 115.956 11.4108C115.321 11.1796 114.707 10.9332 114.591 10.8635C114.191 10.6224 113.537 10.6527 113.279 10.9243ZM299.757 11.03C299.485 11.136 299.048 11.2401 298.786 11.2612C298.087 11.3176 297.378 11.9011 297.532 12.2924C297.603 12.4721 297.812 12.6194 297.997 12.6194C298.662 12.6194 300.557 11.9844 301.019 11.607C301.422 11.2772 301.446 11.1923 301.181 11.0197C300.804 10.7733 300.409 10.7763 299.757 11.03ZM374.217 11.1888C374.217 11.5823 374.624 12.0114 375.083 12.1027C375.231 12.1319 375.63 12.2753 375.97 12.4211C376.311 12.5667 376.636 12.6951 376.693 12.7061C376.749 12.717 376.897 12.7891 377.022 12.8662C377.146 12.9434 377.62 13.0643 378.074 13.1352C378.725 13.2364 378.928 13.1954 379.028 12.9419C379.192 12.526 378.615 12.1608 376.597 11.4046C374.737 10.7072 374.217 10.6602 374.217 11.1888ZM160.577 13.4541C159.783 13.7872 158.874 14.1636 158.557 14.2903C157.837 14.5792 157.857 15.2974 158.588 15.3981C159.079 15.4656 161.417 14.4615 162.283 13.8109C162.711 13.4895 162.723 13.4318 162.423 13.1398C162.243 12.964 162.078 12.8266 162.058 12.8343C162.038 12.8421 161.371 13.1211 160.577 13.4541ZM253.469 13.0663C253.283 13.5397 253.553 13.7422 254.863 14.1116C255.544 14.3036 256.271 14.5484 256.478 14.6557C257.058 14.957 258.23 15.0498 258.384 14.8069C258.592 14.4807 258.101 14.1184 256.664 13.5363C255.003 12.8638 253.629 12.6615 253.469 13.0663ZM24.3057 13.9173C21.2461 14.7099 20.7984 14.8819 20.7984 15.2633C20.7984 15.4732 20.9379 15.697 21.1081 15.7606C21.4041 15.8713 24.0716 15.3248 24.7184 15.0211C24.8886 14.9411 25.2853 14.7583 25.6 14.6149C26.7524 14.0899 25.7421 13.5451 24.3057 13.9173ZM124.781 14.0228C124.062 14.4689 125.016 15.0369 127.622 15.715C128.581 15.9645 128.746 15.9615 129.025 15.6903C129.309 15.4141 129.303 15.3577 128.97 15.1366C128.607 14.8963 125.548 13.8215 125.244 13.8275C125.16 13.8294 124.952 13.9171 124.781 14.0228ZM385.322 14.5633C385.443 14.7822 386.296 15.3382 387.219 15.799C389.31 16.8425 389.983 16.9023 389.747 16.0236C389.61 15.5132 387.404 14.4661 386.108 14.2966C385.153 14.1716 385.114 14.1847 385.322 14.5633ZM287.667 15.1653C285.296 15.7586 284.89 15.9991 285.443 16.4829C285.731 16.7348 285.989 16.7673 286.636 16.6334C288.424 16.2626 289.308 16.0029 289.856 15.6881C290.316 15.4232 290.389 15.2882 290.227 14.9935C289.983 14.5504 290.175 14.5376 287.667 15.1653ZM150.674 15.799C150.447 15.8432 149.774 16.0561 149.178 16.2724C148.377 16.5631 148.095 16.7682 148.095 17.059C148.095 17.7008 148.638 17.7216 150.27 17.1423C151.921 16.5558 152.082 16.4391 151.896 15.9653C151.779 15.668 151.524 15.6333 150.674 15.799ZM280.24 15.7287C280.127 15.7644 279.523 15.942 278.899 16.1234C277.13 16.6378 276.63 16.8648 276.63 17.1532C276.63 17.6666 277.27 17.7984 278.386 17.5143C279.749 17.1681 281.025 16.6543 281.201 16.3811C281.528 15.8745 280.974 15.4983 280.24 15.7287ZM266.151 16.0838C265.746 16.5587 266.252 16.8097 268.57 17.285C270.099 17.5987 270.716 17.6531 270.884 17.4894C271.299 17.0863 270.892 16.6637 269.78 16.3399C268.063 15.84 266.455 15.7265 266.151 16.0838ZM13.2679 16.4544C12.814 16.5293 11.9644 16.6456 11.3797 16.7127C10.0176 16.8694 9.72606 16.9845 9.72606 17.3659C9.72606 17.9078 10.5241 17.9968 12.8045 17.7094C15.3178 17.3924 16.0531 17.1765 16.0531 16.7555C16.0531 16.2305 15.1907 16.1372 13.2679 16.4544ZM405.474 16.5671C404.274 16.921 404.091 17.0503 404.309 17.3934C404.432 17.5862 404.727 17.5969 405.583 17.4388C406.829 17.2088 407.134 17.011 406.952 16.5496C406.805 16.1768 406.796 16.177 405.474 16.5671ZM0.908539 16.6127C0.27969 16.7097 0.0873999 16.8362 0.0329326 17.189C-0.0481493 17.7138 -0.216493 17.6865 2.84894 17.6457C5.26799 17.6134 5.90571 17.4274 5.54507 16.8595C5.34887 16.5504 2.348 16.3907 0.908539 16.6127ZM136.851 16.5902C135.826 16.7443 135.549 16.8533 135.585 17.0879C135.669 17.6262 135.943 17.7845 136.793 17.7859C137.279 17.7867 138.389 17.8506 139.261 17.9281C140.712 18.0573 140.863 18.0356 141.065 17.6694C141.259 17.3161 141.195 17.241 140.516 17.0228C139.667 16.7499 137.494 16.4934 136.851 16.5902ZM394.59 16.5791C394.197 16.6739 394.098 17.3372 394.446 17.5469C394.642 17.6648 396.709 17.8357 398.871 17.9129C399.569 17.9376 399.706 17.8757 399.76 17.5129C399.813 17.1488 399.672 17.051 398.831 16.8678C397.708 16.6233 395.134 16.4482 394.59 16.5791Z" fill="black"/>
</svg>
