<svg width="428" height="73" viewBox="0 0 428 73" fill="none" xmlns="http://www.w3.org/2000/svg">
<path d="M11.1912 17.0336C45.2117 18.3021 66.8869 -2.65365e-06 85.9278 0C107.281 2.97593e-06 126.825 13.4092 148.178 17.0336C172.246 19.5703 197.012 0.477618 216.762 1.26851C243.906 2.35553 267.974 17.0334 281.003 17.0334C295.118 17.0334 304.895 16.4801 317.738 9.42266C332.576 1.26851 333.66 1.0505 342.529 1.26851C346.717 1.37145 356.957 0.891633 370.759 4.71124C386.189 8.9813 405.123 17.569 405.865 17.0336C407.271 16.0192 414.009 17.0336 414.009 17.0336C414.009 17.0336 425.402 14.0352 427.523 13.6107C432.65 32.2751 434.855 71.9758 435 72.1208C435.145 72.2658 141.06 78.1007 -6 81L-0.869997 61.9119L1.31123 17.0336H11.1912Z" fill="#FFFFED"/>
</svg>
