<svg width="92" height="58" viewBox="0 0 92 58" fill="none" xmlns="http://www.w3.org/2000/svg">
<path fill-rule="evenodd" clip-rule="evenodd" d="M70.085 32.8556C69.8737 33.1088 70.0319 33.6193 70.3407 33.6808C70.4979 33.7121 71.4445 33.6493 72.4444 33.5411C73.4443 33.4329 74.6065 33.3276 75.0271 33.3067C75.4476 33.286 75.9377 33.1431 76.1162 32.9891C76.4111 32.7345 76.4072 32.6869 76.0752 32.4658C75.7917 32.2772 75.0936 32.2762 72.9625 32.4612C71.4514 32.5925 70.1564 32.77 70.085 32.8556ZM61.8532 34.5318C61.0384 34.8992 60.7566 35.1207 60.7961 35.3622C60.8844 35.9022 61.2127 35.8885 62.7981 35.2786C64.1948 34.7414 64.8639 34.2379 64.5781 33.9391C64.3679 33.7193 62.9908 34.0188 61.8532 34.5318ZM324.232 1.69202C323.471 1.94404 323.099 2.37198 323.383 2.66938C323.622 2.91921 326.782 2.20203 327.226 1.79708C327.344 1.68938 327.373 1.4937 327.289 1.36209C327.112 1.08602 325.556 1.25396 324.232 1.69202ZM199.38 17.5923C197.708 18.0095 197.016 18.3631 197.082 18.766C197.148 19.1706 197.627 19.1987 198.758 18.8649C199.248 18.7201 199.958 18.5246 200.338 18.4303C200.717 18.3361 201.222 18.1087 201.462 17.9251C201.811 17.6566 201.841 17.5471 201.613 17.3669C201.302 17.1205 201.249 17.1258 199.38 17.5923ZM208.409 16.876C208.1 17.3143 208.741 17.6007 209.997 17.5865C210.603 17.5796 211.732 17.6548 212.506 17.7535C214.306 17.9831 215.044 17.6953 214.087 17.1365C213.527 16.8097 212.192 16.566 210.733 16.524C209.093 16.4769 208.642 16.5451 208.409 16.876ZM329.855 1.76995C329.726 2.26212 330.298 2.49043 331.546 2.44513C332.17 2.42267 333.237 2.38323 333.917 2.35789C335.305 2.30605 335.862 2.03792 335.456 1.61666C335.318 1.47398 335.16 1.36194 335.104 1.36784C335.048 1.37373 334.579 1.36008 334.062 1.33759C333.544 1.31491 332.405 1.33113 331.53 1.37329C330.141 1.44035 329.928 1.49069 329.855 1.76995ZM317.288 3.62704C316.211 4.15552 315.941 4.59993 316.482 4.95373C316.788 5.15367 316.975 5.09012 318.111 4.40208C320.105 3.19428 319.442 2.56981 317.288 3.62704ZM82.0427 33.03C81.6246 33.2125 81.8565 33.6219 82.4803 33.8027C82.8098 33.8983 83.608 33.929 84.2541 33.8711C84.9002 33.8133 85.7018 33.762 86.0352 33.7574C86.719 33.748 87.2192 33.2662 86.8179 33.0037C86.5472 32.8265 86.3247 32.8131 84.4528 32.8612C82.3397 32.9155 82.2981 32.9184 82.0427 33.03ZM187.994 20.2799C186.403 21.0682 185.977 21.4927 186.423 21.8451C186.773 22.122 187.339 21.9328 188.991 20.9871C190.291 20.2428 190.506 19.9045 189.816 19.6872C189.542 19.6011 189.022 19.7703 187.994 20.2799ZM340.401 1.16546C340.264 1.68848 340.937 1.90255 342.51 1.83617C344.319 1.76001 344.77 1.64483 344.792 1.25415C344.811 0.91904 343.789 0.778601 341.738 0.834707C340.694 0.86339 340.465 0.919864 340.401 1.16546ZM91.2841 32.951C91.0783 33.0271 91.0195 33.1874 91.1201 33.3969C91.2841 33.7371 91.487 33.7904 92.6993 33.8111C94.9226 33.8489 94.9324 33.8477 95.0194 33.5151C95.1206 33.1292 94.712 32.9545 93.3651 32.8084C92.3939 32.7031 91.8537 32.7401 91.2841 32.951ZM54.0641 37.9635C53.5783 38.1132 52.1996 38.6988 51.1059 39.2202C50.2187 39.6432 50.0677 40.2003 50.8107 40.3085C51.1537 40.3587 52.9198 39.6682 54.3266 38.9339C54.4843 38.8517 54.6993 38.7909 54.8041 38.7989C55.0698 38.8192 55.2572 38.3892 55.094 38.1338C54.9233 37.8664 54.57 37.8079 54.0641 37.9635ZM311.198 6.72138C310.056 7.37567 309.762 7.7085 309.999 8.07997C310.22 8.42532 310.606 8.30198 312.048 7.42614C313.014 6.83896 313.345 6.53909 313.26 6.32523C313.089 5.89231 312.422 6.02053 311.198 6.72138ZM351.234 1.81584C351.112 2.28459 351.381 2.39155 353.161 2.58171C354.984 2.77637 355.444 2.69653 355.28 2.21329C355.19 1.94642 354.167 1.64633 353.191 1.60069C351.506 1.52163 351.306 1.54365 351.234 1.81584ZM222.591 18.0469C222.331 18.3493 222.34 18.3974 222.705 18.6618C222.922 18.8197 223.173 18.8962 223.261 18.8318C223.349 18.7676 223.433 18.7852 223.447 18.8712C223.471 19.0163 224.402 19.2921 226.315 19.7208C227.006 19.8757 227.111 19.8635 227.174 19.6216C227.313 19.0911 226.913 18.8439 224.993 18.272C223.929 17.9552 223.016 17.701 222.966 17.7073C222.915 17.7137 222.746 17.8664 222.591 18.0469ZM180.572 23.7383C179.908 24.0306 178.409 24.8179 177.993 25.0933C177.839 25.1956 177.737 25.4301 177.767 25.6146C177.81 25.8747 177.958 25.9271 178.428 25.8478C178.761 25.7915 179.291 25.6102 179.607 25.4448C179.922 25.2793 180.227 25.1312 180.285 25.1156C180.344 25.1001 180.752 24.8874 181.194 24.6432C181.806 24.3042 181.98 24.1007 181.928 23.7828C181.853 23.3225 181.541 23.3123 180.572 23.7383ZM100.298 35.0506C100.179 35.5057 100.818 35.7597 102.359 35.8701C104.08 35.9934 104.593 35.9489 104.735 35.6641C104.9 35.336 104.513 35.1814 102.849 34.9106C101.078 34.6222 100.401 34.6595 100.298 35.0506ZM303.259 10.8861C301.47 12.0039 301.166 12.3538 301.69 12.6874C301.99 12.8779 302.178 12.8202 303.168 12.2318C305.258 10.9911 305.969 10.3862 305.748 10.0396C305.489 9.63423 304.992 9.80341 303.259 10.8861ZM43.8372 43.0226C42.0356 44.1209 41.6804 44.3768 41.551 44.6691C41.4147 44.977 41.7708 45.2682 42.1935 45.1941C42.5094 45.1388 44.4337 44.0362 44.6754 43.7721C44.788 43.649 45.146 43.411 45.4706 43.2433C45.8228 43.0616 46.0396 42.8092 46.0082 42.6174C45.9334 42.1599 44.9516 42.3432 43.8372 43.0226ZM361.09 3.55715C360.804 3.88912 361.206 4.31917 362.101 4.6385C363.338 5.07991 364.559 5.14112 364.496 4.7584C364.452 4.49167 363.74 3.98638 363.458 4.02156C363.372 4.03224 362.984 3.89725 362.595 3.72177C361.906 3.41036 361.275 3.34134 361.09 3.55715ZM232.036 20.0179C231.983 20.1248 232.064 20.2278 232.217 20.2469C232.37 20.2659 232.927 20.354 233.455 20.4425C235.689 20.8168 236.83 20.7794 236.757 20.3339C236.726 20.1443 236.255 20.0549 234.401 19.8861C232.595 19.7215 232.173 19.745 232.036 20.0179ZM171.194 28.4542C169.603 29.1632 169.102 29.6503 169.617 29.9871C169.84 30.133 170.096 30.0858 170.82 29.7645C173.328 28.6524 173.646 28.4193 173.332 27.9276C173.138 27.6227 172.962 27.6662 171.194 28.4542ZM240.805 20.9094C240.379 21.2191 240.918 21.7622 241.855 21.9677C243.374 22.3007 244.091 22.3076 244.314 21.9914C244.553 21.6515 244.151 21.4147 242.679 21.0296C241.473 20.7138 241.106 20.6902 240.805 20.9094ZM33.52 47.4359C31.9569 48.3257 31.3669 48.8626 31.6392 49.1472C31.896 49.4156 32.7871 49.1518 33.9504 48.4627C35.5659 47.5059 36.0035 47.0942 35.7792 46.743C35.5237 46.3427 35.343 46.3981 33.52 47.4359ZM112.215 37.3839C111.889 37.7959 111.995 37.9712 112.642 38.095C112.966 38.157 113.424 38.2453 113.66 38.2914C113.896 38.3373 114.136 38.3782 114.193 38.3821C114.251 38.3858 114.76 38.4441 115.323 38.5115C116.192 38.6154 116.369 38.5936 116.481 38.3691C116.678 37.9758 116.267 37.7427 114.923 37.4851C114.264 37.3588 113.623 37.2165 113.499 37.1693C113.069 37.0056 112.429 37.1125 112.215 37.3839ZM296.004 14.6042C295.751 14.7313 295.335 14.8768 295.08 14.9275C294.4 15.063 293.785 15.6652 293.994 15.9918C294.089 16.1418 294.317 16.2462 294.499 16.2235C295.154 16.142 296.931 15.3489 297.331 14.959C297.681 14.6183 297.692 14.5404 297.406 14.4205C296.998 14.2492 296.61 14.3003 296.004 14.6042ZM369.407 5.61148C369.464 5.95891 369.927 6.28781 370.393 6.31212C370.543 6.31974 370.957 6.3974 371.314 6.4844C371.67 6.57122 372.009 6.6447 372.066 6.64749C372.124 6.65011 372.28 6.69561 372.414 6.74848C372.547 6.80132 373.032 6.84998 373.49 6.85681C374.146 6.86635 374.34 6.80526 374.402 6.5692C374.504 6.18179 373.882 5.93022 371.784 5.50996C369.851 5.12234 369.331 5.14469 369.407 5.61148ZM159.192 33.8162C158.458 34.2076 157.616 34.6514 157.323 34.8022C156.655 35.1455 156.778 35.7773 157.513 35.7765C158.006 35.7759 160.165 34.6026 160.925 33.9219C161.301 33.5856 161.304 33.5332 160.966 33.3122C160.763 33.1791 160.581 33.078 160.562 33.0872C160.543 33.0966 159.927 33.4247 159.192 33.8162ZM250.682 22.0797C250.566 22.5207 250.862 22.6663 252.206 22.8317C252.905 22.9177 253.656 23.0448 253.876 23.1141C254.492 23.3089 255.66 23.2471 255.777 23.0138C255.934 22.7004 255.398 22.4406 253.898 22.1029C252.164 21.7128 250.78 21.7028 250.682 22.0797ZM24.9636 50.9399C22.0628 52.015 21.6464 52.2217 21.7015 52.5585C21.7318 52.7438 21.9016 52.9243 22.0785 52.9596C22.3863 53.021 24.9361 52.2113 25.5297 51.8638C25.6858 51.7723 26.0504 51.5623 26.3398 51.397C27.3997 50.7921 26.3254 50.435 24.9636 50.9399ZM123.998 38.7089C123.354 39.1909 124.375 39.5755 127.042 39.8546C128.022 39.9573 128.185 39.9343 128.421 39.6607C128.66 39.382 128.647 39.3329 128.286 39.1785C127.894 39.0109 124.724 38.4371 124.425 38.4798C124.343 38.4917 124.15 38.5947 123.998 38.7089ZM380.839 7.22876C380.989 7.40732 381.911 7.79352 382.887 8.08714C385.098 8.75205 385.771 8.72228 385.411 7.97533C385.202 7.54148 382.876 6.88763 381.575 6.89692C380.616 6.90372 380.579 6.91999 380.839 7.22876ZM284.687 19.7384C282.436 20.5531 282.071 20.8152 282.685 21.1746C283.006 21.3617 283.265 21.3588 283.883 21.1612C285.591 20.6145 286.425 20.2767 286.919 19.9316C287.335 19.6412 287.387 19.5132 287.184 19.2729C286.88 18.9115 287.068 18.8766 284.687 19.7384ZM149.771 37.1012C149.554 37.1681 148.922 37.4386 148.366 37.7027C147.619 38.0576 147.37 38.2733 147.412 38.5301C147.505 39.0967 148.043 39.0485 149.567 38.3369C151.11 37.6165 151.252 37.4937 151 37.0982C150.841 36.8501 150.585 36.8506 149.771 37.1012ZM277.449 21.1469C277.342 21.1924 276.773 21.4232 276.184 21.6599C274.515 22.331 274.055 22.5928 274.096 22.8475C274.171 23.3008 274.82 23.3386 275.88 22.9509C277.173 22.478 278.356 21.8678 278.49 21.6051C278.739 21.1177 278.139 20.8534 277.449 21.1469ZM263.615 23.1886C263.285 23.6575 263.819 23.8172 266.172 23.9525C267.725 24.0419 268.341 24.0142 268.483 23.8491C268.833 23.4423 268.372 23.119 267.229 22.9695C265.465 22.7387 263.863 22.8358 263.615 23.1886ZM14.4522 54.5338C14.0157 54.6557 13.1952 54.8626 12.6287 54.9935C11.309 55.2989 11.0383 55.4363 11.0934 55.7731C11.1717 56.2516 11.971 56.2322 14.1768 55.6987C16.6079 55.1106 17.3014 54.8298 17.2406 54.458C17.1647 53.9945 16.3014 54.0179 14.4522 54.5338ZM400.988 6.52631C399.857 6.98595 399.695 7.12252 399.96 7.39873C400.108 7.55395 400.401 7.52712 401.221 7.28258C402.416 6.92664 402.688 6.71463 402.442 6.32957C402.243 6.01843 402.235 6.01965 400.988 6.52631ZM2.29492 56.1895C1.6892 56.3523 1.51797 56.4877 1.51524 56.8058C1.51114 57.2791 1.3413 57.2757 4.3564 56.8637C6.7357 56.5384 7.33731 56.2959 6.89988 55.8388C6.66187 55.5899 3.68145 55.817 2.29492 56.1895ZM136.263 39.4953C135.275 39.7571 135.018 39.8873 135.088 40.09C135.248 40.555 135.541 40.6612 136.379 40.5582C136.857 40.4993 137.961 40.4195 138.831 40.3811C140.28 40.3171 140.426 40.2793 140.572 39.9314C140.712 39.5956 140.638 39.5371 139.938 39.4277C139.061 39.2909 136.883 39.3309 136.263 39.4953ZM390.264 7.87184C389.89 8.00385 389.888 8.60156 390.262 8.74397C390.472 8.82403 392.533 8.72152 394.676 8.52433C395.367 8.46061 395.493 8.38912 395.493 8.06229C395.493 7.73423 395.34 7.66514 394.485 7.60652C393.343 7.52848 390.781 7.68947 390.264 7.87184Z" fill="black" stroke="black" stroke-width="1.1"/>
</svg>
