<svg width="101" height="19" viewBox="0 0 101 19" fill="none" xmlns="http://www.w3.org/2000/svg">
<path fill-rule="evenodd" clip-rule="evenodd" d="M28.235 17.8865C28.4851 17.6546 28.4112 17.1128 28.1155 17.0107C27.9651 16.9587 27.0182 16.9025 26.0112 16.8859C25.0042 16.8692 23.8371 16.8291 23.4174 16.7969C22.998 16.7646 22.4899 16.8483 22.2883 16.983C21.9553 17.2056 21.9514 17.2548 22.2441 17.523C22.4942 17.7517 23.1848 17.8416 25.3236 17.9235C26.8402 17.9816 28.1505 17.965 28.235 17.8865ZM36.6524 17.2206C37.5182 16.9488 37.8329 16.7583 37.8329 16.5064C37.8329 15.9433 37.5059 15.9155 35.8382 16.3372C34.369 16.7085 33.6254 17.1379 33.8599 17.4797C34.0323 17.731 35.4436 17.6001 36.6524 17.2206ZM-228.308 17.4081C-227.514 17.2474 -227.076 16.8574 -227.31 16.5173C-227.506 16.2316 -230.749 16.5626 -231.254 16.9199C-231.388 17.015 -231.448 17.2114 -231.386 17.3565C-231.256 17.6611 -229.689 17.6874 -228.308 17.4081ZM-102.183 17.0394C-100.462 16.8256 -99.7192 16.5523 -99.7192 16.1321C-99.7192 15.7102 -100.189 15.6206 -101.362 15.8179C-101.87 15.9035 -102.605 16.013 -102.995 16.0611C-103.385 16.1091 -103.923 16.2773 -104.189 16.4345C-104.579 16.6643 -104.626 16.7725 -104.43 16.9856C-104.161 17.277 -104.108 17.2783 -102.183 17.0394ZM-111.234 16.6229C-110.858 16.2142 -111.445 15.8401 -112.691 15.6947C-113.291 15.6248 -114.396 15.4044 -115.146 15.205C-116.891 14.7414 -117.667 14.9417 -116.811 15.6344C-116.31 16.0396 -115.028 16.4585 -113.591 16.6871C-111.975 16.9438 -111.518 16.9314 -111.234 16.6229ZM-233.86 16.6133C-233.652 16.1267 -234.181 15.8207 -235.424 15.7082C-236.045 15.6518 -237.107 15.5564 -237.785 15.4957C-239.166 15.3722 -239.76 15.5754 -239.427 16.0575C-239.314 16.2208 -239.175 16.3555 -239.119 16.3566C-239.063 16.3577 -238.601 16.4313 -238.092 16.5201C-237.584 16.609 -236.454 16.7374 -235.581 16.8056C-234.196 16.9138 -233.977 16.8894 -233.86 16.6133ZM-221.123 16.3139C-219.972 15.9107 -219.633 15.4909 -220.111 15.0606C-220.381 14.8174 -220.577 14.8584 -221.812 15.4171C-223.981 16.3978 -223.426 17.1204 -221.123 16.3139ZM16.4302 16.1874C16.8734 16.054 16.7102 15.6061 16.1222 15.342C15.8116 15.2024 15.0268 15.0695 14.378 15.0465C13.7293 15.0234 12.9277 14.9738 12.597 14.9361C11.9189 14.8588 11.3459 15.2875 11.7005 15.6069C11.9396 15.8223 12.1577 15.8643 14.0179 16.0533C16.1177 16.2665 16.1594 16.2689 16.4302 16.1874ZM-90.4806 15.7409C-88.7787 15.1377 -88.2884 14.758 -88.6725 14.3412C-88.9743 14.0136 -89.5656 14.135 -91.3531 14.8914C-92.7601 15.4867 -93.0272 15.8051 -92.3797 16.1149C-92.123 16.2377 -91.5804 16.131 -90.4806 15.7409ZM-244.394 15.8896C-244.174 15.3726 -244.805 15.0682 -246.372 14.9359C-248.174 14.7837 -248.64 14.844 -248.724 15.2405C-248.797 15.5806 -247.809 15.8541 -245.771 16.0575C-244.732 16.1611 -244.497 16.1324 -244.394 15.8896ZM7.27229 15.0926C7.48827 15.041 7.57246 14.8847 7.50677 14.6578C7.3996 14.2892 7.20743 14.2089 6.01114 14.0336C3.81708 13.7122 3.80723 13.7122 3.66721 14.041C3.50462 14.4225 3.88072 14.653 5.18993 14.9736C6.13391 15.2048 6.67445 15.2357 7.27229 15.0926ZM44.9158 14.7042C45.4208 14.613 46.8799 14.1899 48.0466 13.7962C48.9931 13.4768 49.2327 12.9266 48.5149 12.7215C48.1836 12.6267 46.3242 13.1077 44.8131 13.6791C44.6438 13.7431 44.4212 13.7779 44.3188 13.7564C44.0591 13.7018 43.8041 14.1174 43.9242 14.3993C44.0498 14.6942 44.39 14.7989 44.9158 14.7042ZM-214.596 13.9262C-213.359 13.4028 -213.015 13.1001 -213.189 12.6903C-213.352 12.3093 -213.754 12.3862 -215.323 13.0979C-216.374 13.575 -216.749 13.8395 -216.7 14.0688C-216.601 14.533 -215.921 14.4867 -214.596 13.9262ZM-255.009 13.847C-254.812 13.3836 -255.06 13.2401 -256.791 12.8193C-258.564 12.3884 -259.032 12.4116 -258.948 12.9262C-258.902 13.2105 -257.938 13.6473 -256.98 13.818C-255.325 14.1131 -255.124 14.1161 -255.009 13.847ZM-125.079 13.6223C-124.773 13.3464 -124.774 13.2961 -125.092 12.9795C-125.281 12.7905 -125.517 12.6805 -125.615 12.735C-125.712 12.7894 -125.792 12.7607 -125.792 12.671C-125.792 12.5198 -126.669 12.1195 -128.493 11.4381C-129.151 11.1919 -129.257 11.191 -129.359 11.4301C-129.582 11.9546 -129.227 12.2581 -127.42 13.0868C-126.417 13.546 -125.556 13.9217 -125.504 13.9217C-125.453 13.9217 -125.262 13.7871 -125.079 13.6223ZM-82.5765 13.1506C-81.8715 12.9364 -80.2613 12.3224 -79.8049 12.0938C-79.6356 12.009 -79.497 11.7822 -79.497 11.5899C-79.497 11.3186 -79.6349 11.2463 -80.1129 11.2676C-80.4516 11.2827 -81.006 11.4005 -81.3447 11.5294C-81.6834 11.6585 -82.0099 11.771 -82.0698 11.7795C-82.13 11.788 -82.5689 11.9533 -83.045 12.1467C-83.7061 12.4153 -83.911 12.6011 -83.911 12.9327C-83.911 13.4126 -83.604 13.4627 -82.5765 13.1506ZM-1.30767 11.8004C-1.11612 11.3504 -1.70718 11.0096 -3.2143 10.7007C-4.89757 10.3558 -5.41224 10.3361 -5.59947 10.609C-5.81525 10.9234 -5.45763 11.1305 -3.85484 11.6189C-2.14858 12.139 -1.47253 12.1871 -1.30767 11.8004ZM-206.065 10.6798C-204.114 9.76497 -203.756 9.44614 -204.221 9.03855C-204.487 8.80571 -204.682 8.84085 -205.757 9.31613C-208.026 10.3183 -208.828 10.8459 -208.665 11.2284C-208.475 11.6755 -207.955 11.5659 -206.065 10.6798ZM55.8551 10.8348C57.8157 9.94158 58.2087 9.72521 58.384 9.443C58.5688 9.14563 58.2635 8.80275 57.8332 8.82476C57.5117 8.84104 55.4289 9.72317 55.147 9.96229C55.0156 10.0738 54.6229 10.2715 54.2745 10.4015C53.8965 10.5424 53.6411 10.7729 53.6411 10.9728C53.6411 11.4499 54.6424 11.3874 55.8551 10.8348ZM-264.48 10.8139C-264.143 10.511 -264.471 10.0204 -265.305 9.58023C-266.458 8.9718 -267.656 8.75394 -267.656 9.15302C-267.656 9.43117 -267.033 10.0381 -266.748 10.0381C-266.661 10.0381 -266.299 10.2255 -265.942 10.4542C-265.311 10.8602 -264.698 11.0109 -264.48 10.8139ZM-134.106 10.4067C-134.036 10.3043 -134.1 10.1887 -134.248 10.1496C-134.396 10.1108 -134.934 9.94991 -135.442 9.79235C-137.592 9.12566 -138.727 9.01876 -138.727 9.48332C-138.727 9.68101 -138.275 9.83228 -136.468 10.2406C-134.707 10.6386 -134.286 10.6682 -134.106 10.4067ZM-72.5323 9.524C-70.8435 9.00175 -70.2689 8.56771 -70.7236 8.15808C-70.9207 7.98054 -71.1821 7.99626 -71.9507 8.23242C-74.612 9.05001 -74.9652 9.24772 -74.734 9.79014C-74.5909 10.1265 -74.4094 10.1045 -72.5323 9.524ZM-142.639 8.38037C-142.168 8.11795 -142.613 7.49434 -143.508 7.16516C-144.956 6.63163 -145.665 6.53342 -145.936 6.82821C-146.228 7.14518 -145.869 7.43832 -144.475 8.01902C-143.332 8.49522 -142.973 8.56605 -142.639 8.38037ZM66.7792 7.63693C68.4701 6.92642 69.1408 6.45281 68.9174 6.12732C68.7068 5.82033 67.7823 5.9766 66.5195 6.53288C64.766 7.30517 64.2663 7.67023 64.4314 8.05766C64.6194 8.49929 64.8073 8.46562 66.7792 7.63693ZM-12.7226 7.90009C-12.3338 7.52042 -12.4097 7.3279 -13.0306 7.11893C-13.3412 7.01444 -13.7799 6.86595 -14.0058 6.78884C-14.2316 6.7119 -14.4626 6.63959 -14.519 6.62831C-14.5755 6.61721 -15.0692 6.49292 -15.6161 6.35237C-16.4589 6.13563 -16.6373 6.13546 -16.7849 6.35054C-17.0436 6.72744 -16.6747 7.01795 -15.3862 7.45218C-14.7547 7.66504 -14.1435 7.89195 -14.0279 7.95612C-13.6294 8.17804 -12.9786 8.15012 -12.7226 7.90009ZM-198.284 7.80281C-198.013 7.70517 -197.578 7.60937 -197.318 7.58996C-196.622 7.53799 -195.916 7.00077 -196.07 6.64052C-196.14 6.475 -196.349 6.33944 -196.532 6.33944C-197.194 6.33944 -199.08 6.92402 -199.54 7.27151C-199.941 7.57517 -199.964 7.65339 -199.701 7.81225C-199.325 8.03917 -198.933 8.03639 -198.284 7.80281ZM-272.378 7.65653C-272.378 7.29424 -272.783 6.89924 -273.24 6.81509C-273.387 6.78828 -273.784 6.65624 -274.123 6.52198C-274.462 6.3879 -274.785 6.26971 -274.841 6.25954C-274.898 6.24956 -275.045 6.18317 -275.169 6.11215C-275.293 6.04114 -275.764 5.92981 -276.217 5.86453C-276.864 5.77132 -277.066 5.80905 -277.166 6.04244C-277.329 6.42544 -276.754 6.76164 -274.747 7.45791C-272.896 8.10001 -272.378 8.14328 -272.378 7.65653ZM-59.788 5.57085C-58.9976 5.26423 -58.0933 4.91767 -57.7783 4.80097C-57.0618 4.53504 -57.0815 3.87371 -57.8087 3.78106C-58.2971 3.71892 -60.6234 4.6434 -61.4857 5.2424C-61.9117 5.5383 -61.9236 5.59139 -61.6251 5.86028C-61.4454 6.0221 -61.282 6.14859 -61.2619 6.14157C-61.2415 6.13435 -60.5784 5.87747 -59.788 5.57085ZM-152.224 5.92796C-152.038 5.49207 -152.307 5.30566 -153.611 4.96557C-154.288 4.78877 -155.011 4.56334 -155.217 4.46458C-155.795 4.18718 -156.961 4.10173 -157.115 4.32532C-157.321 4.62565 -156.832 4.95928 -155.403 5.49522C-153.75 6.11438 -152.383 6.3006 -152.224 5.92796ZM75.8137 5.14438C78.8583 4.41463 79.3038 4.25634 79.3038 3.90515C79.3038 3.7119 79.165 3.50587 78.9957 3.44724C78.7011 3.34534 76.0467 3.84855 75.4031 4.12817C75.2337 4.20177 74.8389 4.37006 74.5258 4.5021C73.379 4.98552 74.3844 5.48707 75.8137 5.14438ZM-24.1682 5.04729C-23.4527 4.63655 -24.4014 4.11357 -26.995 3.48923C-27.9488 3.25954 -28.1137 3.26233 -28.3908 3.51199C-28.6731 3.76627 -28.6676 3.81823 -28.3358 4.02184C-27.9753 4.24302 -24.9309 5.2326 -24.6283 5.22705C-24.5447 5.22539 -24.3376 5.14456 -24.1682 5.04729ZM-283.429 4.54965C-283.548 4.34807 -284.398 3.83617 -285.316 3.41193C-287.397 2.4512 -288.067 2.39608 -287.832 3.20517C-287.696 3.67509 -285.5 4.63915 -284.21 4.79524C-283.26 4.91027 -283.222 4.89825 -283.429 4.54965ZM-186.254 3.99539C-183.895 3.44909 -183.49 3.22773 -184.04 2.78223C-184.327 2.55032 -184.584 2.52036 -185.227 2.64371C-187.006 2.9851 -187.887 3.22423 -188.431 3.51402C-188.89 3.75795 -188.962 3.88222 -188.8 4.15352C-188.558 4.56149 -188.749 4.57331 -186.254 3.99539ZM-49.9335 3.41193C-49.7077 3.37125 -49.038 3.17521 -48.4451 2.97603C-47.6483 2.70843 -47.3673 2.51961 -47.3673 2.25183C-47.3673 1.66096 -47.9078 1.64174 -49.5314 2.1751C-51.1746 2.7151 -51.3351 2.82255 -51.1493 3.25881C-51.0327 3.53251 -50.7796 3.5645 -49.9335 3.41193ZM-178.863 3.47666C-178.75 3.44374 -178.15 3.28026 -177.529 3.11327C-175.768 2.63965 -175.27 2.43066 -175.27 2.1651C-175.27 1.6924 -175.907 1.57109 -177.018 1.83259C-178.374 2.15141 -179.644 2.62447 -179.819 2.87598C-180.144 3.34239 -179.593 3.68878 -178.863 3.47666ZM-164.843 3.14968C-164.44 2.7125 -164.943 2.48133 -167.25 2.04378C-168.772 1.75491 -169.386 1.7048 -169.553 1.85552C-169.965 2.22669 -169.561 2.61579 -168.455 2.91391C-166.746 3.37421 -165.146 3.47868 -164.843 3.14968ZM86.7973 2.80848C87.249 2.7395 88.0944 2.63242 88.6762 2.57065C90.0316 2.42641 90.3217 2.32045 90.3217 1.96926C90.3217 1.4703 89.5276 1.38839 87.2584 1.65303C84.7574 1.94485 84.0258 2.14364 84.0258 2.53126C84.0258 3.01468 84.8839 3.10049 86.7973 2.80848ZM-303.481 2.70473C-302.287 2.37887 -302.106 2.2598 -302.322 1.94393C-302.444 1.76639 -302.738 1.75657 -303.59 1.90212C-304.83 2.11387 -305.133 2.29603 -304.952 2.72082C-304.806 3.06406 -304.797 3.06387 -303.481 2.70473ZM99.0959 2.66276C99.7217 2.57344 99.913 2.45693 99.9672 2.13218C100.048 1.64895 100.215 1.67409 97.1651 1.71163C94.7579 1.74141 94.1233 1.91267 94.4822 2.43548C94.6774 2.72009 97.6635 2.86711 99.0959 2.66276ZM-36.1783 2.68346C-35.1586 2.54162 -34.8827 2.44122 -34.919 2.22521C-35.0026 1.72959 -35.275 1.58384 -36.121 1.58255C-36.6041 1.58181 -37.7091 1.523 -38.5763 1.45161C-40.0206 1.3327 -40.1712 1.35269 -40.3714 1.68982C-40.5648 2.01512 -40.5014 2.08429 -39.8259 2.28513C-38.9803 2.53645 -36.8187 2.7726 -36.1783 2.68346ZM-292.651 2.69364C-292.259 2.60635 -292.161 1.9957 -292.508 1.80263C-292.703 1.69407 -294.759 1.53669 -296.911 1.46568C-297.605 1.44293 -297.742 1.49988 -297.795 1.83387C-297.848 2.16916 -297.708 2.25923 -296.871 2.42789C-295.753 2.65296 -293.193 2.81422 -292.651 2.69364Z" fill="black" stroke="black" stroke-width="1.1"/>
</svg>
