<svg width="451" height="400" viewBox="0 0 451 400" fill="none" xmlns="http://www.w3.org/2000/svg">
<path d="M38.5 309.415C52.1562 334.324 72.7291 367.189 72.7291 371.686H88.2475L100.145 385.178H115.663L126.009 394H158.598H180.841H222.223C227.396 394 256.652 399.5 303 399.5C326.795 397.943 319.989 394 337.059 371.686C337.059 361.308 354.5 368.379 354.5 358C354.5 349.697 359.302 347.47 364.475 350.929C373.097 349.718 398.202 339.72 429.653 309.415C440.826 295.3 440.171 294.539 438.446 295.923C438.446 286.236 440.879 276.266 447.5 258C454.121 239.734 443.964 223.965 438.446 225.349C438.446 213.933 447.5 178.454 447.5 166C447.5 150.432 446.723 156.332 438.446 137.651C430.17 118.969 443.5 119.257 443.5 98.5C443.5 81.8944 438.446 82.9903 438.446 84.2012C433.791 77.2821 416.035 56.6423 409 50C400.206 41.6972 395.159 35.6245 345.5 18.5C331.533 14.8675 295.677 1.6919 271.882 1.6919H222.223C193.255 1.6919 199.98 0.135123 180.841 1.6919C161.701 3.24868 126.225 24.254 119.5 31C114.12 36.3968 88.2475 64.136 72.7291 72.2658L1 137.651C1 161.694 0.999997 204.5 6 240.917C8.11758 256.34 21.4298 278.28 38.5 309.415Z" fill="#F2CED0" stroke="black"/>
</svg>
