<svg width="94" height="117" viewBox="0 0 94 117" fill="none" xmlns="http://www.w3.org/2000/svg">
<path d="M92.3023 25.0137H92.4869V1H92.3023C83.4503 1.0003 74.7179 3.04675 66.786 6.97981C58.8541 10.9129 51.9371 16.6263 46.5742 23.6745C41.2279 16.646 34.3357 10.9446 26.4322 7.01232C18.5287 3.08009 9.82627 1.02279 1 1V25.0137C9.77466 25.2018 18.1266 28.8223 24.2659 35.0994C30.4051 41.3766 33.8431 49.8108 33.8431 58.5945C33.8431 67.3782 30.4051 75.8124 24.2659 82.0895C18.1266 88.3666 9.77466 91.9872 1 92.1752V116.189C9.83012 116.161 18.535 114.096 26.4388 110.156C34.3426 106.216 41.2327 100.505 46.5742 93.4683C51.9387 100.519 58.8582 106.233 66.7929 110.166C74.7276 114.1 83.463 116.145 92.3177 116.143H92.5022V92.1752H92.3177C87.8509 92.2709 83.4099 91.4731 79.2553 89.8285C75.1006 88.1839 71.3159 85.7257 68.123 82.5979C64.9301 79.4702 62.3934 75.7359 60.6616 71.6141C58.9297 67.4923 58.0377 63.0659 58.0377 58.5945C58.0377 54.1231 58.9297 49.6967 60.6616 45.5748C62.3934 41.453 64.9301 37.7187 68.123 34.591C71.3159 31.4633 75.1006 29.005 79.2553 27.3604C83.4099 25.7158 87.8509 24.918 92.3177 25.0137H92.3023Z" fill="black" stroke="black" stroke-miterlimit="10"/>
</svg>
