<svg width="64" height="71" viewBox="0 0 64 71" fill="none" xmlns="http://www.w3.org/2000/svg">
<path d="M63.344 15.3025H63.47V1H63.344C57.2995 1.00018 51.3368 2.21904 45.9207 4.56157C40.5045 6.90409 35.7814 10.307 32.1195 14.5049C28.4689 10.3187 23.7626 6.92296 18.3659 4.58093C12.9691 2.2389 7.02684 1.01357 1 1V15.3025C6.9916 15.4145 12.6946 17.5709 16.8866 21.3096C21.0787 25.0482 23.4263 30.0716 23.4263 35.3032C23.4263 40.5347 21.0787 45.5581 16.8866 49.2968C12.6946 53.0354 6.9916 55.1918 1 55.3038V69.6064C7.02947 69.5896 12.9734 68.36 18.3704 66.0131C23.7673 63.6662 28.4721 60.2652 32.1195 56.0739C35.7825 60.2731 40.5073 63.6767 45.9254 66.0193C51.3434 68.3619 57.3082 69.5801 63.3545 69.5789H63.4805V55.3038H63.3545C60.3044 55.3608 57.272 54.8856 54.4351 53.9061C51.5981 52.9266 49.0138 51.4625 46.8336 49.5996C44.6534 47.7367 42.9213 45.5126 41.7387 43.0577C40.5562 40.6027 39.947 37.9663 39.947 35.3032C39.947 32.64 40.5562 30.0037 41.7387 27.5487C42.9213 25.0937 44.6534 22.8696 46.8336 21.0067C49.0138 19.1439 51.5981 17.6797 54.4351 16.7002C57.272 15.7207 60.3044 15.2455 63.3545 15.3025H63.344Z" fill="black" stroke="black" stroke-miterlimit="10"/>
</svg>
