<svg width="309" height="274" viewBox="0 0 309 274" fill="none" xmlns="http://www.w3.org/2000/svg">
<path d="M26.6594 211.512C36.0036 228.513 50.0806 250.946 50.0806 254.015H60.6991L68.8399 263.225H79.4584L86.5374 269.246H108.836H124.056H152.372C155.911 269.246 175.93 273 207.643 273C223.925 271.937 219.268 269.246 230.949 254.015C230.949 246.931 242.882 251.758 242.882 244.674C242.882 239.007 246.168 237.486 249.708 239.847C255.607 239.021 272.785 232.197 294.305 211.512C301.951 201.878 301.502 201.358 300.323 202.303C300.323 195.691 301.987 188.886 306.518 176.418C311.048 163.95 304.098 153.187 300.323 154.132C300.323 146.339 306.518 122.123 306.518 113.622C306.518 102.996 305.986 107.023 300.323 94.2721C294.659 81.521 303.781 81.7175 303.781 67.5496C303.781 56.2152 300.323 56.9633 300.323 57.7897C297.137 53.0671 284.988 38.9792 280.174 34.4454C274.157 28.7783 270.703 24.6333 236.724 12.9448C227.167 10.4654 202.633 1.47226 186.351 1.47226H152.372C132.551 1.47226 137.152 0.40967 124.056 1.47226C110.96 2.53486 86.6849 16.8722 82.0836 21.4768C78.4025 25.1604 60.6991 44.0941 50.0806 49.6432L1 94.2721C1 110.683 0.999998 139.901 4.42125 164.758C5.8702 175.285 14.9791 190.26 26.6594 211.512Z" fill="#F2CED0" stroke="black"/>
</svg>
