<svg width="65" height="71" viewBox="0 0 65 71" fill="none" xmlns="http://www.w3.org/2000/svg">
<path d="M63.6735 15.2088H63.7786V0.906297H63.6525C57.6063 0.905061 51.6415 2.12325 46.2235 4.46583C40.8054 6.80841 36.0806 10.212 32.4176 14.4112C28.7685 10.2303 24.067 6.83785 18.6764 4.49614C13.2859 2.15443 7.35068 0.926169 1.32959 0.906297V15.2088C7.32119 15.3208 13.0242 17.4772 17.2162 21.2159C21.4083 24.9545 23.7559 29.9779 23.7559 35.2095C23.7559 40.441 21.4083 45.4644 17.2162 49.2031C13.0242 52.9417 7.32119 55.0981 1.32959 55.2101V69.5127C7.35423 69.4956 13.2936 68.2687 18.688 65.9269C24.0825 63.585 28.7874 60.1911 32.4386 56.0077C36.1016 60.2069 40.8264 63.6105 46.2445 65.9531C51.6625 68.2957 57.6273 69.5139 63.6735 69.5127H63.7786V55.2101H63.6525C60.6025 55.2671 57.57 54.7919 54.7331 53.8124C51.8962 52.8329 49.3119 51.3688 47.1317 49.5059C44.9515 47.643 43.2193 45.4189 42.0368 42.9639C40.8542 40.509 40.2451 37.8726 40.2451 35.2095C40.2451 32.5463 40.8542 29.91 42.0368 27.455C43.2193 25 44.9515 22.7759 47.1317 20.913C49.3119 19.0502 51.8962 17.586 54.7331 16.6065C57.57 15.627 60.6025 15.1518 63.6525 15.2088H63.6735Z" fill="#FFD102" stroke="black" stroke-miterlimit="10"/>
</svg>
