<svg width="64" height="64" viewBox="0 0 64 64" fill="none" xmlns="http://www.w3.org/2000/svg">
<path d="M38.4566 15.0059H25.8671C24.5389 15.0048 23.2235 15.2696 21.9961 15.7852C20.7687 16.3008 19.6533 17.0571 18.7137 18.0108C17.7742 18.9645 17.0288 20.097 16.5203 21.3435C16.0117 22.59 15.75 23.9261 15.75 25.2754V38.0647C15.7522 40.7891 16.819 43.4012 18.7161 45.3269C20.6132 47.2525 23.1853 48.3342 25.8671 48.3342H38.4566C41.1385 48.3342 43.7106 47.2525 45.6077 45.3269C47.5048 43.4012 48.5716 40.7891 48.5738 38.0647V25.2671C48.5727 23.9185 48.3102 22.5833 47.8011 21.3378C47.2921 20.0922 46.5466 18.9607 45.6072 18.0079C44.6677 17.055 43.5527 16.2995 42.3258 15.7844C41.0989 15.2693 39.7842 15.0048 38.4566 15.0059ZM45.4183 36.842C45.4183 39.0332 44.5614 41.1346 43.0362 42.684C41.5111 44.2334 39.4424 45.1038 37.2855 45.1038H27.0708C24.9138 45.1038 22.8452 44.2334 21.3201 42.684C19.7949 41.1346 18.938 39.0332 18.938 36.842V26.4899C18.938 24.2987 19.7949 22.1972 21.3201 20.6478C22.8452 19.0984 24.9138 18.228 27.0708 18.228H37.253C39.4099 18.228 41.4785 19.0984 43.0037 20.6478C44.5289 22.1972 45.3857 24.2987 45.3857 26.4899L45.4183 36.842Z" fill="black"/>
<path d="M32.6012 22.9375C30.8913 22.9375 29.2199 23.4526 27.7982 24.4176C26.3765 25.3826 25.2685 26.7542 24.6141 28.359C23.9598 29.9638 23.7886 31.7296 24.1222 33.4332C24.4557 35.1368 25.2791 36.7017 26.4881 37.9299C27.6972 39.1582 29.2376 39.9946 30.9146 40.3335C32.5916 40.6723 34.3298 40.4984 35.9095 39.8337C37.4892 39.169 38.8394 38.0433 39.7893 36.5991C40.7392 35.1548 41.2463 33.4568 41.2463 31.7199C41.2463 30.5665 41.0227 29.4245 40.5882 28.359C40.1538 27.2935 39.5169 26.3253 38.7142 25.5098C37.9114 24.6943 36.9584 24.0474 35.9095 23.606C34.8606 23.1647 33.7365 22.9375 32.6012 22.9375ZM32.6012 36.9827C31.5717 36.9827 30.5654 36.6726 29.7095 36.0915C28.8535 35.5105 28.1864 34.6847 27.7924 33.7186C27.3985 32.7524 27.2954 31.6892 27.4962 30.6635C27.6971 29.6378 28.1928 28.6957 28.9207 27.9562C29.6486 27.2167 30.5761 26.7131 31.5857 26.5091C32.5954 26.3051 33.6419 26.4098 34.593 26.81C35.5441 27.2102 36.357 27.8879 36.9289 28.7574C37.5009 29.627 37.8061 30.6493 37.8061 31.6951C37.8082 32.3912 37.6753 33.081 37.4148 33.7249C37.1542 34.3688 36.7713 34.9542 36.2879 35.4476C35.8044 35.941 35.23 36.3327 34.5974 36.6004C33.9648 36.868 33.2864 37.0064 32.6012 37.0075V36.9827Z" fill="black"/>
<path d="M40.6444 20.5661C40.2075 20.5611 39.779 20.6883 39.4133 20.9313C39.0477 21.1743 38.7614 21.5222 38.5909 21.9309C38.4203 22.3396 38.3732 22.7905 38.4554 23.2264C38.5377 23.6624 38.7456 24.0636 39.0529 24.3792C39.3601 24.6948 39.7528 24.9106 40.181 24.999C40.6091 25.0874 41.0535 25.0445 41.4577 24.8758C41.8618 24.7071 42.2075 24.4202 42.4507 24.0515C42.694 23.6827 42.8239 23.2489 42.824 22.805C42.824 22.2155 42.5951 21.6497 42.1871 21.2305C41.779 20.8113 41.2247 20.5726 40.6444 20.5661Z" fill="black"/>
<path d="M53.3231 51.2343C52.5098 51.4904 51.9974 52.4571 51.5989 53.2006C51.2004 53.9442 50.5254 54.663 50.5254 55.4892C50.5253 55.5512 50.5395 55.6124 50.5669 55.6678C50.5943 55.7233 50.6341 55.7714 50.6832 55.8084C50.7322 55.8453 50.7891 55.8701 50.8493 55.8807C50.9094 55.8912 50.9712 55.8873 51.0296 55.8692C51.786 55.6544 52.3471 54.7621 52.892 54.2168C53.4369 53.6715 54.299 52.8949 54.3153 52.0027C54.3099 51.8819 54.2785 51.7639 54.2233 51.6568C54.1681 51.5497 54.0905 51.4563 53.9959 51.383C53.9012 51.3097 53.792 51.2584 53.6757 51.2328C53.5595 51.2071 53.4391 51.2076 53.3231 51.2343Z" fill="black"/>
<path d="M62.4483 33.8761C66.1405 18.7239 50.729 3.43941 36.7 0.704731C29.0052 -0.845846 21.0182 0.684552 14.4081 4.97611C8.75584 8.71048 2.98159 15.353 2.27404 22.3673C2.25769 22.5046 2.2925 22.6431 2.37163 22.7556C-2.07698 34.3223 2.77015 48.9292 12.5213 56.2823C22.2725 63.6353 38.0907 66.1304 48.3786 58.513C48.5695 58.398 48.7076 58.2106 48.7625 57.9921C48.8174 57.7737 48.7846 57.542 48.6714 57.3481C48.5581 57.1542 48.3737 57.0139 48.1587 56.9581C47.9436 56.9023 47.7155 56.9356 47.5247 57.0506L46.4105 57.5794C46.3051 57.4019 46.138 57.2711 45.9421 57.2129C45.7463 57.1548 45.5361 57.1735 45.3532 57.2655C38.5054 60.5702 28.9983 58.9178 22.2237 56.4393C22.0583 56.3972 21.8836 56.4165 21.7309 56.4936C21.5783 56.5708 21.4578 56.7008 21.3911 56.8601C21.3244 57.0195 21.316 57.1979 21.3672 57.3631C21.4184 57.5282 21.5261 57.6694 21.6707 57.7612C25.2799 59.5435 29.2037 60.5744 33.211 60.7933C34.8876 60.8801 36.5683 60.8304 38.237 60.6446C35.6203 61.3418 32.9051 61.5766 30.21 61.3386C24.5897 60.7408 19.2125 58.6963 14.587 55.3983C8.99983 51.6061 5.18557 46.9794 3.3801 40.3699C1.75546 34.6778 1.78371 28.6301 3.46143 22.9539C3.54242 22.8992 3.60934 22.8255 3.65661 22.7391L4.54307 21.0207C2.82883 25.5433 2.32922 30.4477 3.09545 35.2311C4.55121 44.22 9.54472 50.1685 16.9211 55.0595C17.8076 55.6461 18.6859 54.1342 17.7344 53.6385C11.2282 50.1272 6.0395 42.138 4.94158 34.8345C3.73794 26.7709 6.62506 19.203 11.3421 12.7836C11.7487 12.2383 10.8948 11.6352 10.4312 12.0731C9.66527 12.812 8.94804 13.6013 8.28414 14.4359C9.3703 12.7588 10.624 11.2001 12.0252 9.78452C11.6999 10.3546 12.2285 11.2138 12.8954 10.7759C14.6114 9.66059 16.2705 8.47088 18.0516 7.4712C19.3203 6.75242 20.6703 6.16582 21.9716 5.50487C22.2133 5.57579 22.4699 5.57579 22.7116 5.50487C32.1619 3.02631 41.5715 4.11688 48.9316 11.1312C48.9875 11.1869 49.0549 11.2292 49.1289 11.2552C49.2029 11.2812 49.2816 11.2902 49.3595 11.2815C49.4373 11.2728 49.5122 11.2466 49.5789 11.2049C49.6455 11.1632 49.7022 11.107 49.7449 11.0403C49.7208 11.1296 49.7176 11.2234 49.7355 11.3142C49.7534 11.405 49.7919 11.4903 49.848 11.5634C49.9041 11.6364 49.9761 11.6951 50.0585 11.7348C50.1408 11.7745 50.2312 11.7942 50.3223 11.7922C50.473 11.7745 50.612 11.7012 50.713 11.5862C50.8139 11.4712 50.8696 11.3225 50.8696 11.1684C50.8696 11.0143 50.8139 10.8656 50.713 10.7506C50.612 10.6356 50.473 10.5623 50.3223 10.5446C50.2283 10.5418 50.1351 10.563 50.0512 10.6063C49.9674 10.6496 49.8956 10.7136 49.8425 10.7925C49.8523 10.7142 49.8442 10.6348 49.8188 10.5603C49.7934 10.4857 49.7514 10.4182 49.6961 10.3629C47.1484 7.67093 44.1101 5.50754 40.7501 3.99295C50.7127 7.69427 58.9837 16.7493 60.1792 27.2088C59.427 23.8043 58.0262 20.5822 56.0559 17.7242C55.9632 17.5609 55.8104 17.4418 55.6312 17.393C55.452 17.3442 55.261 17.3697 55.1003 17.4639C54.9396 17.5581 54.8224 17.7134 54.7743 17.8954C54.7263 18.0775 54.7514 18.2714 54.8441 18.4347C57.4487 23.3728 58.8592 28.8696 58.9593 34.471C59.1464 40.3617 56.8936 45.3766 53.8194 50.2346C53.5022 50.7221 54.226 51.3252 54.6327 50.9203C54.7307 50.9762 54.8438 50.9983 54.9552 50.9834C55.0667 50.9685 55.1703 50.9174 55.2508 50.8377C59.6912 46.6242 62.9443 40.3038 62.5133 33.9918C62.4873 33.9559 62.4655 33.9171 62.4483 33.8761Z" fill="black"/>
<path d="M19.2389 55.8116C19.1995 55.9172 19.1818 56.0298 19.1869 56.1426C19.192 56.2553 19.2198 56.3658 19.2686 56.4672C19.3173 56.5686 19.3861 56.6588 19.4705 56.7322C19.5549 56.8056 19.6532 56.8606 19.7594 56.8939C20.0803 57.0202 20.4126 57.1143 20.7515 57.1749C21.3534 57.2492 21.5648 56.4148 21.2151 56.043C20.9663 55.8078 20.6937 55.6001 20.4018 55.4233C20.3021 55.3633 20.1908 55.3257 20.0756 55.313C19.9603 55.3002 19.8437 55.3126 19.7336 55.3494C19.6235 55.3862 19.5224 55.4465 19.437 55.5262C19.3517 55.6059 19.2841 55.7032 19.2389 55.8116Z" fill="black"/>
</svg>
