<svg width="21" height="22" viewBox="0 0 21 22" fill="none" xmlns="http://www.w3.org/2000/svg">
<path d="M12.5222 5.89502H8.35268C7.91278 5.89466 7.47713 5.98176 7.07061 6.15132C6.6641 6.32089 6.2947 6.5696 5.98352 6.88325C5.67234 7.1969 5.42549 7.56933 5.25706 7.97926C5.08864 8.38919 5.00195 8.82859 5.00195 9.27233V13.4783C5.00267 14.3743 5.356 15.2333 5.98431 15.8666C6.61262 16.4999 7.46448 16.8557 8.35268 16.8557H12.5222C13.4104 16.8557 14.2623 16.4999 14.8906 15.8666C15.5189 15.2333 15.8723 14.3743 15.873 13.4783V9.26961C15.8726 8.8261 15.7857 8.387 15.6171 7.97738C15.4485 7.56776 15.2016 7.19565 14.8904 6.88229C14.5793 6.56893 14.21 6.32046 13.8037 6.15106C13.3973 5.98167 12.9619 5.89466 12.5222 5.89502ZM14.8279 13.0762C14.8279 13.7968 14.5441 14.4879 14.039 14.9975C13.5338 15.507 12.8487 15.7933 12.1344 15.7933H8.75132C8.03696 15.7933 7.35185 15.507 6.84672 14.9975C6.34159 14.4879 6.05781 13.7968 6.05781 13.0762V9.67174C6.05781 8.95113 6.34159 8.26003 6.84672 7.75049C7.35185 7.24094 8.03696 6.95468 8.75132 6.95468H12.1236C12.838 6.95468 13.5231 7.24094 14.0282 7.75049C14.5333 8.26003 14.8171 8.95113 14.8171 9.67174L14.8279 13.0762Z" fill="black"/>
<path d="M10.5829 8.50342C10.0166 8.50342 9.46307 8.67281 8.99222 8.99017C8.52137 9.30754 8.15438 9.75862 7.93768 10.2864C7.72097 10.8141 7.66427 11.3949 7.77474 11.9551C7.88522 12.5154 8.15791 13.03 8.55834 13.434C8.95877 13.8379 9.46894 14.113 10.0243 14.2244C10.5798 14.3358 11.1554 14.2786 11.6786 14.06C12.2018 13.8414 12.649 13.4712 12.9636 12.9963C13.2782 12.5213 13.4461 11.9629 13.4461 11.3917C13.4461 11.0124 13.3721 10.6368 13.2282 10.2864C13.0843 9.93596 12.8734 9.61756 12.6075 9.34936C12.3416 9.08117 12.026 8.86842 11.6786 8.72327C11.3313 8.57812 10.9589 8.50342 10.5829 8.50342ZM10.5829 13.1224C10.242 13.1224 9.9087 13.0204 9.62521 12.8294C9.34173 12.6383 9.12078 12.3667 8.99031 12.049C8.85983 11.7312 8.82569 11.3816 8.89221 11.0443C8.95872 10.7069 9.1229 10.3971 9.36398 10.1539C9.60507 9.91071 9.91223 9.74509 10.2466 9.678C10.581 9.6109 10.9276 9.64534 11.2426 9.77695C11.5576 9.90857 11.8268 10.1314 12.0163 10.4174C12.2057 10.7034 12.3068 11.0396 12.3068 11.3835C12.3075 11.6124 12.2634 11.8393 12.1772 12.051C12.0909 12.2628 11.9641 12.4553 11.8039 12.6176C11.6438 12.7799 11.4536 12.9087 11.2441 12.9967C11.0346 13.0847 10.8099 13.1302 10.5829 13.1306V13.1224Z" fill="black"/>
<path d="M13.2468 7.72368C13.1021 7.72206 12.9602 7.76387 12.8391 7.84379C12.718 7.92371 12.6232 8.03813 12.5667 8.17253C12.5102 8.30692 12.4946 8.45522 12.5218 8.59859C12.5491 8.74196 12.618 8.87392 12.7197 8.97771C12.8215 9.08151 12.9515 9.15245 13.0933 9.18153C13.2351 9.2106 13.3823 9.19651 13.5162 9.14102C13.65 9.08554 13.7645 8.99118 13.8451 8.86992C13.9256 8.74866 13.9687 8.60598 13.9687 8.46C13.9687 8.26612 13.8929 8.08006 13.7577 7.9422C13.6226 7.80435 13.439 7.72582 13.2468 7.72368Z" fill="black"/>
<path d="M17.4461 17.8095C17.1767 17.8937 17.0071 18.2116 16.8751 18.4561C16.7431 18.7007 16.5195 18.937 16.5195 19.2087C16.5195 19.2291 16.5242 19.2493 16.5333 19.2675C16.5424 19.2857 16.5555 19.3016 16.5718 19.3137C16.588 19.3259 16.6069 19.334 16.6268 19.3375C16.6467 19.341 16.6672 19.3397 16.6865 19.3337C16.937 19.2631 17.1229 18.9696 17.3033 18.7903C17.4838 18.611 17.7693 18.3556 17.7747 18.0621C17.7729 18.0224 17.7625 17.9836 17.7442 17.9484C17.726 17.9132 17.7003 17.8825 17.6689 17.8584C17.6376 17.8343 17.6014 17.8174 17.5629 17.8089C17.5244 17.8005 17.4845 17.8007 17.4461 17.8095Z" fill="black"/>
<path d="M20.4681 12.1008C21.691 7.11766 16.5868 2.09109 11.9405 1.19175C9.39202 0.681811 6.74678 1.18511 4.55757 2.59647C2.68557 3.82458 0.77318 6.0091 0.538845 8.31589C0.533429 8.36103 0.544958 8.40659 0.571166 8.44359C-0.902186 12.2475 0.703151 17.0513 3.93267 19.4694C7.16219 21.8876 12.4011 22.7082 15.8084 20.203C15.8716 20.1652 15.9173 20.1036 15.9355 20.0317C15.9537 19.9599 15.9428 19.8837 15.9053 19.8199C15.8678 19.7562 15.8068 19.71 15.7355 19.6917C15.6643 19.6733 15.5888 19.6843 15.5255 19.7221L15.1565 19.896C15.1217 19.8376 15.0663 19.7946 15.0014 19.7755C14.9366 19.7564 14.8669 19.7625 14.8064 19.7928C12.5384 20.8796 9.38973 20.3362 7.14603 19.5211C7.09126 19.5072 7.03339 19.5136 6.98284 19.5389C6.93229 19.5643 6.89238 19.6071 6.8703 19.6595C6.84821 19.7119 6.8454 19.7705 6.86237 19.8249C6.87934 19.8792 6.91499 19.9256 6.96287 19.9558C8.15824 20.542 9.45776 20.881 10.785 20.953C11.3402 20.9815 11.8969 20.9652 12.4496 20.904C11.5829 21.1334 10.6836 21.2106 9.79106 21.1323C7.92965 20.9357 6.14874 20.2633 4.61682 19.1787C2.76638 17.9316 1.50312 16.41 0.905163 14.2364C0.367095 12.3644 0.376449 10.3755 0.932099 8.5088C0.958924 8.49079 0.981087 8.46657 0.996741 8.43816L1.29033 7.87301C0.722586 9.36036 0.557118 10.9732 0.810888 12.5464C1.29303 15.5025 2.94684 17.4588 5.38986 19.0673C5.68345 19.2602 5.97435 18.763 5.65921 18.6C3.5044 17.4452 1.78594 14.8178 1.42232 12.4159C1.02368 9.76408 1.97987 7.27525 3.54211 5.16409C3.67679 4.98477 3.39397 4.78642 3.24044 4.93043C2.98677 5.17344 2.74923 5.43303 2.52935 5.70751C2.88908 5.15596 3.30429 4.64334 3.76837 4.1778C3.66063 4.36528 3.8357 4.64785 4.05657 4.50385C4.6249 4.13704 5.17438 3.74579 5.76426 3.41702C6.18445 3.18064 6.63157 2.98773 7.06253 2.77036C7.1426 2.79368 7.22758 2.79368 7.30764 2.77036C10.4375 1.95524 13.5539 2.31389 15.9915 4.62068C16.01 4.63899 16.0324 4.65292 16.0569 4.66147C16.0814 4.67001 16.1075 4.67296 16.1332 4.6701C16.159 4.66724 16.1838 4.65865 16.2059 4.64493C16.228 4.63121 16.2468 4.61272 16.2609 4.59079C16.2529 4.62017 16.2518 4.65101 16.2578 4.68088C16.2637 4.71074 16.2765 4.73879 16.295 4.7628C16.3136 4.78681 16.3375 4.80612 16.3647 4.81918C16.392 4.83225 16.4219 4.83871 16.4521 4.83805C16.502 4.83224 16.5481 4.80814 16.5815 4.77031C16.6149 4.73248 16.6334 4.68358 16.6334 4.63291C16.6334 4.58224 16.6149 4.53333 16.5815 4.49551C16.5481 4.45768 16.502 4.43357 16.4521 4.42777C16.421 4.42683 16.3901 4.43381 16.3623 4.44805C16.3346 4.46229 16.3108 4.48335 16.2932 4.50928C16.2964 4.48356 16.2938 4.45742 16.2854 4.43292C16.2769 4.40841 16.263 4.38619 16.2447 4.36799C15.4009 3.48271 14.3947 2.77124 13.2819 2.27314C16.5814 3.49038 19.3207 6.46829 19.7167 9.90809C19.4675 8.78845 19.0036 7.72881 18.351 6.7889C18.3203 6.73521 18.2697 6.69604 18.2104 6.67999C18.151 6.66393 18.0878 6.67233 18.0346 6.70331C17.9813 6.7343 17.9425 6.78534 17.9266 6.84521C17.9107 6.90508 17.919 6.96888 17.9497 7.02257C18.8123 8.64655 19.2795 10.4543 19.3126 12.2964C19.3746 14.2337 18.6285 15.8829 17.6103 17.4805C17.5053 17.6409 17.745 17.8392 17.8797 17.7061C17.9121 17.7244 17.9496 17.7317 17.9865 17.7268C18.0234 17.7219 18.0577 17.7051 18.0844 17.6789C19.555 16.2932 20.6324 14.2146 20.4897 12.1388C20.4811 12.127 20.4739 12.1142 20.4681 12.1008Z" fill="black"/>
<path d="M6.15763 19.3145C6.14459 19.3492 6.13873 19.3863 6.14042 19.4234C6.14211 19.4604 6.15132 19.4968 6.16747 19.5301C6.18363 19.5635 6.20638 19.5931 6.23434 19.6173C6.26229 19.6414 6.29486 19.6595 6.33002 19.6705C6.43631 19.712 6.54637 19.7429 6.65862 19.7628C6.85794 19.7873 6.92797 19.5129 6.81215 19.3906C6.72976 19.3133 6.63947 19.245 6.5428 19.1868C6.50976 19.1671 6.47292 19.1547 6.43475 19.1505C6.39658 19.1463 6.35797 19.1504 6.32149 19.1625C6.28502 19.1746 6.25152 19.1944 6.22326 19.2206C6.195 19.2469 6.17262 19.2789 6.15763 19.3145Z" fill="black"/>
</svg>
