<svg width="63" height="64" viewBox="0 0 63 64" fill="none" xmlns="http://www.w3.org/2000/svg">
<path d="M18.8299 45.4258H25.0759V25.0108H18.8299V45.4258ZM21.9529 14.857C21.4351 14.8553 20.9229 14.9664 20.4508 15.1826C19.9787 15.3988 19.5577 15.7152 19.216 16.1105C18.8744 16.5058 18.62 16.9708 18.47 17.4743C18.32 17.9778 18.2778 18.5081 18.3464 19.0295C18.4149 19.551 18.5926 20.0514 18.8674 20.4973C19.1422 20.9432 19.5079 21.3241 19.9397 21.6144C20.3715 21.9048 20.8595 22.0978 21.3709 22.1806C21.8823 22.2634 22.4052 22.234 22.9044 22.0943C23.5121 21.9326 24.0669 21.6106 24.5125 21.1608C24.9582 20.711 25.2788 20.1495 25.4418 19.5332C25.5923 18.986 25.6162 18.4109 25.5116 17.8528C25.4071 17.2947 25.1769 16.7687 24.8391 16.316C24.5013 15.8632 24.065 15.4959 23.5643 15.2428C23.0636 14.9897 22.5121 14.8577 21.9529 14.857ZM40.9917 24.4985C39.8038 24.453 38.6261 24.7365 37.5846 25.3186C36.5431 25.9007 35.6771 26.7596 35.0792 27.8033H34.9897V25.0108H28.9958V45.4258H35.2418V35.3298C35.2418 32.6613 35.7379 30.0836 38.991 30.0836C42.2441 30.0836 42.2441 33.1322 42.2441 35.4951V45.4093H48.49V34.231C48.4819 28.7286 47.3189 24.4985 40.9917 24.4985Z" fill="black"/>
<path d="M53.2969 51.2338C52.4836 51.4899 51.9712 52.4565 51.5727 53.2001C51.1742 53.9437 50.5073 54.6625 50.5073 55.4886C50.5101 55.5504 50.5265 55.6108 50.5553 55.6653C50.5841 55.7198 50.6246 55.7671 50.6737 55.8035C50.7229 55.84 50.7796 55.8648 50.8394 55.8761C50.8993 55.8874 50.9609 55.8848 51.0197 55.8687C51.7679 55.6539 52.3372 54.7616 52.8821 54.2163C53.427 53.671 54.289 52.8944 54.3053 52.0021C54.3004 51.8796 54.2688 51.7598 54.2126 51.6513C54.1565 51.5427 54.0772 51.4483 53.9807 51.3747C53.8841 51.3011 53.7727 51.2503 53.6544 51.226C53.5361 51.2016 53.414 51.2043 53.2969 51.2338Z" fill="black"/>
<path d="M62.438 33.8759C66.1303 18.7236 50.7187 3.43919 36.6897 0.704517C28.9923 -0.844786 21.0033 0.685447 14.3897 4.9759C8.74559 8.71026 3.00387 15.3528 2.26379 22.3671C2.24744 22.5044 2.28225 22.6429 2.36138 22.7554C-2.08724 34.322 2.75989 48.929 12.5111 56.2821C22.2622 63.6351 38.0804 66.1302 48.3683 58.5128C48.5592 58.3978 48.6973 58.2104 48.7522 57.9919C48.8071 57.7735 48.7743 57.5418 48.6611 57.3479C48.5479 57.1539 48.3634 57.0137 48.1484 56.9579C47.9333 56.9021 47.7053 56.9354 47.5144 57.0504L46.4002 57.5792C46.2947 57.3996 46.1261 57.2673 45.9284 57.2091C45.7307 57.1508 45.5185 57.1709 45.3348 57.2652C38.4952 60.57 28.988 58.9176 22.2134 56.4391C22.048 56.397 21.8733 56.4163 21.7207 56.4934C21.5681 56.5706 21.4475 56.7005 21.3809 56.8599C21.3142 57.0193 21.3057 57.1977 21.357 57.3629C21.4082 57.528 21.5158 57.6692 21.6604 57.761C25.2697 59.5433 29.1934 60.5742 33.2008 60.7931C34.8773 60.8799 36.5581 60.8301 38.2268 60.6443C35.6101 61.3416 32.8948 61.5764 30.1998 61.3383C24.5791 60.7421 19.2015 58.6974 14.5768 55.3981C8.98958 51.6059 5.1753 46.9792 3.36983 40.3697C1.7452 34.6776 1.77344 28.6299 3.45116 22.9537C3.53018 22.8966 3.59666 22.8235 3.64637 22.7389L4.50029 21.0287C2.78605 25.5513 2.28644 30.4557 3.05267 35.2391C4.50843 44.228 9.50194 50.1766 16.8783 55.0676C17.7567 55.6542 18.6431 54.1423 17.6916 53.6465C11.1854 50.1353 5.99671 42.146 4.89879 34.8425C3.69514 26.779 6.58227 19.2111 11.2993 12.7916C11.7059 12.2463 10.852 11.6432 10.3884 12.0811C9.62248 12.82 8.90526 13.6094 8.24136 14.444C9.32495 12.765 10.5788 11.206 11.9824 9.79257C11.649 10.3626 12.1857 11.2219 12.8526 10.784C14.5686 9.66864 16.2277 8.47893 18.0088 7.47925C19.2775 6.76046 20.6275 6.17387 21.9288 5.51292C22.1705 5.58384 22.4271 5.58384 22.6689 5.51292C32.1191 3.03436 41.5206 4.12493 48.8888 11.1393C48.9447 11.1949 49.0121 11.2373 49.0861 11.2633C49.1601 11.2893 49.2388 11.2982 49.3167 11.2895C49.3945 11.2808 49.4694 11.2547 49.5361 11.213C49.6027 11.1713 49.6594 11.1151 49.7021 11.0484C49.678 11.1377 49.6748 11.2315 49.6927 11.3223C49.7106 11.4131 49.7491 11.4984 49.8052 11.5714C49.8613 11.6444 49.9334 11.7031 50.0157 11.7428C50.0981 11.7826 50.1884 11.8022 50.2795 11.8002C50.4302 11.7826 50.5692 11.7092 50.6701 11.5942C50.7711 11.4792 50.8268 11.3305 50.8268 11.1764C50.8268 11.0224 50.7711 10.8737 50.6701 10.7586C50.5692 10.6436 50.4302 10.5703 50.2795 10.5527C50.1855 10.5498 50.0923 10.571 50.0084 10.6143C49.9246 10.6576 49.8528 10.7217 49.7997 10.8005C49.8072 10.7224 49.798 10.6436 49.7727 10.5695C49.7474 10.4953 49.7067 10.4276 49.6533 10.3709C47.1056 7.67898 44.0673 5.51559 40.7073 4.001C50.6699 7.70232 58.9409 16.7573 60.1364 27.2168C59.3842 23.8123 57.9835 20.5902 56.0131 17.7322C55.9204 17.569 55.7676 17.4498 55.5884 17.401C55.4092 17.3522 55.2182 17.3778 55.0575 17.472C54.8968 17.5662 54.7796 17.7214 54.7315 17.9035C54.6835 18.0855 54.7086 18.2795 54.8014 18.4427C57.4021 23.3824 58.8124 28.8782 58.9165 34.479C59.1036 40.3697 56.8508 45.3847 53.7766 50.2427C53.4594 50.7301 54.1833 51.3332 54.5899 50.9284C54.6867 50.9836 54.7985 51.0054 54.9084 50.9905C55.0184 50.9756 55.1207 50.9248 55.1998 50.8458C59.6485 46.6322 62.9016 40.3119 62.4624 33.9998C62.4543 33.9337 62.438 33.909 62.438 33.8759Z" fill="black"/>
<path d="M19.2208 55.8111C19.1814 55.9166 19.1637 56.0293 19.1688 56.142C19.1739 56.2548 19.2017 56.3652 19.2505 56.4667C19.2993 56.5681 19.368 56.6583 19.4524 56.7317C19.5368 56.8051 19.6351 56.8601 19.7413 56.8934C20.0736 57.0116 20.417 57.0946 20.766 57.1413C21.3678 57.2156 21.5793 56.3812 21.2296 56.0094C20.9808 55.7742 20.7082 55.5665 20.4163 55.3897C20.3134 55.3245 20.1973 55.2836 20.0767 55.2698C19.9562 55.2561 19.8341 55.2699 19.7195 55.3103C19.6048 55.3507 19.5006 55.4166 19.4143 55.5033C19.328 55.5899 19.2619 55.6951 19.2208 55.8111Z" fill="black"/>
</svg>
