<svg width="22" height="22" viewBox="0 0 22 22" fill="none" xmlns="http://www.w3.org/2000/svg">
<path d="M6.49201 15.8988H8.56062V9.18498H6.49201V15.8988ZM7.52631 5.84571C7.35481 5.84517 7.18518 5.88169 7.02883 5.95279C6.87249 6.0239 6.73305 6.12795 6.61989 6.25796C6.50673 6.38796 6.42247 6.54089 6.37279 6.70648C6.32311 6.87206 6.30916 7.04646 6.33186 7.21794C6.35457 7.38942 6.41341 7.55401 6.50443 7.70064C6.59545 7.84727 6.71654 7.97254 6.85955 8.06803C7.00257 8.16351 7.16419 8.227 7.33356 8.25423C7.50292 8.28145 7.67611 8.27178 7.84146 8.22586C8.04272 8.17268 8.22647 8.06676 8.37405 7.91883C8.52164 7.77091 8.62782 7.58624 8.68183 7.38357C8.73167 7.20362 8.73958 7.01449 8.70495 6.83095C8.67032 6.6474 8.59408 6.47443 8.4822 6.32553C8.37032 6.17663 8.22583 6.05584 8.06001 5.97261C7.89419 5.88937 7.71153 5.84594 7.52631 5.84571ZM13.8318 9.01652C13.4384 9.00155 13.0484 9.09477 12.7034 9.28621C12.3585 9.47766 12.0717 9.76011 11.8736 10.1033H11.844V9.18498H9.8589V15.8988H11.9275V12.5786C11.9275 11.701 12.0918 10.8533 13.1692 10.8533C14.2466 10.8533 14.2466 11.8559 14.2466 12.6329V15.8934H16.3152V12.2172C16.3126 10.4077 15.9274 9.01652 13.8318 9.01652Z" fill="black"/>
<path d="M17.9068 17.8093C17.6374 17.8935 17.4677 18.2114 17.3358 18.4559C17.2038 18.7005 16.9829 18.9368 16.9829 19.2086C16.9838 19.2289 16.9893 19.2487 16.9988 19.2667C17.0083 19.2846 17.0217 19.3001 17.038 19.3121C17.0543 19.3241 17.0731 19.3323 17.0929 19.336C17.1127 19.3397 17.1331 19.3388 17.1526 19.3335C17.4004 19.2629 17.5889 18.9695 17.7694 18.7901C17.9499 18.6108 18.2354 18.3554 18.2408 18.062C18.2392 18.0217 18.2287 17.9822 18.2101 17.9466C18.1915 17.9109 18.1652 17.8798 18.1333 17.8556C18.1013 17.8314 18.0644 17.8147 18.0252 17.8067C17.986 17.7987 17.9456 17.7996 17.9068 17.8093Z" fill="black"/>
<path d="M20.9345 12.1005C22.1573 7.11743 17.0531 2.09086 12.4068 1.19152C9.85745 0.681999 7.21155 1.18524 5.02118 2.59624C3.15188 3.82435 1.25026 6.00887 1.00515 8.31566C0.999737 8.3608 1.01127 8.40636 1.03747 8.44336C-0.435877 12.2473 1.16946 17.051 4.39898 19.4692C7.6285 21.8874 12.8674 22.708 16.2747 20.2028C16.3379 20.165 16.3836 20.1034 16.4018 20.0315C16.42 19.9597 16.4091 19.8835 16.3716 19.8197C16.3341 19.7559 16.2731 19.7098 16.2018 19.6915C16.1306 19.6731 16.0551 19.6841 15.9919 19.7219L15.6228 19.8958C15.5879 19.8367 15.5321 19.7932 15.4666 19.7741C15.4011 19.7549 15.3308 19.7615 15.27 19.7925C13.0048 20.8794 9.85604 20.336 7.61234 19.5208C7.55757 19.507 7.4997 19.5133 7.44915 19.5387C7.3986 19.5641 7.35869 19.6068 7.3366 19.6592C7.31452 19.7117 7.31171 19.7703 7.32869 19.8246C7.34566 19.879 7.38129 19.9254 7.42918 19.9556C8.62455 20.5417 9.92408 20.8808 11.2513 20.9527C11.8065 20.9813 12.3632 20.9649 12.9159 20.9038C12.0492 21.1331 11.15 21.2103 10.2574 21.1321C8.39585 20.936 6.61483 20.2635 5.08314 19.1785C3.23269 17.9314 1.96943 16.4098 1.37147 14.2361C0.833399 12.3642 0.842754 10.3753 1.3984 8.50857C1.42457 8.4898 1.44659 8.46574 1.46305 8.43793L1.74587 7.87549C1.17812 9.36285 1.01265 10.9757 1.26642 12.5488C1.74856 15.505 3.40238 17.4613 5.8454 19.0698C6.1363 19.2627 6.42989 18.7655 6.11475 18.6025C3.95994 17.4477 2.24147 14.8203 1.87785 12.4184C1.47921 9.76657 2.4354 7.27774 3.99764 5.16658C4.13232 4.98725 3.8495 4.78891 3.69597 4.93291C3.4423 5.17593 3.20476 5.43552 2.98489 5.70999C3.34377 5.15782 3.75904 4.64511 4.2239 4.18029C4.11347 4.36776 4.29124 4.65034 4.5121 4.50633C5.08044 4.13953 5.62991 3.74827 6.21979 3.41951C6.63998 3.18312 7.0871 2.99021 7.51807 2.77285C7.59813 2.79617 7.68311 2.79617 7.76318 2.77285C10.893 1.95773 14.0067 2.31638 16.4471 4.62317C16.4656 4.64148 16.4879 4.65541 16.5124 4.66395C16.5369 4.6725 16.563 4.67545 16.5888 4.67259C16.6145 4.66973 16.6394 4.66113 16.6614 4.64742C16.6835 4.6337 16.7023 4.61521 16.7164 4.59328C16.7084 4.62265 16.7074 4.6535 16.7133 4.68336C16.7192 4.71322 16.732 4.74128 16.7506 4.76529C16.7691 4.7893 16.793 4.80861 16.8203 4.82167C16.8476 4.83473 16.8775 4.84119 16.9077 4.84053C16.9576 4.83473 17.0036 4.81062 17.037 4.7728C17.0704 4.73497 17.0889 4.68607 17.0889 4.6354C17.0889 4.58472 17.0704 4.53582 17.037 4.49799C17.0036 4.46017 16.9576 4.43606 16.9077 4.43026C16.8765 4.42932 16.8456 4.43629 16.8179 4.45054C16.7901 4.46478 16.7663 4.48584 16.7487 4.51177C16.7512 4.48609 16.7482 4.46017 16.7398 4.43578C16.7314 4.4114 16.7179 4.38913 16.7003 4.37048C15.8565 3.48519 14.8502 2.77372 13.7374 2.27562C17.0369 3.49287 19.7762 6.47077 20.1722 9.91057C19.9231 8.79094 19.4591 7.7313 18.8066 6.79139C18.7759 6.7377 18.7253 6.69852 18.6659 6.68247C18.6066 6.66642 18.5433 6.67481 18.4901 6.7058C18.4369 6.73678 18.398 6.78783 18.3821 6.8477C18.3662 6.90757 18.3745 6.97137 18.4053 7.02505C19.2666 8.64954 19.7337 10.4569 19.7682 12.2989C19.8301 14.2361 19.084 15.8854 18.0659 17.483C17.9608 17.6433 18.2005 17.8417 18.3352 17.7086C18.3673 17.7267 18.4043 17.7339 18.4407 17.729C18.4771 17.7241 18.511 17.7074 18.5372 17.6814C20.0106 16.2957 21.088 14.2171 20.9425 12.1413C20.9398 12.1195 20.9345 12.1114 20.9345 12.1005Z" fill="black"/>
<path d="M6.62101 19.3145C6.60797 19.3492 6.60211 19.3862 6.6038 19.4233C6.60549 19.4604 6.6147 19.4967 6.63085 19.5301C6.64701 19.5634 6.66977 19.5931 6.69772 19.6172C6.72568 19.6414 6.75823 19.6595 6.79339 19.6704C6.90344 19.7093 7.01718 19.7366 7.13278 19.7519C7.3321 19.7764 7.40213 19.502 7.28631 19.3797C7.20392 19.3023 7.11363 19.234 7.01696 19.1759C6.98286 19.1545 6.94443 19.141 6.90449 19.1365C6.86456 19.1319 6.82413 19.1365 6.78617 19.1498C6.7482 19.1631 6.71367 19.1847 6.68509 19.2132C6.65651 19.2417 6.63462 19.2763 6.62101 19.3145Z" fill="black"/>
</svg>
