<svg width="30" height="30" viewBox="0 0 30 30" fill="none" xmlns="http://www.w3.org/2000/svg">
<path d="M3 12.4999C6 -3.0001 27 4.99993 28 12.9999C28.3333 16.9999 26.5 25.2999 16.5 26.4999C6.5 27.6999 3.33333 17.6666 3 12.4999Z" fill="#FFCF27"/>
<path d="M28.3314 13.6047C28.3314 20.8548 22.612 26.7093 15.5846 26.7093C8.55729 26.7093 2.83789 20.8548 2.83789 13.6047C2.83789 6.3545 8.55729 0.5 15.5846 0.5C22.612 0.5 28.3314 6.3545 28.3314 13.6047Z" stroke="black"/>
<path d="M29.5001 15.1744C29.5001 22.2869 23.3576 28.1046 15.7144 28.1046C8.07125 28.1046 1.92871 22.2869 1.92871 15.1744C1.92871 8.06184 8.07125 2.24414 15.7144 2.24414C23.3576 2.24414 29.5001 8.06184 29.5001 15.1744Z" stroke="black"/>
<path d="M28.591 16.5699C28.591 23.6824 22.4484 29.5001 14.8052 29.5001C7.16207 29.5001 1.01953 23.6824 1.01953 16.5699C1.01953 9.45735 7.16207 3.63965 14.8052 3.63965C22.4484 3.63965 28.591 9.45735 28.591 16.5699Z" stroke="black"/>
<path d="M28.0714 13.7791C28.0714 20.8916 21.9289 26.7093 14.2857 26.7093C6.64254 26.7093 0.5 20.8916 0.5 13.7791C0.5 6.66658 6.64254 0.848877 14.2857 0.848877C21.9289 0.848877 28.0714 6.66658 28.0714 13.7791Z" stroke="black"/>
</svg>
