<svg width="70" height="47" viewBox="0 0 70 47" fill="none" xmlns="http://www.w3.org/2000/svg">
<path fill-rule="evenodd" clip-rule="evenodd" d="M33.5756 0.0502439C33.5177 0.102378 32.3116 0.175268 30.8954 0.212541C26.4728 0.32884 20.8917 1.42437 16.5361 3.03085C15.2199 3.51657 13.8403 4.12991 13.4706 4.39412C13.1008 4.65833 12.2818 5.10182 11.6506 5.37947C10.4009 5.92889 9.09166 7.16006 9.35106 7.54151C9.44454 7.67904 9.30769 7.7425 9.02804 7.69154C8.74734 7.64035 8.34329 7.83 8.06883 8.14163C7.80813 8.43792 7.09302 8.99395 6.4797 9.37729C5.59945 9.9274 5.20842 10.4115 4.62236 11.6761C4.21392 12.5575 3.8104 13.3074 3.72575 13.343C3.64084 13.3786 3.62032 13.7112 3.6803 14.0818C3.74236 14.4661 3.64968 14.8341 3.46454 14.9382C3.24071 15.0639 3.20487 15.0245 3.34976 14.8117C3.48583 14.6117 3.4583 14.56 3.27135 14.665C3.11269 14.7539 3.04882 14.9827 3.12931 15.1731C3.20955 15.3635 3.14621 15.5194 2.98807 15.5194C2.82994 15.5194 2.72995 15.5989 2.76553 15.6964C2.80136 15.7938 2.74503 15.8733 2.64064 15.8733C2.2431 15.8733 1.71624 16.8756 1.30754 18.4092C1.0741 19.2849 0.696044 20.6989 0.467283 21.5509C-0.3722 24.6816 -0.0904775 27.2644 1.3927 30.0318C3.00987 33.049 5.79395 35.2178 10.036 36.7646L11.5291 37.3091L11.5732 39.6837C11.5974 40.9896 11.5862 42.5239 11.5483 43.0929C11.5101 43.6621 11.5966 44.3521 11.7402 44.6262C11.8838 44.9006 12.0622 45.3002 12.1367 45.5142C12.2195 45.7529 12.6923 45.968 13.3594 46.0704C14.8836 46.3044 24.5261 46.2705 24.7757 46.0301C24.8886 45.9216 25.0231 45.621 25.0743 45.3627C25.1257 45.1042 25.4887 44.7529 25.881 44.5819C27.2944 43.9664 27.5418 43.0313 27.7402 37.5511C28.0407 29.2618 27.983 27.6421 27.3448 26.4442C26.5858 25.0203 24.6487 22.9085 23.6864 22.4565C22.6314 21.9609 21.8805 21.8416 19.7084 21.825C15.887 21.7958 13.2782 23.7693 11.7734 27.8278C11.4777 28.6251 11.2546 29.6586 11.2777 30.1243C11.3561 31.7069 11.2699 32.5043 11.0202 32.5043C10.5813 32.5043 8.15349 30.1153 8.15349 29.6834C8.15349 29.5482 8.03664 29.4376 7.89383 29.4376C7.75101 29.4376 7.63417 29.2904 7.63417 29.1106C7.63417 28.9308 7.45369 28.4798 7.23298 28.108L6.83208 27.4324L6.99592 28.376C7.08628 28.895 7.49786 29.7709 7.91098 30.3222C8.3241 30.8735 8.56349 31.3248 8.44326 31.3248C8.08831 31.3248 6.85519 30.1092 6.85519 29.7593C6.85519 29.5824 6.74743 29.4376 6.61578 29.4376C6.48387 29.4376 6.22889 29.0396 6.04869 28.5529C5.67815 27.5513 5.57376 26.8627 5.79603 26.8842C6.40572 26.9427 6.54178 26.6707 6.67239 25.1324C6.75236 24.1918 6.8983 23.1831 6.99671 22.8913C7.10317 22.575 7.06524 22.3605 6.90295 22.3605C6.48827 22.3605 6.27848 23.2095 6.30315 24.7903C6.31743 25.7176 6.23641 26.139 6.0723 25.9899C5.64049 25.5976 5.67632 22.7085 6.12086 22.0878C6.33872 21.7838 6.66484 21.1103 6.84609 20.5913C8.00314 17.2755 9.65356 14.9835 13.6991 11.0743C15.6099 9.22795 20.9226 6.32143 23.2138 5.86874C23.9993 5.71352 25.2262 5.44435 25.9403 5.27049C28.6155 4.61917 31.518 4.36769 34.4639 4.53188C36.0598 4.62105 38.3258 4.73499 39.4997 4.78547C41.9359 4.89021 43.8449 5.18038 47.3623 5.98056C51.6781 6.96214 52.1608 7.08787 52.4127 7.29546C52.5482 7.40728 52.8468 7.49881 53.0759 7.49881C53.3049 7.49881 54.1285 7.77387 54.9064 8.11002C55.6841 8.44642 56.6127 8.84296 56.9697 8.99182C57.3268 9.14043 58.6357 10.1883 59.8784 11.3202C62.2416 13.4725 63.3 15.0993 64.5295 18.4682C64.8138 19.2467 65.2152 20.2181 65.4222 20.6269C65.8527 21.478 65.8997 21.8887 65.5666 21.8887C65.4393 21.8887 65.2669 21.6415 65.1836 21.3396C65.1 21.0376 64.7104 20.4802 64.3178 20.1011C63.9252 19.722 63.6368 19.3141 63.677 19.195C63.7173 19.0756 63.5664 19.1167 63.3418 19.286C63.0305 19.5208 62.3935 19.55 60.6655 19.4092C59.4183 19.3075 58.0473 19.2063 57.6189 19.1844C55.7034 19.0865 50.9936 19.9107 50.4029 20.4474C50.2445 20.5913 49.8384 20.7092 49.5006 20.7092C48.9072 20.7092 47.8793 21.5854 47.1766 22.6903C46.7788 23.3159 46.7451 24.0946 47.1252 23.8812C47.309 23.7778 47.3805 23.9583 47.3296 24.3982C47.2867 24.7698 47.3233 25.1798 47.4111 25.3095C47.4988 25.439 47.6417 25.9533 47.7287 26.4522C47.8154 26.9512 48.0535 28.0658 48.2576 28.9292C48.4617 29.7926 48.7063 31.2422 48.8013 32.1504C48.8963 33.0586 49.0765 33.8597 49.2017 33.9308C49.3269 34.0015 49.4819 34.4261 49.5463 34.8744C49.7454 36.26 50.2162 37.9488 50.5854 38.6028C50.7797 38.9462 51.0853 40.2097 51.2647 41.4105C51.4441 42.611 51.7591 43.7787 51.9645 44.0054C52.3135 44.3899 52.3262 44.3859 52.1577 43.9454C52.0585 43.6859 51.9263 43.2613 51.864 43.0018C51.769 42.6065 51.8261 42.6256 52.2179 43.1198C53.5697 44.8253 53.6336 44.8478 56.6672 44.6755C60.1113 44.4802 63.5046 44.0849 63.8494 43.8391C63.993 43.7369 64.5194 43.5862 65.0192 43.5043C65.5191 43.4224 66.2666 43.0908 66.6808 42.7673C67.0947 42.4437 67.8235 42.0811 68.3003 41.9615C69.8034 41.5846 70.0086 41.2203 69.9424 39.0453C69.9102 37.9776 69.8673 36.5735 69.8476 35.9248C69.8276 35.2761 69.7333 34.6328 69.6378 34.4955C69.5422 34.3582 69.3825 32.6562 69.2831 30.7135C69.1317 27.7622 69.1758 26.9144 69.5503 25.5575C70.0286 23.8245 70.1273 21.4271 69.8372 18.5748C69.6025 16.2632 69.073 14.5959 68.1375 13.2203C67.7179 12.6035 67.2011 11.754 66.989 11.3322C66.7771 10.9104 66.4263 10.5655 66.2095 10.5655C65.9929 10.5655 65.0228 9.83965 64.054 8.95267C61.5761 6.6833 58.766 4.90036 56.3206 4.04522C55.8921 3.89542 54.9308 3.55101 54.1843 3.27972C53.4378 3.00867 51.8604 2.56117 50.6789 2.28517C49.4974 2.0094 48.4139 1.70391 48.2711 1.60672C47.8941 1.35006 44.6867 0.693543 42.4287 0.410934C40.3943 0.156161 33.7581 -0.114179 33.5756 0.0502439ZM12.5485 7.28767C12.2541 7.66322 11.8994 7.97061 11.7602 7.97061C11.6213 7.97061 11.2564 8.18292 10.95 8.44241C10.6434 8.7019 10.4855 8.91421 10.5992 8.91421C10.713 8.91421 10.1508 9.51906 9.34976 10.2584C8.54897 10.9974 7.89383 11.7292 7.89383 11.8844C7.89383 12.0394 7.71103 12.23 7.48798 12.3079C7.26467 12.3857 7.1429 12.5388 7.21716 12.6483C7.29169 12.7577 6.77027 13.5813 6.0588 14.4782C5.34707 15.3753 4.63949 16.5338 4.48629 17.0528C4.33309 17.5718 4.11785 18.1025 4.00801 18.2323C3.54738 18.776 2.71127 21.474 2.42279 23.3473C2.19117 24.8524 2.18544 25.7353 2.4007 26.845C2.71956 28.4899 3.98126 31.137 4.85917 32.003C5.29073 32.4285 5.13362 32.3769 4.20507 31.7878C3.2381 31.1743 2.84706 30.7131 2.33138 29.5763C1.28261 27.2642 1.08059 26.2248 1.27533 24.1456C1.66794 19.9546 3.11476 16.488 5.4099 14.2401C6.06191 13.6013 6.59552 13.0441 6.59552 13.0017C6.59552 12.7254 6.10398 13.071 5.11078 14.045L3.96827 15.1656L4.89242 13.6685C5.87835 12.0713 5.96377 11.8705 5.55973 12.0972C5.40991 12.1814 5.37096 12.0809 5.46626 11.8554C5.5857 11.5726 5.68125 11.5462 5.82485 11.7571C5.9648 11.9628 6.09959 11.9102 6.29875 11.5721C6.45195 11.3121 6.50334 11.0324 6.41324 10.9503C6.32313 10.8684 6.3948 10.8014 6.57267 10.8014C6.75028 10.8014 7.35399 10.3549 7.91408 9.80922C8.47417 9.26358 8.93247 8.89204 8.93247 8.98357C8.93247 9.0751 9.16617 8.9378 9.45179 8.67831C9.73742 8.41882 9.97112 8.10035 9.97112 7.97061C9.97112 7.7491 10.3492 7.6361 10.8342 7.71253C10.9521 7.73117 10.9815 7.6479 10.8997 7.52759C10.7016 7.23649 12.2982 6.33062 12.7386 6.48419C13.0045 6.5769 12.9609 6.76138 12.5485 7.28767ZM62.6329 20.7682C62.6862 21.0202 62.561 21.181 62.3117 21.181C62.0871 21.181 61.9033 21.3403 61.9033 21.5349C61.9033 21.7295 61.7739 21.8887 61.6158 21.8887C61.4577 21.8887 61.3902 21.7425 61.4657 21.5637C61.5413 21.3849 61.4821 21.1287 61.3343 20.9944C60.9485 20.6439 61.2736 20.2969 61.9583 20.3283C62.2954 20.3438 62.5828 20.5311 62.6329 20.7682ZM57.8733 20.7946C58.3145 21.0876 58.51 21.5009 58.5861 22.3016C58.6017 22.4639 58.7022 22.5964 58.8097 22.5964C59.2311 22.5964 60.3676 26.6365 60.3915 28.2194C60.4009 28.8294 60.5271 29.2017 60.7244 29.2017C61.0591 29.2017 61.6436 30.6779 61.6436 31.5236C61.6436 31.7975 61.9394 32.7352 62.3006 33.6076C62.662 34.4797 62.8957 35.34 62.8201 35.5193C62.7443 35.6986 62.8575 36.0725 63.0717 36.3504C63.286 36.628 63.4612 37.197 63.4612 37.6146C63.4612 38.0324 63.5828 38.4421 63.7315 38.5256C63.8801 38.6091 63.9377 38.8601 63.8598 39.0838C63.7817 39.3072 63.8131 39.9616 63.9297 40.5381C64.3404 42.5706 64.2098 42.6874 60.9856 43.1755C58.9966 43.4765 57.5407 43.5619 56.1567 43.459C54.3547 43.325 54.1244 43.2491 53.6131 42.6209C53.3041 42.2411 53.1145 41.837 53.1919 41.723C53.3147 41.5425 52.5459 38.7427 51.7942 36.6325C51.1209 34.7425 49.2588 25.8844 49.1526 24.0654C49.1137 23.3985 49.2181 22.7208 49.3886 22.5342C49.5569 22.3499 49.6346 22.1445 49.5608 22.0775C49.4873 22.0107 49.6052 21.8217 49.8228 21.6576C50.0934 21.4535 50.2185 21.4429 50.2185 21.6241C50.2185 21.7696 50.0822 21.8887 49.9155 21.8887C49.7491 21.8887 49.6813 21.9513 49.7654 22.0275C49.8493 22.1036 50.2824 21.9215 50.7277 21.6224C51.354 21.2018 52.1382 21.0173 54.1888 20.8088C55.6468 20.6604 56.9635 20.5243 57.1149 20.5064C57.266 20.4882 57.6074 20.6179 57.8733 20.7946ZM20.5053 23.1947C21.9617 23.3667 23.3397 24.353 22.6654 24.7408C22.4673 24.855 22.4219 24.95 22.5647 24.9524C22.7075 24.9547 22.8456 25.5419 22.8718 26.2576C22.8981 26.975 22.815 27.5001 22.6867 27.4282C22.5589 27.3562 22.4694 27.5933 22.4878 27.9547C22.5343 28.8669 22.1308 37.784 22.0362 37.9342C21.9939 38.0015 22.1175 39.3633 22.311 40.9606C22.5041 42.5579 22.5987 44.0155 22.5208 44.2C22.4071 44.4696 21.6618 44.5298 18.7069 44.5074C16.687 44.492 14.684 44.4116 14.2555 44.3285C13.4913 44.1806 13.4734 44.1436 13.3153 42.3781C13.1434 40.4595 12.7422 31.8383 12.8063 31.4427C12.8274 31.313 12.8796 30.6638 12.9224 29.9997C13.0966 27.2975 13.9683 25.8969 16.7228 23.8939C17.3769 23.4181 18.8035 22.8649 19.0772 22.9807C19.1587 23.0152 19.8013 23.1114 20.5053 23.1947ZM24.5121 23.3041C24.5121 23.4339 24.4607 23.54 24.3976 23.54C24.3345 23.54 24.2109 23.4339 24.1226 23.3041C24.0343 23.1744 24.086 23.0682 24.2371 23.0682C24.3883 23.0682 24.5121 23.1744 24.5121 23.3041ZM66.0578 23.7759C66.0578 23.9057 65.941 24.0118 65.7982 24.0118C65.6554 24.0118 65.5385 23.9057 65.5385 23.7759C65.5385 23.6462 65.6554 23.54 65.7982 23.54C65.941 23.54 66.0578 23.6462 66.0578 23.7759ZM62.6547 26.1349C62.6682 26.3296 62.5052 26.1859 62.2925 25.8155C62.0798 25.4452 61.9882 25.0217 62.0884 24.8743C62.2658 24.6136 62.6018 25.3614 62.6547 26.1349ZM67.7184 27C67.5901 29.2564 67.3561 29.5734 67.3561 27.4909C67.3561 26.1253 67.5145 25.1913 67.7461 25.1913C67.7874 25.1913 67.775 26.0052 67.7184 27ZM23.8858 27.4902C23.6067 27.7438 23.4584 27.3885 23.6545 26.9354C23.8383 26.5103 23.8523 26.5096 23.9432 26.92C23.9956 27.1573 23.9699 27.4138 23.8858 27.4902ZM47.1026 28.7299C47.1026 28.9893 47.1475 29.2017 47.2021 29.2017C47.2569 29.2017 47.3628 28.9893 47.4376 28.7299C47.5121 28.4704 47.4674 28.2581 47.3379 28.2581C47.2085 28.2581 47.1026 28.4704 47.1026 28.7299ZM63.8982 29.246C63.8154 29.434 63.7539 29.3781 63.7414 29.1033C63.7302 28.8546 63.7915 28.7155 63.8777 28.7938C63.9639 28.8721 63.9733 29.0757 63.8982 29.246ZM25.9821 33.8765C25.9161 35.215 25.7922 36.3737 25.7066 36.4516C25.6209 36.5294 25.5417 36.3898 25.5303 36.1411C25.5191 35.8923 25.4664 34.3089 25.4129 32.6222C25.3199 29.6744 25.3314 29.5921 25.7089 30.4991C26.0018 31.203 26.0711 32.061 25.9821 33.8765ZM64.1735 30.9924C63.9172 31.225 63.4711 30.6324 63.6261 30.2656C63.7915 29.8735 63.8289 29.8839 64.0299 30.3776C64.1517 30.6767 64.2163 30.9535 64.1735 30.9924ZM64.8676 30.5324C65.0044 30.8563 64.9662 30.8709 64.6357 30.6215C64.1852 30.2818 64.1382 30.1453 64.4721 30.1453C64.5996 30.1453 64.7775 30.3196 64.8676 30.5324ZM23.7331 30.735C23.7331 30.9296 23.6872 31.0889 23.6311 31.0889C23.575 31.0889 23.4618 30.9296 23.3795 30.735C23.2974 30.5404 23.3434 30.3812 23.4815 30.3812C23.6199 30.3812 23.7331 30.5404 23.7331 30.735ZM68.3083 31.9348C68.5168 33.1832 67.9806 32.7234 67.7345 31.4427C67.5976 30.7326 67.6272 30.5626 67.8534 30.7553C68.0188 30.8964 68.2234 31.4271 68.3083 31.9348ZM65.5087 31.6196C65.6278 31.9114 65.8029 32.5356 65.8976 33.0065C66.0545 33.7878 66.0124 33.8725 65.4162 33.976C64.825 34.0787 64.0528 33.6293 64.1423 33.2346C64.2444 32.7836 63.8538 32.5201 63.2395 32.6253C62.5779 32.7385 62.5812 32.73 63.3314 32.3983C63.7598 32.2087 64.3812 32.049 64.712 32.0431C65.1937 32.0346 65.2809 31.9383 65.149 31.5607C64.9221 30.9108 65.2402 30.9631 65.5087 31.6196ZM24.7923 32.9102C24.5583 33.2691 24.5344 33.2445 24.6261 32.7402C24.685 32.4158 24.7578 31.9912 24.7879 31.7966C24.818 31.6019 24.8928 31.6786 24.9541 31.9666C25.0153 32.2549 24.9426 32.6795 24.7923 32.9102ZM64.7634 32.7796C64.7658 32.9525 64.8808 33.2532 65.0192 33.4479C65.2342 33.7503 65.2716 33.7418 65.275 33.3889C65.277 33.162 65.2877 32.8992 65.2983 32.805C65.309 32.7109 65.1921 32.596 65.0387 32.5496C64.8852 32.5031 64.7614 32.6064 64.7634 32.7796ZM24.9491 35.1435C24.8663 35.3315 24.8048 35.2756 24.7923 35.0008C24.7811 34.7522 24.8424 34.613 24.9286 34.6913C25.0148 34.7696 25.0242 34.9732 24.9491 35.1435ZM67.8755 35.231C67.8755 35.5733 67.763 35.7717 67.6158 35.6889C67.473 35.6087 67.3561 35.3372 67.3561 35.0852C67.3561 34.8333 67.473 34.6274 67.6158 34.6274C67.7586 34.6274 67.8755 34.8991 67.8755 35.231ZM65.4562 35.3794C65.3734 35.5674 65.3118 35.5115 65.2994 35.2367C65.2882 34.9881 65.3495 34.8489 65.4357 34.9272C65.5219 35.0055 65.5312 35.2091 65.4562 35.3794ZM23.2317 37.7715C23.2561 39.1682 23.2037 40.3767 23.1151 40.4572C23.0266 40.5376 22.9542 39.3473 22.9542 37.812C22.9542 36.2768 23.0066 35.068 23.0705 35.1263C23.1346 35.1846 23.2071 36.3747 23.2317 37.7715ZM64.8587 36.173C64.9473 36.3829 64.9037 36.4775 64.7567 36.395C64.6154 36.3157 64.4999 36.151 64.4999 36.0288C64.4999 35.6896 64.686 35.7644 64.8587 36.173ZM68.6544 36.7252C68.6544 37.0147 67.923 37.247 67.7609 37.009C67.689 36.9031 67.7046 36.7483 67.796 36.6653C68.0435 36.4405 68.6544 36.4832 68.6544 36.7252ZM25.584 39.3454L25.348 40.4069L25.3225 39.4633C25.3082 38.9443 25.3833 38.0951 25.4887 37.5761L25.6806 36.6325L25.7502 37.4582C25.7886 37.9123 25.7138 38.7615 25.584 39.3454ZM68.5521 38.4023C68.5675 38.7913 68.4799 39.1095 68.3574 39.1095C68.2351 39.1095 68.1351 38.791 68.1351 38.4018C68.1351 37.4789 68.5163 37.4794 68.5521 38.4023ZM69.6931 38.7696C69.6931 38.9717 69.5744 39.0705 69.4293 38.9892C69.2841 38.9075 69.2324 38.7422 69.3148 38.6214C69.5373 38.2942 69.6931 38.3551 69.6931 38.7696ZM66.6486 39.3749C66.3788 39.62 65.2789 39.3645 65.2789 39.0566C65.2789 38.9283 65.4541 38.8842 65.6684 38.959C65.8826 39.0335 66.0578 38.9788 66.0578 38.8372C66.0578 38.6707 66.1991 38.6863 66.4582 38.8818C66.6787 39.0479 66.7641 39.2699 66.6486 39.3749ZM69.6931 40.0531C69.6931 40.4423 69.5762 40.7608 69.4334 40.7608C69.2906 40.7608 69.1738 40.4423 69.1738 40.0531C69.1738 39.6638 69.2906 39.3454 69.4334 39.3454C69.5762 39.3454 69.6931 39.6638 69.6931 40.0531ZM66.1519 40.171C66.2339 40.3656 66.1879 40.5249 66.0498 40.5249C65.9114 40.5249 65.7982 40.3656 65.7982 40.171C65.7982 39.9764 65.8441 39.8172 65.9002 39.8172C65.9563 39.8172 66.0695 39.9764 66.1519 40.171ZM23.7292 42.7209C23.7313 42.8259 23.6163 42.8461 23.4735 42.7659C23.3307 42.6857 23.2156 42.4406 23.2177 42.2212C23.2213 41.8775 23.2567 41.8712 23.4735 42.1762C23.6119 42.3708 23.7269 42.6159 23.7292 42.7209ZM25.8104 42.7799C25.8104 42.982 25.6936 43.082 25.5508 43.0018C25.4079 42.9216 25.2911 42.7563 25.2911 42.6341C25.2911 42.5119 25.4079 42.4121 25.5508 42.4121C25.6936 42.4121 25.8104 42.5777 25.8104 42.7799Z" fill="#747171" fill-opacity="0.85"/>
</svg>
