<svg width="153" height="141" viewBox="0 0 153 141" fill="none" xmlns="http://www.w3.org/2000/svg">
<path d="M55.0468 26.1891C39.4246 39.1545 31.0734 58.6894 33.8869 77.5051C38.3887 112.461 79.597 132.538 117.653 124.709C95.369 130.521 69.2177 126.998 50.7526 113.984C24.2933 96.0999 18.5364 62.375 32.7349 36.8073C36.2472 30.2865 40.8746 24.2688 46.4603 18.9581L55.0468 26.1891V26.1891Z" fill="#898686"/>
<path d="M29.1151 27.2473C24.5787 25.5603 24.0913 20.1208 28.3538 17.4541C28.7068 17.2333 29.0947 17.0331 29.5054 17.0659C29.6642 17.0786 29.8267 17.0933 29.9963 17.0674L31.1026 17.0115L37.7083 16.2716L51.9671 13.2634C56.5639 12.2937 60.9218 14.8383 61.747 18.974C61.9389 19.9352 61.9256 20.9331 61.7079 21.914L59.08 33.7579C58.928 34.4429 58.8296 35.1338 58.7857 35.8254L58.5999 38.7463C58.5272 39.3092 58.1882 40.7462 58.1515 41.4195C58.1481 41.4832 58.155 41.5468 58.1582 41.6101C58.1704 41.8548 57.9873 42.0687 57.7752 42.2327C57.1127 42.7447 55.6569 43.8712 55.5592 43.9589C53.0284 46.5945 48.9605 46.3016 47.4447 43.2931C47.0999 42.6088 46.7685 41.9193 46.4505 41.2249C46.3092 40.9162 46.095 40.6247 46.0728 40.2844C46.0512 39.9548 46.2305 39.6323 46.3227 39.3062C46.5348 38.5557 46.6965 37.7949 46.8069 37.0277L47.4797 33.4202L49.4452 22.9626C49.774 21.2132 52.1279 20.4309 53.4445 21.6335C54.8055 22.8766 53.8453 25.1077 51.8587 25.3172C45.3987 25.9983 36.0241 26.9918 32.5133 27.3246L31.4418 27.4741C31.0489 27.5341 30.7258 27.7812 30.3342 27.6856C29.9257 27.5437 29.5193 27.3976 29.1151 27.2473Z" fill="#898686"/>
</svg>
