<svg width="338" height="411" viewBox="0 0 338 411" fill="none" xmlns="http://www.w3.org/2000/svg">
<path d="M99.5046 10.656L129.938 14.4494C135.665 14.4494 144.79 13.9984 168.309 5.76904C177.09 5.76904 204.12 1 212.901 1H257.84C270.363 1 279.002 5.76904 283.074 5.76904C291.728 13.7698 312.702 21.923 319.422 31.6764C327.822 43.8681 328.203 45.3921 335.076 78.1572C341.948 110.922 328.203 104.065 328.203 125.019C328.203 145.974 324.7 169.125 323.173 207.224C321.646 245.323 319.422 242.364 319.422 261.414V320.086V344.47C316.622 350.819 311.022 366.262 311.022 377.235C311.022 390.95 317.054 385.811 311.022 396.284C303.123 410 287.147 405.428 283.074 410C271.493 410 263.778 405.862 248.506 405.862H200.111H156.901H98.4815H65.1425C54.8339 405.862 38.7983 406.571 25.0535 396.284C11.3086 385.998 11.3086 377.235 11.3086 363.519C11.3086 352.547 4.43621 341.676 1 337.612L6.18519 302.75V249.297C6.18519 236.8 17.0356 215.822 25.0535 200.836C29.7623 188.771 39.4855 162.585 40.7073 154.355C42.2345 144.069 44.1435 137.211 49.4887 116.256C54.8339 95.3018 65.1425 95.6828 65.1425 69.7754V54.1548L99.5046 10.656Z" fill="#F2CED0" stroke="black"/>
</svg>
