<svg width="488" height="595" viewBox="0 0 488 595" fill="none" xmlns="http://www.w3.org/2000/svg">
<path d="M143.48 15L187.5 20.5C195.784 20.5 208.982 19.8461 243 7.91452C255.702 7.91452 294.798 1 307.5 1H372.5C390.614 1 403.109 7.91452 409 7.91452C421.518 19.5147 451.855 31.3358 461.575 45.477C473.724 63.1535 474.276 65.3631 484.217 112.869C494.157 160.374 474.276 150.431 474.276 180.812C474.276 211.194 469.209 244.761 467 300C464.791 355.239 461.575 350.949 461.575 378.568V463.636V498.989C457.525 508.195 449.425 530.586 449.425 546.494C449.425 566.38 458.15 558.928 449.425 574.114C438 594 414.891 587.371 409 594C392.248 594 381.09 588 359 588H289H226.5H142H93.7776C78.8669 588 55.6725 589.029 35.7916 574.114C15.9107 559.199 15.9107 546.495 15.9107 526.608C15.9107 510.7 5.97023 494.938 1 489.046L8.5 438.5V361C8.5 342.882 24.1944 312.465 35.7916 290.738C42.6027 273.246 56.6666 235.278 58.4338 223.346C60.6427 208.432 63.404 198.489 71.1355 168.108C78.8669 137.726 93.7776 138.278 93.7776 100.716V78.068L143.48 15Z" fill="#F2CED0" stroke="black"/>
</svg>
