<svg width="106" height="59" viewBox="0 0 106 59" fill="none" xmlns="http://www.w3.org/2000/svg">
<path d="M106 59L10 59C10 46.2696 15.0571 34.0606 24.0589 25.0589C33.0606 16.0571 45.2696 11 58 11C70.7304 11 82.9394 16.0571 91.9411 25.0589C100.943 34.0606 106 46.2696 106 59Z" fill="black"/>
<path d="M99.3574 54.2141L4.6354 54.2141C4.6354 41.6646 9.62521 29.6291 18.5071 20.7553C27.389 11.8814 39.4355 6.89618 51.9964 6.89618C64.5573 6.89618 76.6038 11.8814 85.4857 20.7553C94.3676 29.6291 99.3574 41.6646 99.3574 54.2141Z" fill="#FFD102"/>
<path d="M94.7222 47.3179L0.000144958 47.3179C0.000144958 34.7684 4.98996 22.7329 13.8719 13.8591C22.7538 4.98527 34.8002 0 47.3612 0C59.9221 0 71.9685 4.98527 80.8504 13.8591C89.7324 22.7329 94.7222 34.7684 94.7222 47.3179Z" fill="#4472F2"/>
<path d="M81.0172 21.8466L78.498 24.5649L81.2188 27.4342L78.3973 30.4544L81.2188 33.6258L78.498 36.5454L81.2188 39.5153L78.2965 42.737" stroke="#FFD102" stroke-width="6.46031" stroke-miterlimit="10"/>
<path d="M71.7969 10.9233L69.2777 15.051L71.9984 19.4305L69.1769 24.0112L71.9984 28.894L69.2777 33.3238L72.0488 37.8542L69.0762 42.737" stroke="#FFD102" stroke-width="7.53703" stroke-miterlimit="10"/>
<path d="M62.5767 6.34219L60.1079 10.9733L62.7782 15.9568L59.9567 21.1416L62.7782 26.6285L60.0575 31.6623L62.8286 36.7465L59.856 42.2837" stroke="#FFD102" stroke-width="7.53703" stroke-miterlimit="10"/>
<path d="M53.3565 4.47992L50.8877 9.36273L53.558 14.5979L50.7869 20.0344L53.558 25.8233L50.8373 31.1088L53.6084 36.495L50.6358 42.2839" stroke="#FFD102" stroke-width="7.53703" stroke-miterlimit="10"/>
<path d="M14.0068 21.8466L16.4756 24.5649L13.8053 27.4342L16.6268 30.4544L13.8053 33.6258L16.526 36.5454L13.7549 39.5153L16.7275 42.737" stroke="#FFD102" stroke-width="6.46031" stroke-miterlimit="10"/>
<path d="M23.227 10.9233L25.6958 15.051L23.0255 19.4305L25.8469 24.0112L23.0255 28.894L25.7462 33.3238L22.9751 37.8542L25.9478 42.737" stroke="#FFD102" stroke-width="7.53703" stroke-miterlimit="10"/>
<path d="M32.4473 6.34219L34.916 10.9733L32.2457 15.9568L35.0169 21.1416L32.2457 26.6285L34.9665 31.6623L32.1954 36.7465L35.168 42.2837" stroke="#FFD102" stroke-width="7.53703" stroke-miterlimit="10"/>
<path d="M41.6674 4.47992L44.1363 9.36273L41.4659 14.5979L44.237 20.0344L41.4659 25.8233L44.1866 31.1088L41.4155 36.495L44.3882 42.2839" stroke="#FFD102" stroke-width="7.53703" stroke-miterlimit="10"/>
</svg>
