<svg width="74" height="36" viewBox="0 0 74 36" fill="none" xmlns="http://www.w3.org/2000/svg">
<path d="M73.2837 35.5792H6.91332C6.91332 27.9023 10.4096 20.5398 16.633 15.1114C22.8565 9.68305 31.2972 6.63342 40.0985 6.63342C48.8998 6.63342 57.3406 9.68305 63.564 15.1114C69.7874 20.5398 73.2837 27.9023 73.2837 35.5792Z" fill="black"/>
<path d="M68.6914 32.6931H3.20457C3.20457 25.1253 6.65432 17.8674 12.7949 12.5162C18.9355 7.16492 27.2639 4.15863 35.948 4.15863C44.6321 4.15863 52.9605 7.16492 59.1011 12.5162C65.2417 17.8674 68.6914 25.1253 68.6914 32.6931Z" fill="#FFD102"/>
<path d="M65.4868 28.5344L-2.28882e-05 28.5344C-2.28882e-05 20.9666 3.44973 13.7088 9.59031 8.35755C15.7309 3.0063 24.0593 0 32.7434 0C41.4275 0 49.7559 3.0063 55.8965 8.35755C62.0371 13.7088 65.4868 20.9666 65.4868 28.5344Z" fill="#4472F2"/>
<path d="M56.0116 13.1743L54.2699 14.8135L56.1509 16.5438L54.2002 18.3652L56.1509 20.2776L54.2699 22.0382L56.1509 23.8292L54.1305 25.772" stroke="#FFD102" stroke-width="6.46031" stroke-miterlimit="10"/>
<path d="M49.6369 6.58716L47.8952 9.07633L49.7762 11.7173L47.8255 14.4797L49.7762 17.4242L47.8952 20.0955L49.811 22.8275L47.7559 25.772" stroke="#FFD102" stroke-width="7.53703" stroke-miterlimit="10"/>
<path d="M43.2628 3.82452L41.556 6.61726L43.4022 9.62248L41.4515 12.7491L43.4022 16.0579L41.5212 19.0935L43.437 22.1594L41.3819 25.4985" stroke="#FFD102" stroke-width="7.53703" stroke-miterlimit="10"/>
<path d="M36.8883 2.70154L35.1815 5.64605L37.0277 8.80305L35.1118 12.0815L37.0277 15.5724L35.1467 18.7598L37.0625 22.0078L35.0073 25.4987" stroke="#FFD102" stroke-width="7.53703" stroke-miterlimit="10"/>
<path d="M9.68344 13.1743L11.3903 14.8135L9.54414 16.5438L11.4948 18.3652L9.54414 20.2776L11.4251 22.0382L9.50927 23.8292L11.5645 25.772" stroke="#FFD102" stroke-width="6.46031" stroke-miterlimit="10"/>
<path d="M16.058 6.58716L17.7648 9.07633L15.9186 11.7173L17.8693 14.4797L15.9186 17.4242L17.7996 20.0955L15.8838 22.8275L17.939 25.772" stroke="#FFD102" stroke-width="7.53703" stroke-miterlimit="10"/>
<path d="M22.4325 3.82452L24.1393 6.61726L22.2932 9.62248L24.209 12.7491L22.2932 16.0579L24.1742 19.0935L22.2583 22.1594L24.3135 25.4985" stroke="#FFD102" stroke-width="7.53703" stroke-miterlimit="10"/>
<path d="M28.807 2.70154L30.5138 5.64605L28.6676 8.80305L30.5835 12.0815L28.6676 15.5724L30.5486 18.7598L28.6328 22.0078L30.688 25.4987" stroke="#FFD102" stroke-width="7.53703" stroke-miterlimit="10"/>
</svg>
