<svg width="151" height="55" viewBox="0 0 151 55" fill="none" xmlns="http://www.w3.org/2000/svg">
<path d="M143.54 27.4545C143.54 30.2625 141.884 33.0863 138.548 35.7929C135.22 38.4929 130.344 40.9688 124.231 43.067C112.013 47.2601 95.0693 49.8716 76.3074 49.8716C57.5456 49.8716 40.6022 47.2601 28.3843 43.067C22.2705 40.9688 17.3945 38.4929 14.067 35.7929C10.7312 33.0863 9.07483 30.2625 9.07483 27.4545C9.07483 24.6465 10.7312 21.8227 14.067 19.116C17.3945 16.416 22.2705 13.9401 28.3843 11.8419C40.6022 7.6488 57.5456 5.03735 76.3074 5.03735C95.0693 5.03735 112.013 7.6488 124.231 11.8419C130.344 13.9401 135.22 16.416 138.548 19.116C141.884 21.8227 143.54 24.6465 143.54 27.4545Z" stroke="#FFC700" stroke-width="2"/>
<path d="M137.08 26.2433C137.08 29.2348 135.383 32.2202 132.01 35.0654C128.641 37.9065 123.707 40.5102 117.523 42.7163C105.163 47.1255 88.0215 49.8717 69.0401 49.8717C50.0587 49.8717 32.9175 47.1255 20.5574 42.7163C14.3729 40.5102 9.43895 37.9065 6.07023 35.0654C2.69677 32.2202 1 29.2348 1 26.2433C1 23.2519 2.69677 20.2664 6.07023 17.4213C9.43895 14.5801 14.3729 11.9765 20.5574 9.77033C32.9175 5.36114 50.0587 2.61499 69.0401 2.61499C88.0215 2.61499 105.163 5.36114 117.523 9.77033C123.707 11.9765 128.641 14.5801 132.01 17.4213C135.383 20.2664 137.08 23.2519 137.08 26.2433Z" stroke="#FFC700" stroke-width="2"/>
<path d="M147.578 24.6283C147.578 27.6198 145.881 30.6052 142.507 33.4504C139.139 36.2915 134.205 38.8952 128.02 41.1013C115.66 45.5105 98.5188 48.2567 79.5374 48.2567C60.556 48.2567 43.4149 45.5105 31.0547 41.1013C24.8702 38.8952 19.9363 36.2915 16.5675 33.4504C13.1941 30.6052 11.4973 27.6198 11.4973 24.6283C11.4973 21.6369 13.1941 18.6515 16.5675 15.8063C19.9363 12.9652 24.8702 10.3615 31.0547 8.15534C43.4149 3.74615 60.556 1 79.5374 1C98.5188 1 115.66 3.74615 128.02 8.15534C134.205 10.3615 139.139 12.9652 142.507 15.8063C145.881 18.6515 147.578 21.6369 147.578 24.6283Z" stroke="#FFC700" stroke-width="2"/>
<path d="M150 30.2807C150 33.2722 148.303 36.2576 144.93 39.1027C141.561 41.9439 136.627 44.5475 130.443 46.7537C118.082 51.1629 100.941 53.909 81.9599 53.909C62.9785 53.909 45.8373 51.1629 33.4772 46.7537C27.2927 44.5475 22.3587 41.9439 18.99 39.1027C15.6166 36.2576 13.9198 33.2722 13.9198 30.2807C13.9198 27.2892 15.6166 24.3038 18.99 21.4586C22.3587 18.6175 27.2927 16.0138 33.4772 13.8077C45.8373 9.3985 62.9785 6.65234 81.9599 6.65234C100.941 6.65234 118.082 9.3985 130.443 13.8077C136.627 16.0138 141.561 18.6175 144.93 21.4586C148.303 24.3038 150 27.2892 150 30.2807Z" stroke="#FFC700" stroke-width="2"/>
</svg>
